<svg width="40" height="40" viewBox="0 0 40 40" fill="none" xmlns="http://www.w3.org/2000/svg">
<g clip-path="url(#clip0)">
<path d="M28.771 10.5658C28.771 10.3959 28.8359 10.2259 28.9655 10.0963L36.0371 3.02412C36.2965 2.76475 36.717 2.76475 36.9764 3.02412C37.2357 3.2835 37.2357 3.70398 36.9764 3.96336L29.9048 11.0355C29.6455 11.2949 29.225 11.2949 28.9656 11.0355C28.8359 10.9058 28.771 10.7358 28.771 10.5658Z" fill="black"/>
<path d="M33.4859 1.13594C33.4859 1.06016 33.4988 0.983772 33.5255 0.909924C33.6133 0.667591 33.8333 0.497897 34.0899 0.47457L39.2758 0.00319866C39.4721 -0.0145684 39.6662 0.0556539 39.8055 0.195011C39.9449 0.334367 40.0149 0.528597 39.9973 0.72476L39.526 5.91069C39.5027 6.16741 39.333 6.38726 39.0906 6.47501C38.8483 6.56276 38.5771 6.50245 38.3949 6.32018L33.6804 1.60562C33.5536 1.47895 33.4859 1.30902 33.4859 1.13594ZM38.6023 1.39822L35.6223 1.66907L38.3315 4.37825L38.6023 1.39822Z" fill="black"/>
</g>
<defs>
<clipPath id="clip0">
<rect x="40" width="40" height="40" transform="rotate(90 40 0)" fill="white"/>
</clipPath>
</defs>
</svg>
