<svg width="16" height="16" viewBox="0 0 16 16" fill="none" xmlns="http://www.w3.org/2000/svg">
<path d="M8.00065 10.6667C9.47341 10.6667 10.6673 9.47277 10.6673 8.00001C10.6673 6.52725 9.47341 5.33334 8.00065 5.33334C6.52789 5.33334 5.33398 6.52725 5.33398 8.00001C5.33398 9.47277 6.52789 10.6667 8.00065 10.6667Z" fill="#919191"/>
<path d="M8.66732 2.71268V1.33334H7.33398V2.71268C6.16085 2.86246 5.07063 3.39746 4.23436 4.23372C3.3981 5.06999 2.86311 6.16021 2.71332 7.33334H1.33398V8.66668H2.71332C2.86289 9.8399 3.39781 10.9302 4.23412 11.7665C5.07042 12.6029 6.16076 13.1378 7.33398 13.2873V14.6667H8.66732V13.2873C9.84058 13.1379 10.931 12.603 11.7673 11.7667C12.6036 10.9303 13.1385 9.83994 13.288 8.66668H14.6673V7.33334H13.288C13.1384 6.16012 12.6035 5.06978 11.7672 4.23347C10.9309 3.39717 9.84054 2.86225 8.66732 2.71268ZM8.00065 12C5.79465 12 4.00065 10.206 4.00065 8.00001C4.00065 5.79401 5.79465 4.00001 8.00065 4.00001C10.2067 4.00001 12.0007 5.79401 12.0007 8.00001C12.0007 10.206 10.2067 12 8.00065 12Z" fill="#919191"/>
</svg>
