<svg width="15" height="18" viewBox="0 0 15 18" fill="none" xmlns="http://www.w3.org/2000/svg">
<path d="M14.1125 15.8413H0.992235C0.553902 15.8413 0.195129 16.1998 0.195129 16.6384C0.195129 17.0768 0.553902 17.4355 0.992235 17.4355H14.1206C14.5589 17.4355 14.9177 17.0768 14.9177 16.6384C14.9177 16.1998 14.5589 15.8413 14.1125 15.8413Z" fill="#1867C6"/>
<path d="M6.97031 12.9797C7.12188 13.1391 7.32909 13.2348 7.55216 13.2348C7.77548 13.2348 7.98268 13.1391 8.134 12.9797L12.8051 7.96598C13.108 7.64699 13.0841 7.1369 12.7653 6.84208C12.4463 6.5392 11.9362 6.56286 11.6414 6.88186L8.34926 10.4129V1.70873C8.34926 1.27014 7.99049 0.911621 7.55216 0.911621C7.11382 0.911621 6.75505 1.27014 6.75505 1.70873V10.4129L3.47096 6.88186C3.16808 6.56311 2.6658 6.5392 2.34705 6.84208C2.02831 7.14496 2.00439 7.64724 2.30727 7.96598L6.97031 12.9797Z" fill="#1867C6"/>
</svg>
