<svg width="70" height="70" viewBox="0 0 70 70" fill="none" xmlns="http://www.w3.org/2000/svg">
<path d="M54.8336 10.5002C54.1336 10.5002 53.6669 10.0336 53.6669 9.33361C53.6669 6.06699 51.1003 3.50023 47.8336 3.50023H24.5002C21.2336 3.50023 18.6668 6.06686 18.6668 9.33361C18.6668 10.0336 18.2002 10.5002 17.5002 10.5002C16.8002 10.5002 16.3336 10.0336 16.3336 9.33361C16.3336 4.78361 19.9502 1.16699 24.5002 1.16699H47.8336C52.3836 1.16699 56.0002 4.78361 56.0002 9.33361C56.0002 10.0336 55.5336 10.5002 54.8336 10.5002Z" fill="#FFE100"/>
<path d="M28.0001 23.3337H4.66669C3.38331 23.3337 2.33331 22.2837 2.33331 21.0004C2.33331 19.717 3.38331 18.667 4.66669 18.667H28.0001C29.2835 18.667 30.3335 19.717 30.3335 21.0004C30.3335 22.2837 29.2835 23.3337 28.0001 23.3337Z" fill="#FDCC00"/>
<path d="M28.0001 38.5007H4.66669C3.38331 38.5007 2.33331 37.4507 2.33331 36.1674C2.33331 34.884 3.38331 33.834 4.66669 33.834H28.0001C29.2835 33.834 30.3335 34.884 30.3335 36.1674C30.3335 37.4507 29.2835 38.5007 28.0001 38.5007Z" fill="#FDCC00"/>
<path d="M65.3335 23.3337H42.0001C40.7168 23.3337 39.6667 22.2837 39.6667 21.0004C39.6667 19.717 40.7168 18.667 42.0001 18.667H65.3335C66.6169 18.667 67.6669 19.717 67.6669 21.0004C67.6667 22.2837 66.6167 23.3337 65.3335 23.3337Z" fill="#FDCC00"/>
<path d="M65.3335 38.5007H42.0001C40.7168 38.5007 39.6667 37.4507 39.6667 36.1674C39.6667 34.884 40.7168 33.834 42.0001 33.834H65.3335C66.6169 33.834 67.6669 34.884 67.6669 36.1674C67.6667 37.4507 66.6167 38.5007 65.3335 38.5007Z" fill="#FDCC00"/>
<path d="M26.8334 18.667V16.1004C26.8334 11.7837 23.2168 8.16699 18.9 8.16699H13.8834C9.45 8.16699 5.83337 11.7836 5.83337 16.1004V18.667H26.8334Z" fill="#FFE100"/>
<path d="M5.83337 33.834H26.8334V23.334H5.83337V33.834Z" fill="#FFE100"/>
<path d="M5.83337 47.8334H26.8334V38.5H5.83337V47.8334Z" fill="#FFE100"/>
<path d="M64.1663 18.667V16.1004C64.1663 11.7837 60.5497 8.16699 56.2329 8.16699H51.2163C46.7829 8.16699 43.1663 11.7836 43.1663 16.1004V18.667H64.1663Z" fill="#FFE100"/>
<path d="M43.1663 33.834H64.1663V23.334H43.1663V33.834Z" fill="#FFE100"/>
<path d="M43.1663 47.8334H64.1663V38.5H43.1663V47.8334Z" fill="#FFE100"/>
<path d="M1.16644 68.834H68.8332V47.834H1.16644V68.834Z" fill="#FFE100"/>
<path d="M4.66626 18.667H6.99964C5.71626 18.667 4.66626 19.717 4.66626 21.0004C4.66626 22.2838 5.71626 23.3338 6.99964 23.3338H4.66626C3.38289 23.3338 2.33289 22.2838 2.33289 21.0004C2.33289 19.717 3.38302 18.667 4.66626 18.667Z" fill="white"/>
<path d="M4.66626 33.834H6.99964C5.71626 33.834 4.66626 34.884 4.66626 36.1674C4.66626 37.4507 5.71626 38.5007 6.99964 38.5007H4.66626C3.38289 38.5007 2.33289 37.4507 2.33289 36.1674C2.33302 34.884 3.38302 33.834 4.66626 33.834Z" fill="white"/>
<path d="M13.7666 8.16699H16.1C11.7834 8.16699 8.16662 11.7836 8.16662 16.1004V18.667H5.83337V16.1004C5.83337 11.7837 9.45 8.16699 13.7666 8.16699Z" fill="white"/>
<path d="M5.83337 33.834H8.16662V23.334H5.83337V33.834Z" fill="white"/>
<path d="M5.83337 47.8334H8.16662V38.5H5.83337V47.8334Z" fill="white"/>
<path d="M1.16644 68.834H3.49982V47.834H1.16644V68.834Z" fill="white"/>
<path d="M6.99988 58.3337H11.6665V53.667H6.99988V58.3337Z" fill="#63D3FD"/>
<path d="M17.5 58.3337H22.1666V53.667H17.5V58.3337Z" fill="#63D3FD"/>
<path d="M38.5 58.3337H43.1666V53.667H38.5V58.3337Z" fill="#63D3FD"/>
<path d="M48.9997 58.3337H53.6663V53.667H48.9997V58.3337Z" fill="#63D3FD"/>
<path d="M59.4999 58.3337H64.1665V53.667H59.4999V58.3337Z" fill="#63D3FD"/>
<path d="M27.9998 58.3337H32.6664V53.667H27.9998V58.3337Z" fill="#63D3FD"/>
<path d="M68.8334 70.0002H1.16662C0.466621 70.0002 0 69.5336 0 68.8336V47.8336C0 47.1336 0.466621 46.667 1.16662 46.667H68.8332C69.5332 46.667 69.9999 47.1336 69.9999 47.8336V68.8336C70 69.5336 69.5334 70.0002 68.8334 70.0002ZM2.33338 67.6669H67.6668V49.0002H2.33338V67.6669Z" fill="black"/>
<path d="M11.6666 59.4999H7C6.3 59.4999 5.83337 59.0332 5.83337 58.3332V53.6666C5.83337 52.9666 6.3 52.5 7 52.5H11.6666C12.3666 52.5 12.8332 52.9666 12.8332 53.6666V58.3332C12.8334 59.0332 12.3666 59.4999 11.6666 59.4999ZM8.16662 57.1665H10.5V54.8331H8.16662V57.1665Z" fill="black"/>
<path d="M11.6666 64.1663H7C6.3 64.1663 5.83337 63.6996 5.83337 62.9996C5.83337 62.2996 6.3 61.833 7 61.833H11.6666C12.3666 61.833 12.8332 62.2996 12.8332 62.9996C12.8332 63.6996 12.3666 64.1663 11.6666 64.1663Z" fill="black"/>
<path d="M22.1668 59.4999H17.5002C16.8002 59.4999 16.3336 59.0332 16.3336 58.3332V53.6666C16.3336 52.9666 16.8002 52.5 17.5002 52.5H22.1668C22.8668 52.5 23.3334 52.9666 23.3334 53.6666V58.3332C23.3336 59.0332 22.8668 59.4999 22.1668 59.4999ZM18.6668 57.1665H21.0002V54.8331H18.6668V57.1665Z" fill="black"/>
<path d="M22.1668 64.1663H17.5002C16.8002 64.1663 16.3336 63.6996 16.3336 62.9996C16.3336 62.2996 16.8002 61.833 17.5002 61.833H22.1668C22.8668 61.833 23.3334 62.2996 23.3334 62.9996C23.3334 63.6996 22.8668 64.1663 22.1668 64.1663Z" fill="black"/>
<path d="M43.1667 59.4999H38.5001C37.8001 59.4999 37.3334 59.0332 37.3334 58.3332V53.6666C37.3334 52.9666 37.8001 52.5 38.5001 52.5H43.1667C43.8667 52.5 44.3333 52.9666 44.3333 53.6666V58.3332C44.3334 59.0332 43.8667 59.4999 43.1667 59.4999ZM39.6667 57.1665H42.0001V54.8331H39.6667V57.1665Z" fill="black"/>
<path d="M43.1667 64.1663H38.5001C37.8001 64.1663 37.3334 63.6996 37.3334 62.9996C37.3334 62.2996 37.8001 61.833 38.5001 61.833H43.1667C43.8667 61.833 44.3333 62.2996 44.3333 62.9996C44.3333 63.6996 43.8667 64.1663 43.1667 64.1663Z" fill="black"/>
<path d="M53.6665 59.4999H48.9999C48.2999 59.4999 47.8333 59.0332 47.8333 58.3332V53.6666C47.8333 52.9666 48.2999 52.5 48.9999 52.5H53.6665C54.3665 52.5 54.8331 52.9666 54.8331 53.6666V58.3332C54.8333 59.0332 54.3665 59.4999 53.6665 59.4999ZM50.1665 57.1665H52.4999V54.8331H50.1665V57.1665Z" fill="black"/>
<path d="M53.6665 64.1663H48.9999C48.2999 64.1663 47.8333 63.6996 47.8333 62.9996C47.8333 62.2996 48.2999 61.833 48.9999 61.833H53.6665C54.3665 61.833 54.8331 62.2996 54.8331 62.9996C54.8331 63.6996 54.3665 64.1663 53.6665 64.1663Z" fill="black"/>
<path d="M64.1666 59.4999H59.5C58.8 59.4999 58.3334 59.0332 58.3334 58.3332V53.6666C58.3334 52.9666 58.8 52.5 59.5 52.5H64.1666C64.8666 52.5 65.3332 52.9666 65.3332 53.6666V58.3332C65.3334 59.0332 64.8666 59.4999 64.1666 59.4999ZM60.6666 57.1665H63V54.8331H60.6666V57.1665Z" fill="black"/>
<path d="M64.1666 64.1663H59.5C58.8 64.1663 58.3334 63.6996 58.3334 62.9996C58.3334 62.2996 58.8 61.833 59.5 61.833H64.1666C64.8666 61.833 65.3332 62.2996 65.3332 62.9996C65.3332 63.6996 64.8666 64.1663 64.1666 64.1663Z" fill="black"/>
<path d="M32.6666 59.4999H27.9999C27.2999 59.4999 26.8333 59.0332 26.8333 58.3332V53.6666C26.8333 52.9666 27.2999 52.5 27.9999 52.5H32.6666C33.3666 52.5 33.8332 52.9666 33.8332 53.6666V58.3332C33.8333 59.0332 33.3666 59.4999 32.6666 59.4999ZM29.1666 57.1665H31.4999V54.8331H29.1666V57.1665Z" fill="black"/>
<path d="M32.6666 64.1663H27.9999C27.2999 64.1663 26.8333 63.6996 26.8333 62.9996C26.8333 62.2996 27.2999 61.833 27.9999 61.833H32.6666C33.3666 61.833 33.8332 62.2996 33.8332 62.9996C33.8332 63.6996 33.3666 64.1663 32.6666 64.1663Z" fill="black"/>
<path d="M27.9998 24.5H4.66644C2.68306 24.5 1.16644 22.9834 1.16644 21C1.16644 19.0166 2.68306 17.5 4.66644 17.5H27.9998C29.9832 17.5 31.4998 19.0166 31.4998 21C31.4998 22.9834 29.9832 24.5 27.9998 24.5ZM4.66644 19.8334C3.96644 19.8334 3.49982 20.3 3.49982 21C3.49982 21.7 3.96644 22.1666 4.66644 22.1666H27.9998C28.6998 22.1666 29.1664 21.7 29.1664 21C29.1664 20.3 28.6998 19.8334 27.9998 19.8334H4.66644Z" fill="black"/>
<path d="M27.9998 39.667H4.66644C2.68306 39.667 1.16644 38.1504 1.16644 36.167C1.16644 34.1836 2.68306 32.667 4.66644 32.667H27.9998C29.9832 32.667 31.4998 34.1836 31.4998 36.167C31.4998 38.1504 29.9832 39.667 27.9998 39.667ZM4.66644 35.0004C3.96644 35.0004 3.49982 35.467 3.49982 36.167C3.49982 36.867 3.96644 37.3336 4.66644 37.3336H27.9998C28.6998 37.3336 29.1664 36.867 29.1664 36.167C29.1664 35.467 28.6998 35.0004 27.9998 35.0004H4.66644Z" fill="black"/>
<path d="M65.3333 24.5H41.9999C40.0166 24.5 38.4999 22.9834 38.4999 21C38.4999 19.0166 40.0166 17.5 41.9999 17.5H65.3333C67.3167 17.5 68.8333 19.0166 68.8333 21C68.8333 22.9834 67.3166 24.5 65.3333 24.5ZM41.9999 19.8334C41.2999 19.8334 40.8333 20.3 40.8333 21C40.8333 21.7 41.2999 22.1666 41.9999 22.1666H65.3333C66.0333 22.1666 66.4999 21.7 66.4999 21C66.4999 20.3 66.0333 19.8334 65.3333 19.8334H41.9999Z" fill="black"/>
<path d="M65.3333 39.667H41.9999C40.0166 39.667 38.4999 38.1504 38.4999 36.167C38.4999 34.1836 40.0166 32.667 41.9999 32.667H65.3333C67.3167 32.667 68.8333 34.1836 68.8333 36.167C68.8333 38.1504 67.3166 39.667 65.3333 39.667ZM41.9999 35.0004C41.2999 35.0004 40.8333 35.467 40.8333 36.167C40.8333 36.867 41.2999 37.3336 41.9999 37.3336H65.3333C66.0333 37.3336 66.4999 36.867 66.4999 36.167C66.4999 35.467 66.0333 35.0004 65.3333 35.0004H41.9999Z" fill="black"/>
<path d="M54.8333 8.16662H52.4999C52.4999 4.9 49.9333 2.33324 46.6666 2.33324H23.3333C20.0666 2.33338 17.4999 4.9 17.4999 8.16662H15.1666C15.1666 3.61662 18.7833 0 23.3333 0H46.6667C51.2166 0 54.8333 3.61662 54.8333 8.16662Z" fill="black"/>
<path d="M28.0001 19.8334H4.66675V16.1C4.66675 11.0834 8.75013 7 13.7667 7H18.7834C23.8 7 27.8834 11.0834 27.8834 16.1V19.8334H28.0001ZM7.00013 17.5H25.6667V16.1C25.6667 12.3666 22.6334 9.33338 18.9001 9.33338H13.8835C10.0335 9.33338 7.00013 12.3668 7.00013 16.1V17.5Z" fill="black"/>
<path d="M28.0001 35.0004H4.66675V22.167H28.0001V35.0004ZM7.00013 32.667H25.6667V24.5004H7.00013V32.667Z" fill="black"/>
<path d="M28.0001 48.9996H4.66675V37.333H28.0001V48.9996ZM7.00013 46.6663H25.6667V39.6663H7.00013V46.6663Z" fill="black"/>
<path d="M65.3333 19.8334H41.9999V16.1C41.9999 11.0834 46.0833 7 51.0999 7H56.1165C61.1331 7 65.2165 11.0834 65.2165 16.1V19.8334H65.3333ZM44.3333 17.5H62.9999V16.1C62.9999 12.3666 59.9665 9.33338 56.2333 9.33338H51.2166C47.3666 9.33338 44.3333 12.3668 44.3333 16.1V17.5Z" fill="black"/>
<path d="M65.3333 35.0004H41.9999V22.167H65.3333V35.0004ZM44.3333 32.667H62.9999V24.5004H44.3333V32.667Z" fill="black"/>
<path d="M65.3333 48.9996H41.9999V37.333H65.3333V48.9996ZM44.3333 46.6663H62.9999V39.6663H44.3333V46.6663Z" fill="black"/>
</svg>
