<svg width="60" height="60" viewBox="0 0 60 60" fill="none" xmlns="http://www.w3.org/2000/svg">
<circle cx="30" cy="30" r="30" fill="#F5D200"/>
<path d="M19.4979 30.8517L19.498 30.8517L19.4916 30.8415C18.2796 28.9105 17.6406 26.6682 17.6406 24.3594C17.6406 17.5417 23.1822 12 30 12C36.8178 12 42.3594 17.5417 42.3594 24.3594C42.3594 26.5873 41.7607 28.7888 40.6127 30.675L40.6121 30.6759L30.1324 47.9329L30.127 47.9419L30.1217 47.951C30.1103 47.9708 30.0975 47.9812 30.0801 47.989C30.058 47.9988 30.0307 48.0022 30.0075 47.9986L30.0003 47.9974L29.993 47.9964C29.988 47.9957 29.9856 47.9948 29.9849 47.9945C29.9843 47.9943 29.9834 47.9939 29.9818 47.9928C29.9798 47.9915 29.9657 47.9817 29.9465 47.9508C29.9463 47.9504 29.9461 47.9501 29.9458 47.9497L19.4979 30.8517ZM22.3203 24.3594C22.3203 28.5545 25.6986 32.0391 30 32.0391C34.3525 32.0391 37.6797 28.5257 37.6797 24.3594C37.6797 20.1332 34.2262 16.6797 30 16.6797C25.7738 16.6797 22.3203 20.1332 22.3203 24.3594Z" stroke="black" stroke-width="2"/>
<path d="M30.5544 48.2015C30.538 48.2297 30.5198 48.256 30.5 48.2803V31.5224C34.3209 31.2664 37.1797 28.0959 37.1797 24.3594C37.1797 20.5774 34.219 17.4558 30.5 17.197V11.5096C37.3629 11.7729 42.8594 17.433 42.8594 24.3594C42.8594 26.6757 42.2371 28.9677 41.0397 30.935L41.0394 30.9354L30.5597 48.1924L30.5596 48.1924L30.5544 48.2015Z" stroke="black"/>
</svg>
