<svg width="57" height="57" viewBox="0 0 57 57" fill="none" xmlns="http://www.w3.org/2000/svg">
<path d="M39.7143 32.6685V34.6117L41.2955 33.4822L56 22.9789V51.25H1V22.0357H4.07143H5.07143V21.0357V5.75H11.2143V21.0357V22.0357H12.2143H16.2857H17.2857V21.0357V12.5357H19.3571V21.0357V22.0357H20.3571H23.4286V32.6685V34.6117L25.0098 33.4822L39.7143 22.9789V32.6685ZM21.7143 46.4643H22.7143V45.4643V40.0357V39.0357H21.7143H16.2857H15.2857V40.0357V45.4643V46.4643H16.2857H21.7143ZM31.2143 46.4643H32.2143V45.4643V40.0357V39.0357H31.2143H25.7857H24.7857V40.0357V45.4643V46.4643H25.7857H31.2143ZM40.7143 46.4643H41.7143V45.4643V40.0357V39.0357H40.7143H35.2857H34.2857V40.0357V45.4643V46.4643H35.2857H40.7143Z" fill="#FFE100" stroke="black" stroke-width="2"/>
</svg>
