<svg width="70" height="70" viewBox="0 0 70 70" fill="none" xmlns="http://www.w3.org/2000/svg">
<g clip-path="url(#clip0)">
<path d="M64.1667 22.75H51.5317L40.915 33.3784L44.205 36.6684L53.4684 27.4166H64.1667V22.75Z" fill="#FEDD0A"/>
<path d="M64.1665 27.4166V48.4166H68.8333V22.75H64.1665V27.4166Z" fill="#FFA800"/>
<path d="M10.5001 53.0835H45.5001C48.0774 53.0835 50.1667 55.1728 50.1667 57.7501V60.0835C50.1667 62.6608 48.0774 64.7501 45.5001 64.7501H10.5001C7.92283 64.7501 5.8335 62.6608 5.8335 60.0835V57.7501C5.8335 55.1728 7.92283 53.0835 10.5001 53.0835Z" fill="#FFA800"/>
<path d="M5.83313 53.0833H40.8331C43.4104 53.0833 45.4997 55.1726 45.4997 57.7499V60.0833C45.4997 62.6605 43.4104 64.7499 40.8331 64.7499H5.83313C3.25584 64.7499 1.1665 62.6605 1.1665 60.0833V57.7499C1.16637 55.1726 3.2557 53.0833 5.83313 53.0833Z" fill="white"/>
<path d="M9.33361 53.0833H42.0002C44.5775 53.0833 46.6669 55.1726 46.6669 57.7499V60.0833C46.6669 62.6605 44.5775 64.7499 42.0002 64.7499H9.33361C6.75633 64.7499 4.66699 62.6605 4.66699 60.0833V57.7499C4.66686 55.1726 6.75619 53.0833 9.33361 53.0833Z" fill="#FEDD0A"/>
<path d="M45.5 65.9165H5.83338C2.61324 65.9128 0.00382813 63.3033 0 60.0833V57.7499C0.00382813 54.5297 2.61324 51.9203 5.83338 51.9165H45.5C48.7201 51.9203 51.3296 54.5297 51.3334 57.7499V60.0833C51.3296 63.3033 48.7201 65.9128 45.5 65.9165ZM5.83338 54.2499C3.90127 54.2519 2.33543 55.8178 2.33338 57.7499V60.0833C2.33543 62.0154 3.90127 63.5812 5.83338 63.5833H45.5C47.4321 63.5812 48.9979 62.0154 49 60.0833V57.7499C48.9979 55.8178 47.4321 54.2519 45.5 54.2499H5.83338Z" fill="black"/>
<path d="M45.4999 41.4165H11.6665V53.0831H45.4999V41.4165Z" fill="#FFA800"/>
<path d="M40.8334 41.4165H7V53.0831H40.8334V41.4165Z" fill="white"/>
<path d="M45.5 41.4164H35V32.083H36.1666C38.6422 32.0823 41.0166 33.0655 42.767 34.8159C44.5175 36.5666 45.5007 38.9408 45.5 41.4164Z" fill="#FFA800"/>
<path d="M42 41.4163H10.5V53.0829H42V41.4163Z" fill="#FEDD0A"/>
<path d="M42 41.4164H35V32.3748C39.1211 33.4413 41.9997 37.1595 42 41.4164Z" fill="#FEDD0A"/>
<path d="M45.4998 54.2499H6.99977C6.69037 54.25 6.39355 54.1271 6.17467 53.9082C5.95592 53.6895 5.83301 53.3927 5.83301 53.0831V41.4165C5.83287 41.1071 5.95578 40.8103 6.17467 40.5914C6.39355 40.3725 6.69023 40.2498 6.99977 40.2498H45.4998C45.8092 40.2496 46.106 40.3725 46.3249 40.5914C46.5436 40.8102 46.6665 41.107 46.6665 41.4165V53.0831C46.6667 53.3925 46.5438 53.6893 46.3249 53.9082C46.106 54.1271 45.8092 54.25 45.4998 54.2499ZM8.16639 51.9165H44.333V42.5831H8.16639V51.9165Z" fill="black"/>
<path d="M33.8333 41.4166H4.66651C2.73357 41.4166 1.1665 39.8496 1.1665 37.9166V26.2499L1.16664 6.41662C1.16664 5.77227 1.68904 5.25 2.33326 5.25H24.9084C25.3694 5.25 25.7872 5.52152 25.9745 5.94289L34.8994 26.0237C34.9657 26.1729 34.9999 26.3344 34.9999 26.4976V40.25C34.9999 40.8944 34.4776 41.4166 33.8333 41.4166Z" fill="#FFA800"/>
<path d="M7.80526 41.4166H4.30526C2.47323 41.3145 1.06954 39.7489 1.16688 37.9166V6.41662C1.13612 5.80494 1.60534 5.2835 2.21688 5.25H5.71688C5.10534 5.2835 4.63612 5.80508 4.66688 6.41662V37.9166C4.56954 39.7489 5.97323 41.3145 7.80526 41.4166Z" fill="white"/>
<path d="M31.4998 26.495V40.25C31.5305 40.8617 31.0613 41.3831 30.4498 41.4166H7.80477C5.97274 41.3145 4.56905 39.7489 4.66639 37.9166V6.41662C4.63563 5.80494 5.10485 5.2835 5.71639 5.25H22.4464C22.8776 5.25779 23.2588 5.53205 23.403 5.93838L31.4064 26.0285C31.4675 26.1764 31.4992 26.3349 31.4998 26.495Z" fill="#FEDD0A"/>
<path d="M33.8325 42.5833H4.66578C2.38723 42.5907 0.438848 40.9458 0.0641016 38.6981C-0.00507813 38.287 0.150234 37.8702 0.471797 37.6048C0.793359 37.3394 1.23195 37.2655 1.62256 37.4111C2.01316 37.5567 2.29645 37.8997 2.36562 38.3108C2.55361 39.4336 3.5276 40.2547 4.66592 40.2499H33.8325V27.4165H19.8325C18.5445 27.415 17.5007 26.3713 17.4992 25.0831V11.0831C17.5007 9.79512 18.5444 8.75127 19.8325 8.74977H25.9381L24.9019 6.41078L2.33254 6.41652V8.7499H12.8325C14.1206 8.75141 15.1644 9.79512 15.1659 11.0833V25.0833C15.1644 26.3713 14.1207 27.4152 12.8325 27.4167H2.33254V29.1667C2.33254 29.811 1.81014 30.3333 1.16592 30.3333C0.521699 30.3333 -0.000839844 29.8109 -0.000839844 29.1665V26.2499C-0.000976562 25.9405 0.121934 25.6437 0.34082 25.4248C0.559707 25.2059 0.856387 25.0831 1.16592 25.0831H12.8325V11.0831H1.16578C0.856387 11.0833 0.55957 10.9604 0.340684 10.7415C0.121934 10.5227 -0.000976562 10.2259 -0.000976562 9.91639V6.41639C0.000527344 5.12836 1.04424 4.08451 2.3324 4.08301H24.9075C25.8271 4.08328 26.6605 4.62414 27.0353 5.46387L28.7979 9.44348C28.9577 9.80441 28.9242 10.2217 28.7089 10.5525C28.4935 10.8834 28.1256 11.083 27.7309 11.083H19.8325V25.083H34.9759C35.5552 25.083 36.0468 25.5079 36.1306 26.0811C36.1522 26.2179 36.164 26.3561 36.1659 26.4946V40.2499C36.1644 41.5379 35.1206 42.5818 33.8325 42.5833Z" fill="black"/>
<path d="M1.16578 35C0.85543 35.0029 0.556973 34.8809 0.337402 34.6616C0.234316 34.548 0.151328 34.4179 0.0918555 34.2765C0.0322461 34.1362 0.000664063 33.9857 -0.000976562 33.8333C0.00326172 33.5244 0.124121 33.2286 0.337402 33.0049C0.450742 32.9019 0.580762 32.8191 0.721992 32.7599C1.15648 32.5766 1.65879 32.6732 1.99416 33.0049C2.20717 33.2286 2.32789 33.5244 2.33254 33.8333C2.33062 33.9857 2.29891 34.1362 2.23916 34.2765C2.17969 34.4177 2.09684 34.5479 1.99416 34.6616C1.77459 34.8809 1.47613 35.0029 1.16578 35Z" fill="black"/>
<path d="M14.0001 11.0833V25.0833C14.0001 25.7249 13.666 26.2499 13.2577 26.2499H5.8335V9.9165H13.2577C13.666 9.9165 14.0001 10.4415 14.0001 11.0833Z" fill="#34A9F7"/>
<path d="M34.9764 26.2507H19.8331C19.1896 26.2488 18.6683 25.7276 18.6665 25.0841V11.0841C18.6684 10.4406 19.1896 9.91926 19.8331 9.91748H27.7431L34.8947 26.0292C34.9272 26.101 34.9544 26.175 34.9764 26.2507Z" fill="#34A9F7"/>
<path d="M10.5238 11.0833V25.0833C10.5238 25.7249 10.2842 26.2499 9.99137 26.2499H4.66699V9.9165H9.99123C10.2841 9.9165 10.5238 10.4415 10.5238 11.0833Z" fill="#55C9FC"/>
<path d="M31.5002 26.2507H19.8336C19.1901 26.2488 18.6688 25.7276 18.667 25.0841V11.0841C18.6689 10.4406 19.1901 9.91926 19.8336 9.91748H24.2552L31.4186 26.0292C31.4509 26.101 31.4782 26.175 31.5002 26.2507Z" fill="#55C9FC"/>
<path d="M12.8325 27.4165H1.16578C0.856387 27.4167 0.55957 27.2937 0.340684 27.0749C0.121934 26.8561 -0.000976449 26.5593 -0.000976449 26.2498V9.91651C-0.00111317 9.60712 0.121797 9.3103 0.340684 9.09142C0.559434 8.87267 0.85625 8.74976 1.16578 8.74976H12.8324C14.1204 8.75126 15.1643 9.79497 15.1658 11.0831V25.0831C15.1644 26.3713 14.1206 27.4151 12.8325 27.4165ZM2.33254 25.0833H12.8325V11.0867L2.33254 11.0833V25.0833Z" fill="black"/>
<path d="M34.9766 27.4165H19.8334C18.5454 27.415 17.5015 26.3713 17.5 25.0831V11.0831C17.5015 9.79511 18.5452 8.75126 19.8334 8.74976H27.7437C28.2049 8.75003 28.6229 9.02196 28.8101 9.4436L35.9615 25.5559C36.0058 25.6524 36.0434 25.7517 36.0743 25.8533C36.191 26.2137 36.1312 26.6078 35.9131 26.9174C35.6982 27.2235 35.3504 27.4087 34.9766 27.4165ZM19.8334 11.0833V25.0833H33.1948L26.9849 11.0833H19.8334Z" fill="black"/>
<path d="M35 27.4167H34.9766C34.3344 27.4103 33.8182 26.8862 33.8213 26.2439C33.8244 25.6016 34.346 25.0828 34.9882 25.0828C35.6304 25.0828 36.152 25.6016 36.1551 26.2439C36.1584 26.8862 35.6421 27.4103 35 27.4167Z" fill="black"/>
<path d="M8.16639 61.25C9.45508 61.25 10.4998 60.2053 10.4998 58.9166C10.4998 57.6279 9.45508 56.5833 8.16639 56.5833C6.8777 56.5833 5.83301 57.6279 5.83301 58.9166C5.83301 60.2053 6.8777 61.25 8.16639 61.25Z" fill="#FFA800"/>
<path d="M43.1664 61.25C44.4551 61.25 45.4998 60.2053 45.4998 58.9166C45.4998 57.6279 44.4551 56.5833 43.1664 56.5833C41.8777 56.5833 40.833 57.6279 40.833 58.9166C40.833 60.2053 41.8777 61.25 43.1664 61.25Z" fill="#FFA800"/>
<path d="M8.16699 62.4165C6.23406 62.4165 4.66699 60.8494 4.66699 58.9165C4.66699 56.9836 6.23406 55.4165 8.16699 55.4165C10.0999 55.4165 11.667 56.9836 11.667 58.9165C11.6649 60.8486 10.0991 62.4144 8.16699 62.4165ZM8.16699 57.7499C7.52264 57.7499 7.00037 58.2721 7.00037 58.9165C7.00037 59.5609 7.52278 60.0831 8.16699 60.0831C8.81121 60.0831 9.33362 59.5609 9.33362 58.9165C9.33307 58.2724 8.81108 57.7506 8.16699 57.7499Z" fill="black"/>
<path d="M43.167 62.4165C41.2341 62.4165 39.667 60.8494 39.667 58.9165C39.667 56.9836 41.2341 55.4165 43.167 55.4165C45.0999 55.4165 46.667 56.9836 46.667 58.9165C46.6649 60.8486 45.0991 62.4144 43.167 62.4165ZM43.167 57.7499C42.5226 57.7499 42.0004 58.2721 42.0004 58.9165C42.0004 59.5609 42.5228 60.0831 43.167 60.0831C43.8113 60.0831 44.3336 59.5609 44.3336 58.9165C44.3331 58.2724 43.8111 57.7506 43.167 57.7499Z" fill="black"/>
<path d="M30.3331 41.4165H18.6665V53.0831H30.3331V41.4165Z" fill="#FFA800"/>
<path d="M30.3334 54.2499H18.6668C18.3574 54.25 18.0605 54.1271 17.8417 53.9082C17.6229 53.6895 17.5 53.3927 17.5 53.0831V41.4165C17.4999 41.1071 17.6228 40.8103 17.8417 40.5914C18.0604 40.3727 18.3572 40.2498 18.6668 40.2498H30.3334C30.6428 40.2496 30.9396 40.3725 31.1585 40.5914C31.3772 40.8102 31.5001 41.107 31.5001 41.4165V53.0831C31.5003 53.3925 31.3774 53.6893 31.1585 53.9082C30.9396 54.1271 30.6428 54.25 30.3334 54.2499ZM19.8334 51.9165H29.1668V42.5831H19.8334V51.9165Z" fill="black"/>
<path d="M16.3333 30.9165C16.0239 30.9166 15.7271 30.7937 15.5082 30.5748C15.2893 30.356 15.1665 30.0593 15.1665 29.7497V28.5831C15.1665 27.9388 15.6889 27.4165 16.3331 27.4165C16.9775 27.4165 17.4997 27.9389 17.4997 28.5831V29.7497C17.4999 30.0591 17.377 30.356 17.1581 30.5748C16.9395 30.7937 16.6427 30.9166 16.3333 30.9165Z" fill="black"/>
<path d="M16.3333 36.75C16.0239 36.7502 15.7271 36.6272 15.5082 36.4084C15.2894 36.1896 15.1665 35.8928 15.1665 35.5833V34.4166C15.1665 33.7723 15.6889 33.25 16.3331 33.25C16.9775 33.25 17.4997 33.7724 17.4997 34.4166V35.5833C17.4999 35.8926 17.377 36.1895 17.1581 36.4084C16.9395 36.6272 16.6427 36.7502 16.3333 36.75Z" fill="black"/>
<path d="M16.3333 42.5833C16.0239 42.5834 15.7271 42.4605 15.5082 42.2416C15.2894 42.0228 15.1665 41.726 15.1665 41.4165V40.2499C15.1665 39.6055 15.6889 39.0833 16.3331 39.0833C16.9775 39.0833 17.4997 39.6057 17.4997 40.2499V41.4165C17.4999 41.7259 17.377 42.0227 17.1581 42.2416C16.9395 42.4603 16.6427 42.5833 16.3333 42.5833Z" fill="black"/>
<path d="M45.4998 42.5831H34.9998C34.6904 42.5833 34.3936 42.4604 34.1747 42.2415C33.9559 42.0227 33.833 41.7259 33.833 41.4164V32.083C33.8329 31.7736 33.9558 31.4768 34.1747 31.2579C34.3934 31.0392 34.6902 30.9163 34.9998 30.9163H36.1664C41.9627 30.9228 46.6598 35.6199 46.6664 41.4162C46.6665 41.7256 46.5436 42.0225 46.3247 42.2413C46.106 42.4602 45.8092 42.5831 45.4998 42.5831ZM36.1664 40.2498H44.2499C43.6647 36.2343 40.2242 33.255 36.1664 33.2498V40.2498Z" fill="black"/>
<path d="M68.8333 48.4165V60.0831C68.8335 61.3208 68.342 62.5081 67.4668 63.3834C66.5915 64.2586 65.4044 64.7502 64.1665 64.7499H53.6665L64.1665 48.4165H68.8333Z" fill="#FC7308"/>
<path d="M65.3333 48.4165V60.0831C65.3335 61.3208 64.842 62.5081 63.9668 63.3834C63.0915 64.2586 61.9044 64.7502 60.6665 64.7499H53.6665L64.1665 48.4165H65.3333Z" fill="#FFA800"/>
<path d="M64.1666 65.9168H53.6666C53.2396 65.9169 52.8467 65.6839 52.6421 65.3092C52.4376 64.9344 52.454 64.4779 52.6851 64.1189L63.1851 47.7855C63.3999 47.4517 63.7697 47.25 64.1666 47.25H68.8332C69.1426 47.2499 69.4394 47.3728 69.6583 47.5917C69.877 47.8104 69.9999 48.1072 69.9999 48.4168V60.0834C69.9961 63.3035 67.3867 65.9131 64.1666 65.9168ZM55.8034 63.5835H64.1666C66.0987 63.5815 67.6645 62.0156 67.6666 60.0835V49.5835H64.8034L55.8034 63.5835Z" fill="black"/>
<path d="M68.8337 49.5833H64.1671C63.8577 49.5835 63.5609 49.4606 63.342 49.2417C63.1232 49.0229 63.0003 48.7261 63.0003 48.4166V28.5834H53.9518L45.0299 37.494C44.5732 37.9468 43.8364 37.9449 43.3823 37.4896C42.9281 37.0345 42.9277 36.2976 43.3813 35.8419L52.6445 26.5905C52.8636 26.3725 53.1598 26.2501 53.4688 26.2498H64.1671C64.4765 26.2497 64.7733 26.3726 64.9922 26.5915C65.2109 26.8103 65.3338 27.1071 65.3338 27.4166V47.25H67.6672V23.9166H52.0155L41.7405 34.2036C41.2842 34.655 40.549 34.6533 40.095 34.1995C39.6409 33.7457 39.6386 33.0104 40.0898 32.5539L50.7066 21.9253C50.9254 21.7064 51.2224 21.5834 51.5321 21.5835H68.8338C69.1432 21.5834 69.44 21.7063 69.6589 21.9252C69.8777 22.1439 70.0006 22.4407 70.0006 22.7503V48.4169C70.0007 48.7263 69.8778 49.0231 69.6589 49.242C69.4399 49.4604 69.1431 49.5833 68.8337 49.5833Z" fill="black"/>
<path d="M64.1664 28.5834C63.6946 28.5832 63.2693 28.299 63.0888 27.8631C62.9083 27.4273 63.008 26.9255 63.3416 26.5919L68.0082 21.9253C68.465 21.4767 69.1978 21.4801 69.6505 21.9327C70.1032 22.3854 70.1064 23.1182 69.6579 23.575L64.9912 28.2416C64.7728 28.4606 64.476 28.5836 64.1664 28.5834Z" fill="black"/>
<path d="M53.6676 28.5833C53.2249 28.5834 52.82 28.3334 52.6222 27.9373L50.3588 23.3993C50.0762 22.8235 50.3115 22.1274 50.8856 21.8411C51.4597 21.5548 52.1572 21.7858 52.4472 22.3581L54.7106 26.896C54.8487 27.1729 54.8711 27.4932 54.7729 27.7866C54.6748 28.08 54.464 28.3223 54.1871 28.4604C54.0259 28.5414 53.848 28.5836 53.6676 28.5833Z" fill="black"/>
<path d="M30.3332 46.0832H18.6666C18.0223 46.0832 17.5 45.561 17.5 44.9166C17.5 44.2723 18.0224 43.75 18.6666 43.75H30.3332C30.9776 43.75 31.4999 44.2723 31.4999 44.9166C31.4999 45.561 30.9775 46.0832 30.3332 46.0832Z" fill="black"/>
<path d="M30.3332 50.75H18.6666C18.0223 50.75 17.5 50.2277 17.5 49.5834C17.5 48.939 18.0224 48.4167 18.6666 48.4167H30.3332C30.9776 48.4167 31.4999 48.939 31.4999 49.5834C31.4999 50.2277 30.9775 50.75 30.3332 50.75Z" fill="black"/>
<path d="M5.83342 16.9166C5.3616 16.9165 4.93627 16.6322 4.7558 16.1964C4.57533 15.7605 4.675 15.2588 5.00859 14.9252L6.17521 13.7586C6.63199 13.31 7.3648 13.3134 7.81748 13.7659C8.27016 14.2185 8.27344 14.9514 7.82486 15.4082L6.65824 16.5748C6.43976 16.794 6.14281 16.917 5.83342 16.9166Z" fill="black"/>
<path d="M5.83341 22.75C5.3616 22.7499 4.93627 22.4656 4.7558 22.0298C4.57533 21.5939 4.675 21.0921 5.00859 20.7586L8.50859 17.2586C8.96537 16.81 9.69818 16.8134 10.1509 17.2659C10.6035 17.7186 10.6068 18.4514 10.1582 18.9082L6.65824 22.4082C6.43976 22.6274 6.14281 22.7504 5.83341 22.75Z" fill="black"/>
</g>
<defs>
<clipPath id="clip0">
<rect width="70" height="70" fill="white"/>
</clipPath>
</defs>
</svg>
