<svg width="12" height="12" viewBox="0 0 12 12" fill="none" xmlns="http://www.w3.org/2000/svg">
<g clip-path="url(#clip0)">
<path d="M10.7661 1.41113H1.80781C1.28173 1.41113 0.852539 1.87284 0.852539 2.43989V9.29824C0.852539 9.86336 1.27982 10.327 1.80781 10.327H10.7661C11.2909 10.327 11.7214 9.86684 11.7214 9.29824V2.43989C11.7214 1.87476 11.2941 1.41113 10.7661 1.41113ZM10.6342 2.09697L6.30722 6.75683L1.9428 2.09697H10.6342ZM1.48939 9.15622V2.57863L4.55642 5.85326L1.48939 9.15622ZM1.9397 9.64115L5.00867 6.33611L6.08402 7.48425C6.20851 7.61716 6.40939 7.61673 6.53336 7.4832L7.58189 6.35401L10.6342 9.64115H1.9397ZM11.0845 9.1562L8.0322 5.86906L11.0845 2.5819V9.1562Z" fill="white"/>
</g>
<defs>
<clipPath id="clip0">
<rect x="0.852539" y="0.0166016" width="10.8689" height="11.7049" fill="white"/>
</clipPath>
</defs>
</svg>
