<svg width="70" height="70" viewBox="0 0 70 70" fill="none" xmlns="http://www.w3.org/2000/svg">
<g clip-path="url(#clip0)">
<path d="M64.1665 22.75H51.5315L40.9149 33.3784L44.2049 36.6684L53.4683 27.4166H64.1665V22.75Z" fill="#FEDD0A"/>
<path d="M64.1667 27.4166V48.4166H68.8334V22.75H64.1667V27.4166Z" fill="#FFA800"/>
<path d="M10.5001 53.083H45.5001C48.0773 53.083 50.1667 55.1723 50.1667 57.7496V60.083C50.1667 62.6603 48.0773 64.7496 45.5001 64.7496H10.5001C7.92277 64.7496 5.83344 62.6603 5.83344 60.083V57.7496C5.83344 55.1723 7.92277 53.083 10.5001 53.083Z" fill="#FFA800"/>
<path d="M5.83325 53.083H40.8332C43.4105 53.083 45.4999 55.1723 45.4999 57.7496V60.083C45.4999 62.6603 43.4105 64.7496 40.8332 64.7496H5.83325C3.25596 64.7496 1.16663 62.6603 1.16663 60.083V57.7496C1.16649 55.1723 3.25583 53.083 5.83325 53.083Z" fill="white"/>
<path d="M9.33361 53.083H42.0002C44.5775 53.083 46.6669 55.1723 46.6669 57.7496V60.083C46.6669 62.6603 44.5775 64.7496 42.0002 64.7496H9.33361C6.75633 64.7496 4.66699 62.6603 4.66699 60.083V57.7496C4.66686 55.1723 6.75619 53.083 9.33361 53.083Z" fill="#FEDD0A"/>
<path d="M45.5 65.916H5.83338C2.61324 65.9123 0.00382813 63.3028 0 60.0828V57.7494C0.00382813 54.5293 2.61324 51.9198 5.83338 51.916H45.5C48.7201 51.9198 51.3296 54.5293 51.3334 57.7494V60.0828C51.3296 63.3028 48.7201 65.9123 45.5 65.916ZM5.83338 54.2494C3.90127 54.2514 2.33543 55.8173 2.33338 57.7494V60.0828C2.33543 62.0149 3.90127 63.5807 5.83338 63.5828H45.5C47.4321 63.5807 48.9979 62.0149 49 60.0828V57.7494C48.9979 55.8173 47.4321 54.2514 45.5 54.2494H5.83338Z" fill="black"/>
<path d="M45.5 41.416H11.6666V53.0826H45.5V41.416Z" fill="#FFA800"/>
<path d="M40.8333 41.416H6.99988V53.0826H40.8333V41.416Z" fill="white"/>
<path d="M45.5 41.4164H35V32.083H36.1666C38.6422 32.0823 41.0166 33.0655 42.767 34.8159C44.5175 36.5666 45.5007 38.9408 45.5 41.4164Z" fill="#FFA800"/>
<path d="M42.0002 41.417H10.5002V53.0836H42.0002V41.417Z" fill="#FEDD0A"/>
<path d="M42 41.4166H35V32.375C39.1211 33.4415 41.9997 37.1598 42 41.4166Z" fill="#FEDD0A"/>
<path d="M45.5 54.2501H7.00001C6.69062 54.2503 6.3938 54.1274 6.17491 53.9085C5.95616 53.6897 5.83325 53.3929 5.83325 53.0834V41.4168C5.83312 41.1074 5.95603 40.8106 6.17491 40.5917C6.3938 40.3728 6.69048 40.25 7.00001 40.25H45.5C45.8094 40.2499 46.1062 40.3728 46.3251 40.5917C46.5439 40.8104 46.6668 41.1072 46.6668 41.4168V53.0834C46.6669 53.3928 46.544 53.6896 46.3251 53.9085C46.1062 54.1274 45.8094 54.2503 45.5 54.2501ZM8.16663 51.9168H44.3333V42.5834H8.16663V51.9168Z" fill="black"/>
<path d="M33.8332 41.4166H4.66644C2.73351 41.4166 1.16644 39.8496 1.16644 37.9166V26.2499L1.16658 6.41662C1.16658 5.77227 1.68898 5.25 2.3332 5.25H24.9083C25.3694 5.25 25.7872 5.52152 25.9745 5.94289L34.8993 26.0237C34.9657 26.1729 34.9998 26.3344 34.9998 26.4976V40.25C34.9998 40.8944 34.4776 41.4166 33.8332 41.4166Z" fill="#FFA800"/>
<path d="M7.80508 41.4166H4.30508C2.47305 41.3145 1.06935 39.7489 1.1667 37.9166V6.41662C1.13594 5.80494 1.60516 5.2835 2.2167 5.25H5.7167C5.10516 5.2835 4.63594 5.80508 4.6667 6.41662V37.9166C4.56935 39.7489 5.97305 41.3145 7.80508 41.4166Z" fill="white"/>
<path d="M31.5 26.495V40.25C31.5307 40.8617 31.0615 41.3831 30.45 41.4166H7.80496C5.97292 41.3145 4.56923 39.7489 4.66658 37.9166V6.41662C4.63581 5.80494 5.10503 5.2835 5.71658 5.25H22.4466C22.8778 5.25779 23.259 5.53205 23.4032 5.93838L31.4066 26.0285C31.4677 26.1764 31.4994 26.3349 31.5 26.495Z" fill="#FEDD0A"/>
<path d="M33.8325 42.5833H4.66578C2.38723 42.5907 0.438848 40.9458 0.0641016 38.6981C-0.00507813 38.287 0.150234 37.8702 0.471797 37.6048C0.793359 37.3394 1.23195 37.2655 1.62256 37.4111C2.01316 37.5567 2.29645 37.8997 2.36562 38.3108C2.55361 39.4336 3.5276 40.2547 4.66592 40.2499H33.8325V27.4165H19.8325C18.5445 27.415 17.5007 26.3713 17.4992 25.0831V11.0831C17.5007 9.79512 18.5444 8.75127 19.8325 8.74977H25.9381L24.9019 6.41078L2.33254 6.41652V8.7499H12.8325C14.1206 8.75141 15.1644 9.79512 15.1659 11.0833V25.0833C15.1644 26.3713 14.1207 27.4152 12.8325 27.4167H2.33254V29.1667C2.33254 29.811 1.81014 30.3333 1.16592 30.3333C0.521699 30.3333 -0.000839844 29.8109 -0.000839844 29.1665V26.2499C-0.000976562 25.9405 0.121934 25.6437 0.34082 25.4248C0.559707 25.2059 0.856387 25.0831 1.16592 25.0831H12.8325V11.0831H1.16578C0.856387 11.0833 0.55957 10.9604 0.340684 10.7415C0.121934 10.5227 -0.000976562 10.2259 -0.000976562 9.91639V6.41639C0.000527344 5.12836 1.04424 4.08451 2.3324 4.08301H24.9075C25.8271 4.08328 26.6605 4.62414 27.0353 5.46387L28.7979 9.44348C28.9577 9.80441 28.9242 10.2217 28.7089 10.5525C28.4935 10.8834 28.1256 11.083 27.7309 11.083H19.8325V25.083H34.9759C35.5552 25.083 36.0468 25.5079 36.1306 26.0811C36.1522 26.2179 36.164 26.3561 36.1659 26.4946V40.2499C36.1644 41.5379 35.1206 42.5818 33.8325 42.5833Z" fill="black"/>
<path d="M1.16578 34.9998C0.85543 35.0027 0.556973 34.8807 0.337402 34.6614C0.234316 34.5478 0.151328 34.4176 0.0918555 34.2763C0.0322461 34.136 0.000664063 33.9855 -0.000976562 33.833C0.00326172 33.5242 0.124121 33.2283 0.337402 33.0046C0.450742 32.9017 0.580762 32.8188 0.721992 32.7596C1.15648 32.5763 1.65879 32.673 1.99416 33.0046C2.20717 33.2283 2.32789 33.5242 2.33254 33.833C2.33062 33.9855 2.29891 34.136 2.23916 34.2763C2.17969 34.4175 2.09684 34.5477 1.99416 34.6614C1.77459 34.8807 1.47613 35.0027 1.16578 34.9998Z" fill="black"/>
<path d="M14.0001 11.0838V25.0837C14.0001 25.7254 13.6659 26.2504 13.2577 26.2504H5.83344V9.91699H13.2577C13.6659 9.91699 14.0001 10.442 14.0001 11.0838Z" fill="#34A9F7"/>
<path d="M34.9765 26.2512H19.8332C19.1897 26.2493 18.6684 25.7281 18.6666 25.0846V11.0846C18.6685 10.4411 19.1897 9.91975 19.8332 9.91797H27.7432L34.8949 26.0297C34.9273 26.1015 34.9545 26.1755 34.9765 26.2512Z" fill="#34A9F7"/>
<path d="M10.5236 11.0838V25.0837C10.5236 25.7254 10.284 26.2504 9.99119 26.2504H4.66681V9.91699H9.99105C10.2839 9.91699 10.5236 10.442 10.5236 11.0838Z" fill="#55C9FC"/>
<path d="M31.5003 26.2512H19.8337C19.1901 26.2493 18.6688 25.7281 18.6671 25.0846V11.0846C18.669 10.4411 19.1901 9.91975 19.8337 9.91797H24.2553L31.4187 26.0297C31.4509 26.1015 31.4783 26.1755 31.5003 26.2512Z" fill="#55C9FC"/>
<path d="M12.8325 27.4168H1.16578C0.856387 27.4169 0.55957 27.294 0.340684 27.0751C0.121934 26.8563 -0.000976449 26.5595 -0.000976449 26.25V9.91676C-0.00111317 9.60736 0.121797 9.31055 0.340684 9.09166C0.559434 8.87291 0.85625 8.75 1.16578 8.75H12.8324C14.1204 8.7515 15.1643 9.79522 15.1658 11.0834V25.0834C15.1644 26.3715 14.1206 27.4154 12.8325 27.4168ZM2.33254 25.0835H12.8325V11.0869L2.33254 11.0835V25.0835Z" fill="black"/>
<path d="M34.9766 27.4168H19.8334C18.5454 27.4153 17.5015 26.3715 17.5 25.0834V11.0834C17.5015 9.79535 18.5452 8.7515 19.8334 8.75H27.7437C28.2049 8.75027 28.6229 9.02221 28.8101 9.44385L35.9615 25.5562C36.0058 25.6527 36.0434 25.7519 36.0743 25.8535C36.191 26.2139 36.1312 26.6081 35.9131 26.9176C35.6982 27.2237 35.3504 27.409 34.9766 27.4168ZM19.8334 11.0835V25.0835H33.1948L26.9849 11.0835H19.8334Z" fill="black"/>
<path d="M35 27.4169H34.9766C34.3345 27.4105 33.8182 26.8865 33.8214 26.2442C33.8245 25.6019 34.3461 25.083 34.9883 25.083C35.6304 25.083 36.152 25.6019 36.1552 26.2442C36.1584 26.8865 35.6422 27.4105 35 27.4169Z" fill="black"/>
<path d="M8.16663 61.2498C9.45532 61.2498 10.5 60.2051 10.5 58.9164C10.5 57.6277 9.45532 56.583 8.16663 56.583C6.87794 56.583 5.83325 57.6277 5.83325 58.9164C5.83325 60.2051 6.87794 61.2498 8.16663 61.2498Z" fill="#FFA800"/>
<path d="M43.1666 61.2498C44.4553 61.2498 45.5 60.2051 45.5 58.9164C45.5 57.6277 44.4553 56.583 43.1666 56.583C41.8779 56.583 40.8333 57.6277 40.8333 58.9164C40.8333 60.2051 41.8779 61.2498 43.1666 61.2498Z" fill="#FFA800"/>
<path d="M8.16681 62.417C6.23388 62.417 4.66681 60.8499 4.66681 58.917C4.66681 56.9841 6.23388 55.417 8.16681 55.417C10.0997 55.417 11.6668 56.9841 11.6668 58.917C11.6648 60.8491 10.0989 62.4149 8.16681 62.417ZM8.16681 57.7504C7.52246 57.7504 7.00019 58.2726 7.00019 58.917C7.00019 59.5613 7.52259 60.0836 8.16681 60.0836C8.81103 60.0836 9.33343 59.5613 9.33343 58.917C9.33289 58.2729 8.81089 57.7511 8.16681 57.7504Z" fill="black"/>
<path d="M43.1668 62.417C41.2339 62.417 39.6668 60.8499 39.6668 58.917C39.6668 56.9841 41.2339 55.417 43.1668 55.417C45.0997 55.417 46.6668 56.9841 46.6668 58.917C46.6648 60.8491 45.0989 62.4149 43.1668 62.417ZM43.1668 57.7504C42.5225 57.7504 42.0002 58.2726 42.0002 58.917C42.0002 59.5613 42.5226 60.0836 43.1668 60.0836C43.8112 60.0836 44.3334 59.5613 44.3334 58.917C44.3329 58.2729 43.8109 57.7511 43.1668 57.7504Z" fill="black"/>
<path d="M30.3331 41.416H18.6665V53.0826H30.3331V41.416Z" fill="#FFA800"/>
<path d="M30.3334 54.2501H18.6668C18.3574 54.2503 18.0606 54.1274 17.8417 53.9085C17.623 53.6897 17.5001 53.3929 17.5001 53.0834V41.4168C17.4999 41.1074 17.6228 40.8106 17.8417 40.5917C18.0605 40.3729 18.3573 40.25 18.6668 40.25H30.3334C30.6428 40.2499 30.9396 40.3728 31.1585 40.5917C31.3773 40.8104 31.5002 41.1072 31.5002 41.4168V53.0834C31.5003 53.3928 31.3774 53.6896 31.1585 53.9085C30.9396 54.1274 30.6428 54.2503 30.3334 54.2501ZM19.8334 51.9168H29.1668V42.5834H19.8334V51.9168Z" fill="black"/>
<path d="M16.3333 30.917C16.0239 30.9171 15.7271 30.7942 15.5082 30.5753C15.2893 30.3564 15.1666 30.0598 15.1666 29.7502V28.5836C15.1666 27.9393 15.689 27.417 16.3332 27.417C16.9775 27.417 17.4998 27.9394 17.4998 28.5836V29.7502C17.4999 30.0596 17.377 30.3564 17.1581 30.5753C16.9395 30.7942 16.6427 30.9171 16.3333 30.917Z" fill="black"/>
<path d="M16.3333 36.75C16.0239 36.7502 15.7271 36.6272 15.5082 36.4084C15.2895 36.1896 15.1666 35.8928 15.1666 35.5833V34.4166C15.1666 33.7723 15.689 33.25 16.3332 33.25C16.9775 33.25 17.4998 33.7724 17.4998 34.4166V35.5833C17.4999 35.8926 17.377 36.1895 17.1581 36.4084C16.9395 36.6272 16.6427 36.7502 16.3333 36.75Z" fill="black"/>
<path d="M16.3333 42.584C16.0239 42.5841 15.7271 42.4612 15.5082 42.2423C15.2895 42.0236 15.1666 41.7268 15.1666 41.4172V40.2506C15.1666 39.6062 15.689 39.084 16.3332 39.084C16.9775 39.084 17.4998 39.6064 17.4998 40.2506V41.4172C17.4999 41.7266 17.377 42.0234 17.1581 42.2423C16.9395 42.4611 16.6427 42.584 16.3333 42.584Z" fill="black"/>
<path d="M45.4998 42.5839H34.9998C34.6904 42.584 34.3936 42.4611 34.1747 42.2422C33.9559 42.0235 33.833 41.7266 33.833 41.4171V32.0837C33.8329 31.7744 33.9558 31.4775 34.1747 31.2587C34.3934 31.0399 34.6902 30.917 34.9998 30.917H36.1664C41.9627 30.9236 46.6598 35.6207 46.6664 41.417C46.6665 41.7264 46.5436 42.0232 46.3247 42.2421C46.106 42.461 45.8092 42.5839 45.4998 42.5839ZM36.1664 40.2505H44.2499C43.6647 36.2351 40.2242 33.2557 36.1664 33.2505V40.2505Z" fill="black"/>
<path d="M68.8332 48.416V60.0826C68.8335 61.3203 68.342 62.5076 67.4667 63.3829C66.5914 64.2582 65.4043 64.7497 64.1664 64.7494H53.6664L64.1664 48.416H68.8332Z" fill="#FC7308"/>
<path d="M65.3332 48.416V60.0826C65.3335 61.3203 64.842 62.5076 63.9667 63.3829C63.0914 64.2582 61.9043 64.7497 60.6664 64.7494H53.6664L64.1664 48.416H65.3332Z" fill="#FFA800"/>
<path d="M64.1668 65.9158H53.6668C53.2398 65.9159 52.8469 65.6829 52.6423 65.3082C52.4378 64.9335 52.4542 64.477 52.6853 64.1179L63.1853 47.7845C63.4 47.4507 63.7699 47.249 64.1668 47.249H68.8334C69.1428 47.2489 69.4396 47.3718 69.6585 47.5907C69.8772 47.8094 70.0001 48.1062 70.0001 48.4158V60.0824C69.9963 63.3025 67.3869 65.9121 64.1668 65.9158ZM55.8035 63.5825H64.1668C66.0989 63.5805 67.6647 62.0146 67.6668 60.0825V49.5825H64.8036L55.8035 63.5825Z" fill="black"/>
<path d="M68.8337 49.5829H64.1671C63.8577 49.583 63.5609 49.4601 63.342 49.2412C63.1233 49.0225 63.0004 48.7256 63.0004 48.4161V28.5829H53.9519L45.0299 37.4935C44.5733 37.9463 43.8365 37.9444 43.3823 37.4891C42.9281 37.034 42.9277 36.2971 43.3814 35.8414L52.6446 26.5901C52.8636 26.372 53.1599 26.2496 53.4689 26.2494H64.1671C64.4765 26.2492 64.7733 26.3721 64.9922 26.591C65.211 26.8098 65.3339 27.1066 65.3339 27.4161V47.2495H67.6673V23.9161H52.0156L41.7406 34.2031C41.2842 34.6545 40.5491 34.6528 40.095 34.199C39.641 33.7452 39.6387 33.01 40.0899 32.5535L50.7066 21.9248C50.9255 21.7059 51.2225 21.5829 51.5321 21.583H68.8339C69.1433 21.5829 69.4401 21.7058 69.659 21.9247C69.8777 22.1434 70.0006 22.4402 70.0006 22.7498V48.4164C70.0008 48.7258 69.8779 49.0226 69.659 49.2415C69.44 49.46 69.1431 49.5829 68.8337 49.5829Z" fill="black"/>
<path d="M64.1669 28.5831C63.695 28.583 63.2697 28.2987 63.0892 27.8629C62.9088 27.427 63.0084 26.9253 63.342 26.5917L68.0086 21.9251C68.4654 21.4765 69.1982 21.4799 69.6509 21.9324C70.1036 22.3851 70.1069 23.1179 69.6583 23.5747L64.9917 28.2413C64.7732 28.4604 64.4764 28.5834 64.1669 28.5831Z" fill="black"/>
<path d="M53.668 28.5828C53.2253 28.5829 52.8205 28.3329 52.6226 27.9368L50.3593 23.3988C50.0767 22.823 50.312 22.1269 50.886 21.8406C51.4601 21.5544 52.1577 21.7853 52.4476 22.3576L54.711 26.8955C54.8491 27.1724 54.8715 27.4927 54.7734 27.7861C54.6752 28.0795 54.4644 28.3218 54.1875 28.4599C54.0263 28.541 53.8485 28.5831 53.668 28.5828Z" fill="black"/>
<path d="M30.3334 46.0832H18.6668C18.0224 46.0832 17.5002 45.561 17.5002 44.9166C17.5002 44.2723 18.0226 43.75 18.6668 43.75H30.3334C30.9778 43.75 31.5 44.2723 31.5 44.9166C31.5 45.561 30.9776 46.0832 30.3334 46.0832Z" fill="black"/>
<path d="M30.3334 50.7493H18.6668C18.0224 50.7493 17.5002 50.227 17.5002 49.5826C17.5002 48.9383 18.0226 48.416 18.6668 48.416H30.3334C30.9778 48.416 31.5 48.9383 31.5 49.5826C31.5 50.227 30.9776 50.7493 30.3334 50.7493Z" fill="black"/>
<path d="M5.8336 16.9161C5.36178 16.916 4.93645 16.6318 4.75598 16.1959C4.57551 15.76 4.67518 15.2583 5.00877 14.9247L6.1754 13.7581C6.63217 13.3095 7.36499 13.3129 7.81766 13.7654C8.27034 14.218 8.27362 14.9509 7.82505 15.4077L6.65842 16.5743C6.43995 16.7935 6.14299 16.9165 5.8336 16.9161Z" fill="black"/>
<path d="M5.8336 22.7495C5.36178 22.7494 4.93645 22.4651 4.75598 22.0293C4.57551 21.5934 4.67518 21.0917 5.00877 20.7581L8.50877 17.2581C8.96555 16.8095 9.69836 16.8129 10.151 17.2654C10.6037 17.7181 10.607 18.4509 10.1584 18.9077L6.65842 22.4077C6.43995 22.6269 6.14299 22.7499 5.8336 22.7495Z" fill="black"/>
</g>
<defs>
<clipPath id="clip0">
<rect width="70" height="70" fill="white"/>
</clipPath>
</defs>
</svg>
