<svg width="70" height="70" viewBox="0 0 70 70" fill="none" xmlns="http://www.w3.org/2000/svg">
<path d="M40.833 50.1665C40.2496 50.1665 39.783 49.6998 39.6664 49.1165C39.5498 47.7165 39.5498 46.5497 39.6664 45.2665V39.6665C39.6664 39.0831 40.0164 38.6165 40.5997 38.4999C41.1831 38.3832 41.6497 38.6165 41.8831 39.1998C42.8165 41.4166 42.5831 42.6998 42.2331 44.2165C42.1165 44.5665 42.1165 45.0331 41.9997 45.4999V48.9999C41.9997 49.5831 41.5331 50.1665 40.833 50.1665Z" fill="#FFE100"/>
<path d="M38.4997 50.1674C38.1497 50.1674 37.7997 49.934 37.5664 49.7007C36.0498 47.7174 36.1664 46.084 36.1664 44.684C36.283 43.2841 36.283 42.1173 35.233 40.3674C34.883 39.784 34.9996 39.084 35.583 38.734C36.1664 38.384 36.8664 38.5006 37.2164 39.084C38.733 41.4173 38.6163 43.2839 38.6163 44.684C38.6163 45.9674 38.4997 47.0174 39.5497 48.3008C39.6663 48.5341 39.7831 48.7674 39.7831 49.0007C39.6663 49.7007 39.1997 50.1674 38.4997 50.1674Z" fill="#FFE100"/>
<path d="M43.1665 50.1674C42.4666 50.1674 41.9999 49.7008 41.9999 49.0008C41.9999 47.4842 42.6999 46.5509 43.5165 45.5009C44.4499 44.2175 45.4999 42.8175 45.4999 39.6676C45.4999 38.9676 45.9665 38.501 46.6665 38.501C47.3665 38.501 47.8331 38.9676 47.8331 39.6676C47.8331 43.7509 46.4331 45.6176 45.3831 47.0176C44.6831 47.8342 44.3331 48.301 44.3331 49.001C44.3331 49.701 43.8665 50.1674 43.1665 50.1674Z" fill="#FFE100"/>
<path d="M41.9996 35C41.533 35 41.0662 34.7666 40.9496 34.3C40.0163 32.0833 40.2496 30.8001 40.5996 29.2833C40.833 28.1167 41.0662 26.8334 40.833 24.6166C40.7164 24.0333 41.183 23.45 41.883 23.3333C42.4664 23.2167 43.0496 23.6833 43.1664 24.3833C43.5163 26.95 43.1664 28.4666 42.933 29.75C42.6996 31.0333 42.4664 31.8499 43.1664 33.3667C43.3997 33.95 43.1663 34.65 42.583 34.8833C42.3496 35 42.1162 35 41.9996 35Z" fill="#FFE100"/>
<path d="M46.6666 35.0007C46.3166 35.0007 45.85 34.7673 45.7332 34.4173C44.2166 32.084 44.3332 30.2174 44.3332 28.8173C44.3332 27.5339 44.4499 26.4839 43.3999 25.2006C43.2833 25.084 43.1665 24.734 43.1665 24.5006C43.1665 23.8006 43.6331 23.334 44.3331 23.334C44.6831 23.334 45.0331 23.5674 45.2665 23.8006C46.7831 25.6673 46.6665 27.4173 46.6665 28.8173C46.5498 30.2173 46.5498 31.384 47.5998 33.134C47.9498 33.7174 47.8332 34.4173 47.2498 34.7673C47.1332 35.0007 46.8998 35.0007 46.6666 35.0007Z" fill="#FFE100"/>
<path d="M36.1665 35.0006C35.4665 35.0006 34.9999 34.534 34.9999 33.834C34.9999 29.7507 36.3999 27.8839 37.4499 26.4839C38.1499 25.6673 38.4999 25.2006 38.4999 24.5006C38.4999 23.8006 38.9665 23.334 39.6665 23.334C40.3665 23.334 40.8331 23.8006 40.8331 24.5006C40.8331 26.0172 40.1331 26.9506 39.3165 28.0005C38.3831 29.1671 37.3331 30.5673 37.3331 33.8338C37.3331 34.534 36.8665 35.0006 36.1665 35.0006Z" fill="#FFE100"/>
<path d="M55.9996 1.16699H51.3329C44.2163 1.16699 38.4996 7.00029 38.4996 14.0003V24.5003H43.1663V14.0003C43.1663 9.4504 46.783 5.83369 51.3329 5.83369H55.9996C60.5495 5.83369 64.1663 9.4504 64.1663 14.0003V68.8336H68.833V14.0003C68.833 7.00043 63.1163 1.16699 55.9996 1.16699Z" fill="#FFE100"/>
<path d="M37.3332 49V56C37.3332 60.55 33.7165 64.1667 29.1665 64.1667H25.6666C21.1167 64.1667 17.4999 60.55 17.4999 56V54.8334H12.8333V56C12.8333 63.1167 18.5499 68.8334 25.6666 68.8334H29.1665C36.2832 68.8334 41.9999 63.1167 41.9999 56V49H37.3332Z" fill="#FFE100"/>
<path d="M2.33331 12.833H5.83326C5.13327 12.833 4.66666 13.2996 4.66666 13.9996V37.3329L7 40.8329V44.3328C7 45.0328 7.46662 45.4995 8.16661 45.4995H4.66666C3.96667 45.4995 3.50005 45.0328 3.50005 44.3328V40.8329L1.16656 37.3329V13.9996C1.16656 13.4164 1.63332 12.833 2.33331 12.833Z" fill="white"/>
<path d="M39.6665 50.1668C39.0831 50.1668 38.6165 49.7001 38.4999 49.1168C38.1499 46.55 38.4999 45.0334 38.7332 43.7501C38.9666 42.4667 39.1999 41.6501 38.4999 40.1334C38.2665 39.55 38.4999 38.85 39.0832 38.6168C39.6666 38.3834 40.3666 38.6168 40.5998 39.2001C41.5332 41.4169 41.2998 42.7001 40.9498 44.2168C40.7165 45.3834 40.4832 46.6668 40.7165 48.8835C40.8331 49.4668 40.3665 50.0501 39.6665 50.1668C39.7831 50.1668 39.6665 50.1668 39.6665 50.1668Z" fill="black"/>
<path d="M37.3334 50.1664C36.9834 50.1664 36.6334 49.933 36.4 49.6998C34.8834 47.8332 35.0001 46.0831 35.0001 44.6831C35.1167 43.2831 35.1167 42.1164 34.0667 40.3664C33.7167 39.783 33.8333 39.083 34.4167 38.733C35.0001 38.383 35.7001 38.4996 36.05 39.083C37.5666 41.4164 37.45 43.283 37.45 44.6831C37.45 45.9664 37.3334 47.0164 38.3834 48.2998C38.5 48.5332 38.6168 48.7664 38.6168 48.9998C38.5002 49.6998 38.0334 50.1664 37.3334 50.1664Z" fill="black"/>
<path d="M42 50.1665C41.3 50.1665 40.8334 49.6998 40.8334 48.9999C40.8334 47.4833 41.5334 46.5499 42.35 45.4999C43.2833 44.2165 44.3333 42.8166 44.3333 39.6666C44.3333 38.9666 44.7999 38.5 45.4999 38.5C46.1999 38.5 46.6665 38.9666 46.6665 39.6666C46.6665 43.7499 45.2666 45.6167 44.2166 47.0166C43.5166 47.8332 43.1666 48.3 43.1666 49C43.1666 49.7 42.7 50.1665 42 50.1665Z" fill="black"/>
<path d="M40.8333 35C40.3667 35 39.9 34.7666 39.7834 34.3C38.85 32.0833 39.0834 30.8001 39.4334 29.2833C39.6667 28.1167 39.9 26.8334 39.6667 24.6166C39.5501 24.0333 40.0167 23.45 40.7167 23.3333C41.4167 23.2167 41.8833 23.6833 42.0001 24.3833C42.3501 26.95 42.0001 28.4666 41.7667 29.75C41.5333 31.0333 41.3001 31.8499 42.0001 33.3667C42.2335 33.95 42.0001 34.65 41.4167 34.8833C41.1835 35 40.9501 35 40.8333 35Z" fill="black"/>
<path d="M45.4998 34.9997C45.1498 34.9997 44.6832 34.7664 44.5665 34.4164C43.0499 32.083 43.1665 30.2164 43.1665 28.8163C43.1665 27.533 43.2831 26.483 42.2331 25.1996C42.1165 25.083 41.9998 24.733 41.9998 24.4996C41.9998 23.7996 42.4664 23.333 43.1664 23.333C43.5164 23.333 43.8663 23.5664 44.0997 23.7996C45.6163 25.6664 45.4997 27.4163 45.4997 28.8163C45.3831 30.2163 45.3831 31.383 46.4331 33.133C46.7831 33.7164 46.6665 34.4164 46.0831 34.7664C45.9666 34.9997 45.7332 34.9997 45.4998 34.9997Z" fill="black"/>
<path d="M34.9998 34.9996C34.2998 34.9996 33.8332 34.533 33.8332 33.833C33.8332 29.7497 35.2332 27.8829 36.2832 26.483C36.9831 25.6664 37.3331 25.1996 37.3331 24.4996C37.3331 23.7996 37.7998 23.333 38.4997 23.333C39.1997 23.333 39.6664 23.7996 39.6664 24.4996C39.6664 26.0162 38.9664 26.9496 38.1498 27.9996C37.2164 29.1662 36.1664 30.5663 36.1664 33.8329C36.1665 34.533 35.6998 34.9996 34.9998 34.9996Z" fill="black"/>
<path d="M68.8334 70H64.1667C63.4667 70 63.0001 69.5334 63.0001 68.8334V13.9999C63.0001 10.15 59.8502 6.9999 56.0001 6.9999H51.3334C47.4834 6.9999 44.3333 10.1499 44.3333 13.9999V24.4999C44.3333 25.1999 43.8667 25.6665 43.1667 25.6665H38.5C37.8 25.6665 37.3334 25.1999 37.3334 24.4999V13.9999C37.3334 6.30005 43.6335 0 51.3334 0H56.0001C63.7001 0 70 6.30005 70 13.9999V68.8333C70.0002 69.5332 69.5334 70 68.8334 70ZM65.3335 67.6667H67.6668V13.9999C67.6668 7.58327 62.4169 2.33335 56.0002 2.33335H51.3335C44.9169 2.33335 39.6669 7.58327 39.6669 13.9999V23.3333H42.0003V13.9999C42.0003 8.86664 46.2002 4.66656 51.3337 4.66656H56.0004C61.1337 4.66656 65.3337 8.8665 65.3337 13.9999V67.6667H65.3335Z" fill="black"/>
<path d="M29.1666 69.9996H25.6666C17.9666 69.9996 11.6667 63.6995 11.6667 55.9996V54.833C11.6667 54.1331 12.1333 53.6664 12.8333 53.6664H17.5C18.2 53.6664 18.6666 54.1331 18.6666 54.833V55.9996C18.6666 59.8496 21.8165 62.9997 25.6666 62.9997H29.1666C33.0165 62.9997 36.1666 59.8497 36.1666 55.9996V48.9996C36.1666 48.2996 36.6332 47.833 37.3332 47.833H41.9999C42.6999 47.833 43.1665 48.2996 43.1665 48.9996V55.9996C43.1665 63.6995 36.8666 69.9996 29.1666 69.9996ZM13.9999 55.9995C13.9999 62.4162 19.2498 67.6661 25.6665 67.6661H29.1664C35.5831 67.6661 40.833 62.4162 40.833 55.9995V50.1662H38.4997V55.9995C38.4997 61.1328 34.2998 65.3329 29.1663 65.3329H25.6664C20.533 65.3329 16.333 61.1329 16.333 55.9995H13.9999Z" fill="black"/>
</svg>
