<svg width="71" height="71" viewBox="0 0 71 71" fill="none" xmlns="http://www.w3.org/2000/svg">
<path d="M65.453 25.5156C64.7164 25.5156 63.9887 25.3314 63.3474 24.9831L35.4999 10.5756L7.63352 24.993C7.01116 25.3314 6.28341 25.5156 5.54679 25.5156C3.91046 25.5156 2.4128 24.6214 1.63846 23.1814C0.479162 21.0281 1.28901 18.3312 3.4423 17.1708L32.9328 1.81487C34.385 0.917383 36.5494 0.879664 38.1347 1.85259L67.5431 17.1642C69.7108 18.3312 70.5207 21.0281 69.3603 23.1825C68.587 24.6214 67.0894 25.5156 65.453 25.5156Z" fill="#F0BC5E"/>
<path d="M54.3594 32.1719H47.7031V26.625H54.3594V32.1719Z" fill="#F0BC5E"/>
<path d="M23.2969 32.1719H16.6406V26.625H23.2969V32.1719Z" fill="#F0BC5E"/>
<path d="M39.9375 54.3594H31.0625V48.8125H39.9375V54.3594Z" fill="#F0BC5E"/>
<path d="M65.4531 25.5156C64.7165 25.5156 63.9888 25.3315 63.3475 24.9831L63.2344 24.9243V61.0156H60.8115C60.9358 60.6673 61.0156 60.2967 61.0156 59.9062V46.5938C61.0156 45.7384 60.6817 44.9652 60.1503 44.375C60.6828 43.7848 61.0156 43.0116 61.0156 42.1562V28.8438C61.0156 27.0088 59.5224 25.5156 57.6875 25.5156H48.8125C48.8125 20.0109 44.3328 15.5312 38.8281 15.5312H32.1719C26.6672 15.5312 22.1875 20.0109 22.1875 25.5156H13.3125C11.4776 25.5156 9.98438 27.0088 9.98438 28.8438V42.1562C9.98438 43.0116 10.3183 43.7848 10.8497 44.375C10.3183 44.9652 9.98438 45.7384 9.98438 46.5938V59.9062C9.98438 60.2967 10.0642 60.6673 10.1885 61.0156H7.76562V24.9254L7.63361 24.9942C7.01125 25.3315 6.2835 25.5156 5.54688 25.5156V63.2344H13.3125H14.5705H17.7788C18.7928 64.5734 20.3837 65.4531 22.1875 65.4531V69.8906H29.9531H41.0469H48.8125V65.4531C50.6175 65.4531 52.2083 64.5734 53.2212 63.2344H56.587H57.6875H65.4531V25.5156ZM57.6875 27.7344C58.2988 27.7344 58.7969 28.2325 58.7969 28.8438V42.1562C58.7969 42.7675 58.2988 43.2656 57.6875 43.2656H56.3951H40.7041L40.1971 41.9233C41.3697 41.1667 42.3393 40.1172 43.046 38.8281H44.375C46.8223 38.8281 48.8125 36.8379 48.8125 34.3906V27.7344H57.6875ZM35.5 17.7522C35.7751 17.7755 38.5042 18.1738 38.7982 24.4062H32.2029C32.4958 18.1738 35.2249 17.7755 35.5 17.7522ZM45.0894 26.625C43.3311 28.0372 41.119 28.8438 38.8281 28.8438H32.1719C29.881 28.8438 27.67 28.0372 25.9106 26.625H45.0894ZM44.375 29.7146C45.1627 29.3119 45.9082 28.8282 46.5938 28.2635V30.5699C45.9381 30.1883 45.1871 29.9531 44.375 29.9531V29.7146ZM44.375 33.2812V32.1719C45.5986 32.1719 46.5938 33.167 46.5938 34.3906C46.5938 35.6143 45.5986 36.6094 44.375 36.6094H43.9368C44.2186 35.5843 44.375 34.4716 44.375 33.2812ZM26.625 29.9531C25.8129 29.9531 25.0619 30.1883 24.4062 30.5699V28.2635C25.0918 28.8271 25.8373 29.3119 26.625 29.7146V29.9531ZM26.625 32.1719V33.2812C26.625 34.4716 26.7814 35.5843 27.0632 36.6094H26.625C25.4014 36.6094 24.4062 35.6143 24.4062 34.3906C24.4062 33.167 25.4014 32.1719 26.625 32.1719ZM28.8438 30.5755C29.9187 30.8828 31.0348 31.0625 32.1719 31.0625H38.8281C39.9652 31.0625 41.0813 30.8828 42.1562 30.5755V33.2812C42.1562 37.9983 39.5437 41.0469 35.5 41.0469C31.4563 41.0469 28.8438 37.9983 28.8438 33.2812V30.5755ZM32.4415 45.3146L32.2229 44.4427L32.8175 42.8685C33.6518 43.1258 34.5493 43.2656 35.5 43.2656C36.4507 43.2656 37.3482 43.1258 38.1814 42.8685L38.776 44.4427L38.5574 45.3146C38.2069 46.7213 36.95 47.7031 35.5 47.7031C34.05 47.7031 32.7931 46.7213 32.4415 45.3146ZM46.5139 24.4062H41.0092C40.8627 21.138 40.095 19.0668 39.1665 17.7666C42.9184 17.9297 45.9891 20.7575 46.5139 24.4062ZM31.8335 17.7666C30.905 19.0668 30.1373 21.138 29.9908 24.4062H24.4861C25.0109 20.7575 28.0816 17.9297 31.8335 17.7666ZM12.2031 28.8438C12.2031 28.2325 12.7012 27.7344 13.3125 27.7344H22.1875V34.3906C22.1875 36.8379 24.1777 38.8281 26.625 38.8281H27.954C28.6618 40.1172 29.6303 41.1667 30.8029 41.9233L30.2959 43.2656H14.5705H13.3125C12.7012 43.2656 12.2031 42.7675 12.2031 42.1562V28.8438ZM16.6406 52.3359V59.9062C16.6406 60.2857 16.6795 60.6573 16.7527 61.0156H14.5705H13.3125C12.7012 61.0156 12.2031 60.5175 12.2031 59.9062V46.5938C12.2031 45.9825 12.7012 45.4844 13.3125 45.4844H14.5705H20.2306C19.5028 45.9891 18.8505 46.606 18.3113 47.3248C17.2341 48.7615 16.6406 50.5409 16.6406 52.3359ZM18.8594 59.9062V52.3359C18.8594 51.0179 19.2954 49.7111 20.0852 48.6572C21.097 47.3082 22.6379 46.4285 24.3142 46.241L30.2216 45.5853L30.2882 45.8538C30.4601 46.5405 30.7696 47.1584 31.1668 47.7042H29.9531C28.1182 47.7042 26.625 49.1975 26.625 51.0324V57.6886H24.4062V52.1417H22.1875V58.3964C22.0766 58.4818 21.9634 58.5628 21.8625 58.6637L21.4032 59.123L22.9718 60.6917L23.4311 60.2324C23.6408 60.0216 23.9203 59.9062 24.2165 59.9062H31.0625V63.2344H22.1875C20.3526 63.2344 18.8594 61.7412 18.8594 59.9062ZM24.4062 67.6719V65.4531H26.625V66.5625C26.625 66.953 26.7049 67.3235 26.8291 67.6719H24.4062ZM42.1562 66.5625C42.1562 67.1738 41.6581 67.6719 41.0469 67.6719H29.9531C29.3419 67.6719 28.8438 67.1738 28.8438 66.5625V65.4531H36.0547C38.1958 65.4531 39.9375 63.7114 39.9375 61.5703C39.9375 59.4292 38.1958 57.6875 36.0547 57.6875H28.8438V51.0312C28.8438 50.42 29.3419 49.9219 29.9531 49.9219H41.0469C41.6581 49.9219 42.1562 50.42 42.1562 51.0312V66.5625ZM33.2812 63.2344V59.9062H36.0547C36.9721 59.9062 37.7188 60.6529 37.7188 61.5703C37.7188 62.4878 36.9721 63.2344 36.0547 63.2344H33.2812ZM46.5938 67.6719H44.1709C44.2951 67.3235 44.375 66.953 44.375 66.5625V65.4531H46.5938V67.6719ZM52.1406 59.9062C52.1406 61.7412 50.6474 63.2344 48.8125 63.2344H44.375V59.9062H46.7835C47.0797 59.9062 47.3592 60.0216 47.5689 60.2313L48.0282 60.6906L49.5968 59.1219L49.1375 58.6626C49.0366 58.5617 48.9234 58.4807 48.8125 58.3953V52.1406H46.5938V57.6875H44.375V51.0312C44.375 49.1963 42.8818 47.7031 41.0469 47.7031H39.8332C40.2304 47.1573 40.5399 46.5394 40.7118 45.8527L40.7784 45.5842L46.6858 46.2399C48.361 46.4262 49.9019 47.3071 50.9148 48.6561C51.7046 49.7111 52.1406 51.0168 52.1406 52.3359V59.9062ZM58.7969 59.9062C58.7969 60.5175 58.2988 61.0156 57.6875 61.0156H56.5881H54.2473C54.3205 60.6573 54.3594 60.2857 54.3594 59.9062V52.3359C54.3594 50.5409 53.7659 48.7615 52.6887 47.3248C52.1495 46.606 51.4972 45.9891 50.7694 45.4844H56.3951H57.6875C58.2988 45.4844 58.7969 45.9825 58.7969 46.5938V59.9062Z" fill="black"/>
</svg>
