<svg width="70" height="70" viewBox="0 0 70 70" fill="none" xmlns="http://www.w3.org/2000/svg">
<g clip-path="url(#clip0)">
<path d="M9.33352 19.8332C9.91689 19.8332 10.3835 20.2998 10.5001 20.8832C10.8501 23.4499 10.5001 24.9665 10.2668 26.2499C10.0334 27.5333 9.80013 28.3499 10.5001 29.8666C10.7335 30.45 10.5001 31.15 9.91675 31.3832C9.33338 31.6166 8.63339 31.3832 8.40015 30.7999C7.46678 28.5831 7.70016 27.2999 8.05016 25.7832C8.28353 24.6166 8.51677 23.3332 8.28353 21.1165C8.16691 20.5332 8.63353 19.9499 9.33352 19.8332C9.2169 19.8332 9.33352 19.8332 9.33352 19.8332Z" fill="#FFE100"/>
<path d="M11.6669 19.8326C12.0169 19.8326 12.3669 20.066 12.6003 20.2993C14.1169 22.2826 14.0002 23.916 14.0002 25.3159C13.8836 26.7159 13.8836 27.8827 14.9336 29.6326C15.2836 30.216 15.167 30.916 14.5836 31.266C14.0002 31.616 13.3003 31.4994 12.9503 30.916C11.4337 28.5827 11.5503 26.7161 11.5503 25.3159C11.5503 24.0326 11.6669 22.9826 10.6169 21.6992C10.5003 21.4659 10.3835 21.2326 10.3835 20.9992C10.5002 20.2993 10.9669 19.8326 11.6669 19.8326Z" fill="#FFE100"/>
<path d="M7.00039 19.8326C7.70038 19.8326 8.16699 20.2992 8.16699 20.9992C8.16699 22.5158 7.467 23.4491 6.65039 24.4991C5.71702 25.7825 4.66704 27.1825 4.66704 30.3324C4.66704 31.0324 4.20042 31.499 3.50043 31.499C2.80044 31.499 2.33383 31.0324 2.33383 30.3324C2.33383 26.2491 3.73381 24.3824 4.7838 22.9824C5.48379 22.1658 5.83378 21.699 5.83378 20.999C5.83378 20.299 6.3004 19.8326 7.00039 19.8326Z" fill="#FFE100"/>
<path d="M8.16702 35C8.63363 35 9.10038 35.2334 9.217 35.7C10.1504 37.9167 9.91699 39.1999 9.567 40.7167C9.33362 41.8833 9.10038 43.1666 9.33362 45.3834C9.45024 45.9667 8.98363 46.55 8.28364 46.6667C7.58365 46.7833 7.11703 46.3167 7.00027 45.6167C6.65028 43.05 7.00028 41.5334 7.23365 40.25C7.46703 38.9667 7.70026 38.1501 7.00027 36.6333C6.7669 36.05 7.00027 35.35 7.58365 35.1167C7.81702 35 8.05026 35 8.16702 35Z" fill="#FFE100"/>
<path d="M3.50016 34.9993C3.85015 34.9993 4.31676 35.2326 4.43352 35.5826C5.95012 37.916 5.8335 39.7826 5.8335 41.1827C5.8335 42.4661 5.71688 43.5161 6.76687 44.7994C6.88348 44.916 7.00024 45.266 7.00024 45.4994C7.00024 46.1994 6.53363 46.666 5.83364 46.666C5.48364 46.666 5.13365 46.4326 4.90027 46.1994C3.38368 44.3327 3.5003 42.5827 3.5003 41.1827C3.61691 39.7827 3.61691 38.616 2.56693 36.866C2.21693 36.2826 2.33355 35.5826 2.91692 35.2327C3.0334 34.9993 3.26678 34.9993 3.50016 34.9993Z" fill="#FFE100"/>
<path d="M14.0003 34.9994C14.7003 34.9994 15.1669 35.466 15.1669 36.166C15.1669 40.2493 13.7669 42.1161 12.7169 43.5161C12.0169 44.3327 11.6669 44.7994 11.6669 45.4994C11.6669 46.1994 11.2003 46.666 10.5003 46.666C9.80033 46.666 9.33371 46.1994 9.33371 45.4994C9.33371 43.9828 10.0337 43.0494 10.8503 41.9995C11.7837 40.8329 12.8337 39.4327 12.8337 36.1662C12.8335 35.466 13.3003 34.9994 14.0003 34.9994Z" fill="#FFE100"/>
<path d="M11.667 45.4997L7.0003 45.4997L7.00029 68.833L11.667 68.833L11.667 45.4997Z" fill="#FFE100"/>
<path d="M12.8337 21L12.8337 14C12.8337 9.45002 16.4504 5.8333 21.0003 5.8333L35.0004 5.83331C39.5503 5.83331 43.167 9.56664 43.167 14L43.167 15.1666L47.8337 15.1666L47.8337 14C47.8337 6.8833 42.1171 1.16661 35.0004 1.16661L21.0005 1.16661C13.8838 1.16661 8.16711 6.88329 8.16711 14L8.16711 21L12.8337 21Z" fill="#FFE100"/>
<path d="M10.5003 19.8332C11.0836 19.8332 11.5503 20.2998 11.6669 20.8832C12.0169 23.4499 11.6669 24.9665 11.4335 26.2499C11.2001 27.5333 10.9669 28.3499 11.6669 29.8666C11.9003 30.45 11.6669 31.15 11.0835 31.3832C10.5001 31.6166 9.80014 31.3832 9.56691 30.7999C8.63354 28.5831 8.86692 27.2999 9.21691 25.7832C9.45029 24.6166 9.68353 23.3332 9.45029 21.1165C9.33367 20.5332 9.80028 19.9499 10.5003 19.8332C10.3837 19.8332 10.5003 19.8332 10.5003 19.8332Z" fill="black"/>
<path d="M12.8333 19.8336C13.1833 19.8336 13.5333 20.067 13.7666 20.3002C15.2832 22.2836 15.1666 23.9169 15.1666 25.3169C15.05 26.7169 15.05 27.8836 16.1 29.6336C16.45 30.217 16.3334 30.917 15.75 31.267C15.1666 31.617 14.4666 31.5004 14.1166 30.917C12.6 28.5836 12.7167 26.717 12.7167 25.3169C12.7167 24.0336 12.8333 22.9836 11.7833 21.7002C11.6667 21.4668 11.5499 21.2336 11.5499 21.0002C11.6667 20.3002 12.1333 19.8336 12.8333 19.8336Z" fill="black"/>
<path d="M8.16678 19.8335C8.86676 19.8335 9.33338 20.3002 9.33337 21.0001C9.33337 22.5167 8.63339 23.4501 7.81678 24.5001C6.88341 25.7835 5.83343 27.1834 5.83343 30.3334C5.83343 31.0334 5.36681 31.5 4.66682 31.5C3.96683 31.5 3.50022 31.0334 3.50022 30.3334C3.50022 26.2501 4.9002 24.3833 5.95018 22.9834C6.65017 22.1668 7.00017 21.7 7.00017 21C7.00017 20.3 7.46679 19.8335 8.16678 19.8335Z" fill="black"/>
<path d="M9.3334 35C9.80001 35 10.2668 35.2334 10.3834 35.7C11.3168 37.9167 11.0834 39.1999 10.7334 40.7167C10.5 41.8833 10.2668 43.1666 10.5 45.3834C10.6166 45.9667 10.15 46.55 9.45002 46.6667C8.75003 46.7833 8.28342 46.3167 8.16666 45.6167C7.81667 43.05 8.16666 41.5334 8.40003 40.25C8.63341 38.9667 8.86665 38.1501 8.16666 36.6333C7.93328 36.05 8.16666 35.35 8.75003 35.1167C8.98341 35 9.21678 35 9.3334 35Z" fill="black"/>
<path d="M4.66691 35.0003C5.0169 35.0003 5.48352 35.2336 5.60027 35.5836C7.11687 37.917 7.00025 39.7836 7.00025 41.1837C7.00025 42.4671 6.88363 43.517 7.93361 44.8004C8.05023 44.917 8.16699 45.1504 8.16699 45.5004C8.16699 46.2004 7.70038 46.667 7.00039 46.667C6.6504 46.667 6.3004 46.4336 6.06703 46.2004C4.55043 44.3336 4.66705 42.5837 4.66705 41.1837C4.78366 39.7837 4.78366 38.617 3.73368 36.867C3.38369 36.2836 3.50031 35.5836 4.08368 35.2336C4.2003 35.0003 4.43367 35.0003 4.66691 35.0003Z" fill="black"/>
<path d="M15.1666 35.0004C15.8666 35.0004 16.3333 35.467 16.3333 36.167C16.3333 40.2503 14.9333 42.1171 13.8833 43.517C13.1833 44.3336 12.8333 44.8004 12.8333 45.5004C12.8333 46.2004 12.3667 46.667 11.6667 46.667C10.9667 46.667 10.5001 46.2004 10.5001 45.5004C10.5001 43.9838 11.2001 43.0504 12.0167 42.0004C12.9501 40.8338 14 39.4337 14 36.1671C14 35.467 14.4667 35.0004 15.1666 35.0004Z" fill="black"/>
<path d="M7.00008 44.3333L11.6668 44.3333C12.3668 44.3333 12.8334 44.7999 12.8334 45.4999L12.8334 68.8334C12.8334 69.5334 12.3668 70 11.6668 70L7.00007 70C6.30008 70 5.83347 69.5334 5.83347 68.8334L5.83347 45.5001C5.83347 44.8001 6.30009 44.3333 7.00008 44.3333ZM10.5 46.6667L8.16668 46.6667L8.16668 67.6667L10.5 67.6667L10.5 46.6667Z" fill="black"/>
<path d="M21.0001 0.000405725L35.0002 0.000406949C42.7002 0.000407622 49.0001 6.30046 49.0001 14.0003L49.0001 15.1669C49.0001 15.8669 48.5335 16.3336 47.8335 16.3336L43.1668 16.3336C42.4668 16.3336 42.0002 15.8669 42.0002 15.1669L42.0002 14.0003C42.0002 10.1504 38.8503 7.00031 35.0002 7.00031L21.0002 7.0003C17.1503 7.0003 14.0002 10.1503 14.0002 14.0003L14.0002 21.0004C14.0002 21.7004 13.5336 22.167 12.8336 22.167L8.1669 22.167C7.46692 22.167 7.0003 21.7004 7.0003 21.0004L7.0003 14.0003C7.00016 6.18384 13.3002 0.000405052 21.0001 0.000405725ZM46.6668 14.0005C46.6668 7.58382 41.4169 2.33389 35.0002 2.33389L21.0002 2.33389C14.5836 2.33389 9.33365 7.58381 9.33365 14.0005L9.33365 19.8338L11.667 19.8338L11.667 14.0005C11.667 8.86718 15.8669 4.6671 21.0004 4.6671L35.0002 4.6671C40.1335 4.6671 44.3336 8.86704 44.3336 14.0005L46.6668 14.0005Z" fill="black"/>
</g>
<defs>
<clipPath id="clip0">
<rect x="70" y="70" width="70" height="70" transform="rotate(-180 70 70)" fill="white"/>
</clipPath>
</defs>
</svg>
