<svg width="70" height="70" viewBox="0 0 70 70" fill="none" xmlns="http://www.w3.org/2000/svg">
<g clip-path="url(#clip0)">
<path d="M59.4847 39.665C58.7848 39.665 58.3183 39.1985 58.3183 38.4986V24.5023C58.3183 23.8024 58.7848 23.3359 59.4847 23.3359C60.1845 23.3359 60.651 23.8024 60.651 24.5023V38.4986C60.651 39.1985 60.1845 39.665 59.4847 39.665Z" fill="#FFDD09"/>
<path d="M59.4847 50.1618C58.7848 50.1618 58.3183 49.6953 58.3183 48.9955V45.4964C58.3183 44.7966 58.7848 44.3301 59.4847 44.3301C60.1845 44.3301 60.651 44.7966 60.651 45.4964V48.9955C60.651 49.6953 60.1845 50.1618 59.4847 50.1618Z" fill="#FFDD09"/>
<path d="M59.4847 57.1599C56.9188 57.1599 54.8193 55.0605 54.8193 52.4945C54.8193 51.7947 55.2858 51.3282 55.9856 51.3282C56.6854 51.3282 57.1519 51.7947 57.1519 52.4945C57.1519 53.7776 58.2017 54.8273 59.4847 54.8273C60.7678 54.8273 61.8175 53.7776 61.8175 52.4945C61.8175 51.2115 60.7678 50.1617 59.4847 50.1617C58.7849 50.1617 58.3184 49.6952 58.3184 48.9954C58.3184 48.2956 58.7849 47.8291 59.4847 47.8291C62.0507 47.8291 64.1501 49.9286 64.1501 52.4945C64.1501 55.0605 62.0507 57.1599 59.4847 57.1599Z" fill="#FFDD09"/>
<path d="M60.6509 45.4962H55.9855V44.0966C55.9855 41.9971 56.8019 40.0143 58.3183 38.498C59.8345 40.0143 60.651 41.9971 60.651 44.0966V45.4962H60.6509Z" fill="#FFDD09"/>
<path d="M17.4955 68.824H29.1591V12.8384L25.3101 1.1748H21.4611L17.4955 12.8384V68.824Z" fill="#FFDD09"/>
<path d="M23.3274 1.1748H21.3445L17.4955 12.8386V68.8241H20.9946V12.8386L23.3274 1.1748Z" fill="white"/>
<path d="M25.3101 1.1748H23.3272L25.66 12.8384V68.824H29.1591V12.8384L25.3101 1.1748Z" fill="#FD9808"/>
<path d="M12.8303 24.5025H17.4957V12.8389H12.8303V24.5025Z" fill="#FFDD09"/>
<path d="M6.99824 15.1719V22.1701H5.83192C3.26596 22.1701 1.1665 20.0706 1.1665 17.5047V15.1719H6.99824Z" fill="#FFDD09"/>
<path d="M4.66545 17.5047V15.1719H1.16635V17.5047C1.16635 20.0706 3.26581 22.1701 5.83177 22.1701H6.99823V21.4703C5.59859 20.7704 4.66545 19.2542 4.66545 17.5047Z" fill="white"/>
<path d="M62.9837 12.8389H29.1591V24.5025H68.8155L62.9837 12.8389Z" fill="#FFDD09"/>
<path d="M62.9838 12.8389H58.3183L64.1502 24.5025H68.8156L62.9838 12.8389Z" fill="#FD9808"/>
<path d="M6.99802 26.835H12.8299V10.5059H6.99802V26.835Z" fill="#FFDD09"/>
<path d="M29.1593 69.9906H17.4957C16.7958 69.9906 16.3293 69.5241 16.3293 68.8243V12.8387C16.3293 12.7221 16.3293 12.6054 16.4459 12.4888L20.2949 0.825199C20.4115 0.358699 20.8782 0.00878906 21.4613 0.00878906H25.3103C25.7768 0.00878906 26.2434 0.358699 26.36 0.825199L30.209 12.4888C30.3256 12.6054 30.3256 12.7221 30.3256 12.8387V68.8243C30.3257 69.5241 29.8591 69.9906 29.1593 69.9906ZM18.662 67.6578H27.993V13.0719L24.4939 2.34129H22.2778L18.6621 13.0719V67.6578H18.662Z" fill="black"/>
<path d="M43.1556 69.9908H9.33108C8.63126 69.9908 8.16476 69.5243 8.16476 68.8245C8.16476 68.1247 8.63126 67.6582 9.33108 67.6582H43.1557C43.8556 67.6582 44.3221 68.1247 44.3221 68.8245C44.3221 69.5243 43.8554 69.9908 43.1556 69.9908Z" fill="black"/>
<path d="M17.4955 25.6691H12.8301C12.1303 25.6691 11.6638 25.2026 11.6638 24.5028V12.8392C11.6638 12.1394 12.1303 11.6729 12.8301 11.6729H17.4955C18.1953 11.6729 18.6618 12.1394 18.6618 12.8392V24.5028C18.6618 25.2026 18.1953 25.6691 17.4955 25.6691ZM13.9964 23.3365H16.3292V14.0055H13.9964V23.3365Z" fill="black"/>
<path d="M6.9982 23.3359H5.83187C2.56596 23.3359 0 20.7698 0 17.504V15.1712C0 14.4714 0.466501 14.0049 1.16632 14.0049H6.9982C7.69801 14.0049 8.16452 14.4714 8.16452 15.1712V22.1694C8.16452 22.8692 7.69801 23.3359 6.9982 23.3359ZM2.33278 16.3377V17.504C2.33278 19.4868 3.84901 21.0031 5.83187 21.0031V16.3377H2.33278Z" fill="black"/>
<path d="M17.4957 69.9905C17.1458 69.9905 16.9124 69.8739 16.6793 69.6406C16.2128 69.1741 16.3293 68.4743 16.7958 68.0076L27.4097 58.4435L16.7958 49.929C16.5625 49.6957 16.3293 49.3458 16.3293 48.9959C16.3293 48.646 16.4459 48.2961 16.7958 48.0628L27.2931 39.6649L16.7958 31.2671C16.5625 31.0338 16.3293 30.6839 16.3293 30.334C16.3293 29.9841 16.4459 29.6341 16.7958 29.4008L28.4595 20.0698C28.926 19.7199 29.7425 19.7199 30.0924 20.3032C30.4423 20.7697 30.4423 21.5862 29.8591 21.9361L19.3618 30.334L29.8591 38.7318C30.0924 38.9651 30.3256 39.315 30.3256 39.6649C30.3256 40.0148 30.209 40.3648 29.8591 40.5981L19.3618 48.9959L29.8591 57.3937C30.0924 57.6271 30.3256 57.977 30.3256 58.3269C30.3256 58.6768 30.209 59.0267 29.9757 59.26L18.3121 69.7573C18.0789 69.8739 17.8456 69.9905 17.4957 69.9905Z" fill="black"/>
<path d="M29.1593 69.9903C28.926 69.9903 28.5761 69.8737 28.3429 69.6404L16.6793 59.1431C16.4459 58.9098 16.3293 58.6766 16.3293 58.3267C16.3293 57.9768 16.4459 57.6269 16.7958 57.3935L27.2931 48.9957L16.7958 40.5979C16.5625 40.3645 16.3293 40.0146 16.3293 39.6647C16.3293 39.3148 16.4459 38.9649 16.7958 38.7316L27.2931 30.3337L16.7958 21.9359C16.3293 21.586 16.2126 20.7696 16.5625 20.303C16.9124 19.8365 17.7288 19.7197 18.1955 20.0696L29.8591 29.4006C30.0924 29.6339 30.3256 29.9838 30.3256 30.3337C30.3256 30.6837 30.209 31.0336 29.8591 31.2669L19.3618 39.6647L29.8591 48.0626C30.0924 48.2959 30.3256 48.6458 30.3256 48.9957C30.3256 49.3456 30.209 49.6955 29.8591 49.9288L19.3618 58.3267L29.9757 67.8908C30.4422 68.3573 30.4422 69.0572 30.0923 69.5238C29.8591 69.8737 29.5092 69.9903 29.1593 69.9903Z" fill="black"/>
<path d="M17.4954 22.1696C17.1455 22.1696 16.7955 22.053 16.5622 21.7031C16.2123 21.1199 16.3289 20.42 16.7955 20.0701L28.4592 11.9056C29.0424 11.5557 29.7422 11.6723 30.0921 12.1389C30.442 12.6056 30.3254 13.422 29.8588 13.7719L18.1952 21.9364C17.9619 22.053 17.7287 22.1696 17.4954 22.1696Z" fill="black"/>
<path d="M29.1592 22.1701C28.9259 22.1701 28.6927 22.0535 28.4594 21.9368L16.7957 13.7723C16.2125 13.4224 16.0959 12.7226 16.5624 12.1393C16.9123 11.5561 17.6122 11.4395 18.1954 11.906L29.859 20.0705C30.4422 20.4205 30.5588 21.1203 30.0923 21.7035C29.859 22.0535 29.5091 22.1701 29.1592 22.1701Z" fill="black"/>
<path d="M68.8158 25.6691H29.1593C28.4594 25.6691 27.993 25.2026 27.993 24.5028V12.8392C27.993 12.1394 28.4594 11.6729 29.1593 11.6729H62.9839C63.4504 11.6729 63.8003 11.9062 64.0337 12.3727L69.8655 24.0363C70.0988 24.3862 69.9821 24.8527 69.8655 25.2026C69.6322 25.4359 69.2823 25.6691 68.8158 25.6691ZM30.3257 23.3365H66.9497L62.2842 14.0055H30.3257V23.3365Z" fill="black"/>
<path d="M12.8301 28.0016H6.9982C6.29838 28.0016 5.83188 27.5351 5.83188 26.8353V10.5062C5.83188 9.80634 6.29838 9.33984 6.9982 9.33984H12.8301C13.5299 9.33984 13.9964 9.80634 13.9964 10.5062V26.8353C13.9964 27.5351 13.5299 28.0016 12.8301 28.0016ZM8.16452 25.6689H11.6636V11.6725H8.16452V25.6689Z" fill="black"/>
<path d="M58.3183 25.6688C57.9684 25.6688 57.6185 25.5523 57.3852 25.2023L48.9873 14.7051L40.5895 25.2023C40.123 25.7856 39.1899 25.7856 38.7234 25.2023L29.3924 13.5387C29.0425 13.0722 29.0425 12.2557 29.6257 11.9058C30.0922 11.5559 30.9088 11.5559 31.2587 12.1391L39.6565 22.6364L48.0543 12.1391C48.5208 11.5559 49.454 11.5559 49.9205 12.1391L59.2514 23.8027C59.6014 24.2692 59.6014 25.0858 59.0181 25.4357C58.9014 25.5523 58.5515 25.6688 58.3183 25.6688Z" fill="black"/>
<path d="M30.3255 25.6685C30.0922 25.6685 29.859 25.5519 29.6257 25.4352C29.1592 25.0852 29.0425 24.2688 29.3924 23.8022L38.7234 12.1386C39.1899 11.5554 40.123 11.5554 40.5895 12.1386L48.9873 22.6359L57.3852 12.1386C57.7351 11.6721 58.5515 11.5554 59.0181 11.9053C59.4846 12.2552 59.6014 13.0716 59.2514 13.5382L49.9205 25.2018C49.454 25.7851 48.5208 25.7851 48.0543 25.2018L39.6565 14.7046L31.2587 25.2018C31.0253 25.5519 30.6754 25.6685 30.3255 25.6685Z" fill="black"/>
<path d="M58.3182 25.6687C58.0848 25.6687 57.7349 25.5521 57.6183 25.4354C57.1518 24.9689 57.0351 24.2691 57.5018 23.8025L64.0335 15.9879C64.5 15.5214 65.1998 15.4046 65.6664 15.8713C66.1329 16.3378 66.2496 17.0376 65.783 17.5042L59.2513 25.3188C59.018 25.5521 58.6681 25.6687 58.3182 25.6687Z" fill="black"/>
<path d="M58.3185 39.665C57.6187 39.665 57.1522 39.1985 57.1522 38.4986V24.5023C57.1522 23.8024 57.6187 23.3359 58.3185 23.3359C59.0183 23.3359 59.4848 23.8024 59.4848 24.5023V38.4986C59.4848 39.1985 59.0183 39.665 58.3185 39.665Z" fill="black"/>
<path d="M60.6511 46.6628H55.9856C55.2858 46.6628 54.8193 46.1963 54.8193 45.4965V44.0969C54.8193 41.6475 55.7525 39.3147 57.502 37.6819C57.9685 37.2154 58.6683 37.2154 59.135 37.6819C60.8845 39.4315 61.8177 41.6475 61.8177 44.0969V45.4965C61.8175 46.1963 61.3509 46.6628 60.6511 46.6628ZM57.152 44.3302H59.4847V44.0969C59.4847 42.6972 59.1348 41.4142 58.3184 40.2479C57.502 41.4142 57.1521 42.6972 57.1521 44.0969V44.3302H57.152Z" fill="black"/>
<path d="M58.3185 50.1618C57.6187 50.1618 57.1522 49.6953 57.1522 48.9955V45.4964C57.1522 44.7966 57.6187 44.3301 58.3185 44.3301C59.0183 44.3301 59.4848 44.7966 59.4848 45.4964V48.9955C59.4848 49.6953 59.0183 50.1618 58.3185 50.1618Z" fill="black"/>
<path d="M58.3182 57.1609C55.7522 57.1609 53.6528 55.0615 53.6528 52.4955C53.6528 51.7957 54.1193 51.3292 54.8191 51.3292C55.5189 51.3292 55.9854 51.7957 55.9854 52.4955C55.9854 53.7785 57.0351 54.8283 58.3182 54.8283C59.6012 54.8283 60.651 53.7785 60.651 52.4955C60.651 51.2124 59.6012 50.1627 58.3182 50.1627C57.6184 50.1627 57.1519 49.6962 57.1519 48.9964C57.1519 48.2966 57.6184 47.8301 58.3182 47.8301C60.8841 47.8301 62.9836 49.9295 62.9836 52.4955C62.9836 55.0615 60.8841 57.1609 58.3182 57.1609Z" fill="black"/>
</g>
<defs>
<clipPath id="clip0">
<rect width="70" height="70" fill="white"/>
</clipPath>
</defs>
</svg>
