<svg width="12" height="12" viewBox="0 0 12 12" fill="none" xmlns="http://www.w3.org/2000/svg">
<g clip-path="url(#clip0)">
<path d="M2.8725 6.5249C2.57798 6.5249 2.33838 6.76448 2.33838 7.05897C2.33838 7.35346 2.57798 7.59304 2.8725 7.59304C3.16699 7.59304 3.40657 7.35346 3.40657 7.05897C3.40657 6.76448 3.16697 6.5249 2.8725 6.5249ZM2.8725 7.24085C2.77223 7.24085 2.69065 7.15926 2.69065 7.05902C2.69065 6.95878 2.77223 6.87719 2.8725 6.87719C2.97276 6.87719 3.05433 6.95878 3.05433 7.05902C3.05433 7.15926 2.97274 7.24085 2.8725 7.24085Z" fill="white"/>
<path d="M7.70472 9.92154C7.68116 9.84891 7.61352 9.79981 7.53723 9.79981H6.49103L6.16774 8.80482C6.14444 8.73307 6.07565 8.68311 6.00023 8.68311C5.92481 8.68311 5.85604 8.73305 5.83272 8.80482L5.50943 9.79981H4.46325C4.38696 9.79981 4.31932 9.84893 4.29574 9.92152C4.27216 9.99408 4.29799 10.0736 4.35973 10.1184L5.2061 10.7334L4.8828 11.7284C4.86023 11.7978 4.88395 11.8759 4.94128 11.9211C5.00252 11.9693 5.09074 11.9711 5.15383 11.9253L6.00021 11.3103L6.84658 11.9253C6.91277 11.9734 7.00581 11.9687 7.06698 11.9145C7.11885 11.8685 7.13903 11.7943 7.11759 11.7284L6.79429 10.7334L7.64066 10.1184C7.70247 10.0736 7.72829 9.9941 7.70472 9.92154ZM6.48379 10.5236C6.42206 10.5684 6.39623 10.6479 6.41981 10.7205L6.61513 11.3217L6.10373 10.9501C6.0427 10.9058 5.95771 10.9058 5.89671 10.9501L5.3853 11.3217L5.58063 10.7205C5.60421 10.6479 5.57838 10.5684 5.51664 10.5236L5.00526 10.1521H5.63737C5.71366 10.1521 5.7813 10.1029 5.80488 10.0303L6.00021 9.42917L6.19553 10.0303C6.21911 10.1029 6.28675 10.1521 6.36304 10.1521H6.99515L6.48379 10.5236Z" fill="white"/>
<path d="M11.9914 9.92152C11.9678 9.84894 11.9001 9.79981 11.8238 9.79981H10.7777L10.4544 8.80482C10.4311 8.73307 10.3623 8.68311 10.2869 8.68311C10.2114 8.68311 10.1427 8.73305 10.1194 8.80482L9.79605 9.79981H8.74987C8.67358 9.79981 8.60594 9.84894 8.58236 9.92152C8.55878 9.99409 8.58461 10.0736 8.64635 10.1184L9.49272 10.7334L9.16943 11.7284C9.14686 11.7978 9.17058 11.8759 9.2279 11.9211C9.28915 11.9694 9.37736 11.9711 9.44046 11.9253L10.2868 11.3103L11.1332 11.9253C11.1994 11.9734 11.2924 11.9687 11.3536 11.9145C11.4055 11.8685 11.4257 11.7943 11.4042 11.7284L11.0809 10.7334L11.9273 10.1184C11.9891 10.0736 12.015 9.99409 11.9914 9.92152ZM10.7704 10.5236C10.7087 10.5684 10.6829 10.6479 10.7064 10.7205L10.9017 11.3217L10.3904 10.9502C10.3286 10.9053 10.245 10.9053 10.1833 10.9502L9.67193 11.3217L9.86726 10.7205C9.89083 10.6479 9.86501 10.5684 9.80327 10.5236L9.29189 10.1521H9.92402C10.0003 10.1521 10.068 10.103 10.0915 10.0304L10.2869 9.42919L10.4822 10.0304C10.5058 10.103 10.5734 10.1521 10.6497 10.1521H11.2818L10.7704 10.5236Z" fill="white"/>
<path d="M3.41715 9.92154C3.39355 9.84891 3.32591 9.79981 3.24962 9.79981H2.20344L1.88014 8.80482C1.85657 8.73223 1.78893 8.68311 1.71264 8.68311C1.63635 8.68311 1.56871 8.73223 1.54513 8.80482L1.22183 9.79981H0.175652C0.0993626 9.79981 0.031722 9.84893 0.00814387 9.92152C-0.0154343 9.99408 0.0103939 10.0736 0.0721282 10.1184L0.918503 10.7334L0.595206 11.7284C0.571628 11.8009 0.597456 11.8804 0.659191 11.9253C0.720902 11.9701 0.804503 11.9701 0.866238 11.9253L1.71261 11.3103L2.55899 11.9253C2.6252 11.9733 2.71822 11.9687 2.77939 11.9145C2.83126 11.8685 2.85144 11.7943 2.83 11.7284L2.5067 10.7334L3.35307 10.1184C3.4149 10.0736 3.44073 9.9941 3.41715 9.92154ZM2.1962 10.5236C2.13446 10.5684 2.10864 10.6479 2.13221 10.7205L2.32754 11.3216L1.81614 10.9501C1.7551 10.9057 1.67012 10.9057 1.60909 10.9501L1.09773 11.3216L1.29303 10.7205C1.31661 10.6479 1.29078 10.5684 1.22905 10.5236L0.717667 10.152H1.34978C1.42607 10.152 1.49371 10.1029 1.51728 10.0303L1.71261 9.42914L1.90794 10.0303C1.93152 10.1029 1.99916 10.152 2.07545 10.152H2.70756L2.1962 10.5236Z" fill="white"/>
<path d="M10.5742 4.4318C10.7561 4.28541 10.8727 4.06094 10.8727 3.80981C10.8727 3.36972 10.5147 3.01169 10.0746 3.01169H7.2416C7.32966 2.81969 7.4313 2.52722 7.48941 2.12065C7.62436 1.1759 7.42043 0.674436 7.22559 0.420115C7.06069 0.204865 6.83913 0.0746934 6.58493 0.043709C6.37043 0.0173652 6.17456 0.187732 6.16884 0.403217C6.13587 0.741983 6.01523 1.67135 5.84245 2.01696C5.39857 2.90473 4.34027 3.43401 4.01341 3.58045C3.89904 3.48215 3.75049 3.42255 3.58821 3.42255H2.15632C1.79604 3.42255 1.50293 3.71564 1.50293 4.07594V7.65558C1.50293 8.01588 1.79604 8.30897 2.15632 8.30897H3.58816C3.78094 8.30897 3.95444 8.22499 4.07412 8.09177C4.26 8.20912 4.56 8.33986 4.9743 8.33986H9.57703C10.0171 8.33986 10.3751 7.98183 10.3751 7.54177C10.3751 7.34004 10.2999 7.15554 10.176 7.01487C10.441 6.8849 10.6239 6.61226 10.6239 6.29775C10.6239 6.09602 10.5487 5.91155 10.4248 5.77085C10.6898 5.64091 10.8727 5.36826 10.8727 5.05376C10.8727 4.80265 10.7561 4.57819 10.5742 4.4318ZM3.58816 7.9567H2.15632C1.99027 7.9567 1.85517 7.82161 1.85517 7.65555V4.07592C1.85517 3.90987 1.99027 3.77477 2.15632 3.77477H3.58816C3.67226 3.77477 3.74831 3.80951 3.80299 3.86529V7.79294C3.80299 7.81401 3.80681 7.83469 3.81403 7.85409C3.75879 7.91684 3.67814 7.9567 3.58816 7.9567ZM9.33464 4.6079H10.0747C10.3206 4.6079 10.5206 4.80794 10.5206 5.05376C10.5206 5.29957 10.3205 5.49961 10.0747 5.49961H9.33464C9.23737 5.49961 9.15851 5.57845 9.15851 5.67574C9.15851 5.77303 9.23737 5.85187 9.33464 5.85187H9.82589C10.0717 5.85187 10.2717 6.05191 10.2717 6.29773C10.2717 6.54354 10.0717 6.74358 9.82589 6.74358H9.19962C9.10235 6.74358 9.02348 6.82242 9.02348 6.91971C9.02348 7.017 9.10235 7.09584 9.19962 7.09584H9.57708C9.82291 7.09584 10.0229 7.29588 10.0229 7.54172C10.0229 7.78755 9.82291 7.98757 9.57708 7.98757H4.97435C4.61084 7.98757 4.36439 7.86579 4.23059 7.77436C4.23771 7.73578 4.24162 7.6961 4.24162 7.65551V4.07592C4.24162 4.00706 4.23084 3.94071 4.21102 3.87837C4.6237 3.68897 5.68024 3.12898 6.1575 2.17448C6.39621 1.69708 6.51523 0.481381 6.52017 0.429865C6.52069 0.424287 6.52097 0.418639 6.52097 0.413037C6.52097 0.407037 6.52326 0.401928 6.52779 0.397943C6.53412 0.392389 6.54021 0.393092 6.54225 0.39335C6.6525 0.406803 6.81204 0.459537 6.94598 0.634334C7.09976 0.835053 7.25836 1.2472 7.1407 2.07084C7.04098 2.76898 6.80451 3.07439 6.80304 3.07629C6.71072 3.18912 6.79385 3.36396 6.93933 3.36396H10.0747C10.3205 3.36396 10.5205 3.564 10.5205 3.80983C10.5205 4.05569 10.3205 4.25569 10.0747 4.25569H9.33462C9.23735 4.25569 9.15848 4.33453 9.15848 4.43182C9.15848 4.52911 9.23735 4.6079 9.33464 4.6079Z" fill="white"/>
</g>
<defs>
<clipPath id="clip0">
<rect width="12" height="12" fill="white"/>
</clipPath>
</defs>
</svg>
