<svg width="70" height="70" viewBox="0 0 70 70" fill="none" xmlns="http://www.w3.org/2000/svg">
<g>
<path d="M44.0234 63.1641L44.0234 57.6953L33.0859 57.6953L33.0859 63.1641L44.0234 63.1641Z" fill="#AAAAA0"/>
<path d="M41.8359 68.6328L41.8359 63.1641L9.02344 63.1641L9.02344 68.6328L41.8359 68.6328Z" fill="#5AD2E6"/>
<path d="M60.9766 17.7734L60.9766 12.3047L16.8164 12.3047L16.8164 17.7734L60.9766 17.7734Z" fill="#FAC800"/>
<path d="M56.6699 29.1085L21.123 18.9775L21.123 24.4463L56.6699 34.5773L56.6699 29.1085Z" fill="#FFE100"/>
<path d="M56.6699 17.7734L36.0865 17.7734L56.6699 23.6398L56.6699 17.7734Z" fill="#FFE100"/>
<path d="M56.6699 34.5773L21.123 24.4463L21.123 29.915L56.6699 40.046L56.6699 34.5773Z" fill="#FFE100"/>
<path d="M56.6699 23.6398L36.0865 17.7734L21.123 17.7734L21.123 18.9775L56.6699 29.1085L56.6699 23.6398Z" fill="#FFE100"/>
<path d="M56.6699 45.5148L21.123 35.3838L21.123 40.8525L56.6699 50.9835L56.6699 45.5148Z" fill="#FFE100"/>
<path d="M56.6699 40.046L21.123 29.915L21.123 35.3838L56.6699 45.5148L56.6699 40.046Z" fill="#FFE100"/>
<path d="M41.843 52.2266L21.1229 46.3213L21.1229 52.2266L41.843 52.2266Z" fill="#FFE100"/>
<path d="M56.6699 52.2266L56.6699 50.9835L21.123 40.8525L21.123 46.3213L41.8432 52.2266L56.6699 52.2266Z" fill="#FFE100"/>
<path d="M60.9766 57.6953L60.9766 52.2266L16.8164 52.2266L16.8164 57.6953L60.9766 57.6953Z" fill="#FAC800"/>
<path d="M42.5469 68.8986L42.5469 64.797L43.3672 64.797C44.1221 64.797 44.7344 64.1849 44.7344 63.4298L44.7344 59.3281L60.3203 59.3281C61.0753 59.3281 61.6875 58.716 61.6875 57.9609L61.6875 52.4922C61.6875 51.7371 61.0753 51.125 60.3203 51.125L57.3809 51.125L57.3809 19.4063L60.3203 19.4063C61.0753 19.4063 61.6875 18.7942 61.6875 18.0391L61.6875 12.5703C61.6875 11.8152 61.0753 11.2031 60.3203 11.2031L44.7344 11.2031L45.4357 11.2157C45.4357 10.4606 47.3207 11.1566 46.5657 11.1566L48.8437 11.0448L57.3809 11.2031C57.3809 10.448 45.0987 11.2657 44.3437 11.2657L16.1602 11.2031C15.4052 11.2031 14.3437 12.5703 14.8437 12.5703L14.8437 15.2656C14.8437 16.0207 15.4052 11.2031 16.1602 11.2031C16.9151 11.2031 15.2031 12.0208 15.2031 11.2657L16.1602 11.2031L31.0625 11.0448L31.0625 11.2031L16.1602 11.2031C15.4052 11.2031 14.793 11.8152 14.793 12.5703L14.793 18.0391C14.793 18.7942 15.4052 19.4063 16.1602 19.4063L19.0996 19.4063L19.0996 29.0449L16.5703 29.0449C15.4738 29.0449 14.4443 29.4714 13.6705 30.2466C12.8953 31.0205 12.4687 32.0499 12.4687 33.1464L12.4687 45.3144C12.4674 46.0664 11.8535 46.6802 11.1016 46.6816C10.3496 46.6802 9.73574 46.0664 9.73437 45.3144L9.73437 29.4263C9.73437 28.6716 9.12051 28.0592 8.36719 28.0592C7.6125 28.0592 7 28.6716 7 29.4263L7 45.3144C7 46.4109 7.42656 47.4404 8.20176 48.2142C8.97558 48.9894 10.0064 49.416 11.1016 49.416C12.1982 49.416 13.2275 48.9894 14.0014 48.2142C14.7766 47.4404 15.2031 46.4109 15.2031 45.3144L15.2031 33.1464C15.2045 32.3945 15.8184 31.7806 16.5703 31.7792L19.0996 31.7792L19.0996 51.125L16.1602 51.125C15.4052 51.125 14.793 51.7371 14.793 52.4922L14.793 57.9609C14.793 58.716 15.4052 59.3281 16.1602 59.3281L31.0625 59.3281L31.0625 62.0626L9.73437 62.0626L9.73437 57.9609C9.73437 57.2058 9.12214 56.5937 8.36719 56.5937C7.61223 56.5937 7 57.2058 7 57.9609L7 68.8986C7 69.6536 7.61223 70.2657 8.36718 70.2657L41.1797 70.2657C41.9346 70.2657 42.5469 69.6537 42.5469 68.8986ZM21.834 42.9295L50.5899 51.125L41.3779 51.125L21.834 45.5549L21.834 42.9295ZM21.834 37.4607L54.6465 46.8123L54.6465 49.4377L21.834 40.0862L21.834 37.4607ZM21.834 31.992L54.6465 41.3436L54.6465 43.969L21.834 34.6174L21.834 31.992ZM21.834 26.5233L54.6465 35.8748L54.6465 38.5002L21.834 29.1487L21.834 26.5233ZM21.834 21.0545L54.6465 30.4061L54.6465 33.0315L21.834 23.6799L21.834 21.0545ZM35.2391 19.4063L54.6465 24.9373L54.6465 27.5627L26.027 19.4063L35.2391 19.4063ZM54.6465 22.094L45.2158 19.4063L54.6465 19.4063L54.6465 22.094ZM39.8125 5.73438L9.73438 5.73437L10 5.73437L24.7734 5.73437L39.8125 5.73438ZM33.7969 8.46876L42 8.46876L42 11.2031L33.7969 11.2031L33.7969 8.46876ZM17.5273 16.6719L17.5273 13.9375L58.9531 13.9375L58.9531 16.6719L17.5273 16.6719ZM21.834 48.3982L31.4014 51.125L21.834 51.125L21.834 48.3982ZM17.5273 56.5937L17.5273 53.8593L58.9531 53.8593L58.9531 56.5937L17.5273 56.5937ZM33.7969 59.3281L42 59.3281L42 62.0626L41.1797 62.0626L33.7969 62.0626L33.7969 59.3281ZM9.73437 67.5314L9.73437 64.797L39.8125 64.797L39.8125 67.5314L9.73437 67.5314Z" fill="black"/>
</g>
</svg>
