<svg width="59" height="59" viewBox="0 0 59 59" fill="none" xmlns="http://www.w3.org/2000/svg">
<path d="M24.8906 28.5781H17.5156V22.125H24.8906V28.5781Z" fill="#F0BC5E"/>
<path d="M41.4844 28.5781H34.1094V22.125H41.4844V28.5781Z" fill="#F0BC5E"/>
<path d="M16.5938 43.3281H9.21875V36.875H16.5938V43.3281Z" fill="#F0BC5E"/>
<path d="M33.1875 43.3281H25.8125V36.875H33.1875V43.3281Z" fill="#F0BC5E"/>
<path d="M49.7812 43.3281H42.4062V36.875H49.7812V43.3281Z" fill="#F0BC5E"/>
<path d="M55.3125 50.7031H55.1429C55.2461 50.4137 55.3125 50.1058 55.3125 49.7812V38.7188C55.3125 37.194 54.0717 35.9531 52.5469 35.9531H46.846C46.9493 35.6637 47.0156 35.3558 47.0156 35.0312V23.9688C47.0156 22.444 45.7748 21.2031 44.25 21.2031H36.793L31.0211 10.1406H32.2656V0.921875H26.7344V10.1406H27.9494L21.9379 21.2031H14.75C13.2252 21.2031 11.9844 22.444 11.9844 23.9688V35.0312C11.9844 35.3558 12.0507 35.6637 12.154 35.9531H6.45312C4.92834 35.9531 3.6875 37.194 3.6875 38.7188V49.7812C3.6875 50.1058 3.75388 50.4137 3.85713 50.7031H3.6875C2.16272 50.7031 0.921875 51.944 0.921875 53.4688V55.3125C0.921875 56.8373 2.16272 58.0781 3.6875 58.0781H55.3125C56.8373 58.0781 58.0781 56.8373 58.0781 55.3125V53.4688C58.0781 51.944 56.8373 50.7031 55.3125 50.7031ZM53.4688 38.7188V49.7812C53.4688 50.2901 53.0558 50.7031 52.5469 50.7031H52.1837L45.4503 37.7969H52.5469C53.0558 37.7969 53.4688 38.2099 53.4688 38.7188ZM22.125 49.7812V38.7188C22.125 38.2099 22.538 37.7969 23.0469 37.7969H27.6562H31.3438H35.9531C36.462 37.7969 36.875 38.2099 36.875 38.7188V49.7812C36.875 50.2901 36.462 50.7031 35.9531 50.7031H23.0469C22.538 50.7031 22.125 50.2901 22.125 49.7812ZM35.9531 35.9531H31.3438C30.8349 35.9531 30.4219 35.5401 30.4219 35.0312V23.9688C30.4219 23.4608 30.8349 23.0469 31.3438 23.0469H35.6747L42.4081 35.9531H39.6406H35.9531ZM38.7188 49.7812V38.7188C38.7188 38.2099 39.1317 37.7969 39.6406 37.7969H43.3705L50.1039 50.7031H39.6406C39.1317 50.7031 38.7188 50.2901 38.7188 49.7812ZM44.25 23.0469C44.7589 23.0469 45.1719 23.4608 45.1719 23.9688V35.0312C45.1719 35.4636 44.8677 35.8102 44.4657 35.9098L37.7545 23.0469H44.25ZM28.5781 2.76562H30.4219V8.29688H28.5781V2.76562ZM29.4834 11.1805L34.7132 21.2031H31.3438C30.633 21.2031 29.9904 21.4806 29.5 21.9222C29.0096 21.4797 28.367 21.2031 27.6562 21.2031H24.036L29.4834 11.1805ZM13.8281 35.0312V23.9688C13.8281 23.4608 14.2411 23.0469 14.75 23.0469H27.6562C28.1651 23.0469 28.5781 23.4608 28.5781 23.9688V35.0312C28.5781 35.5401 28.1651 35.9531 27.6562 35.9531H23.0469H19.3594H14.75C14.2411 35.9531 13.8281 35.5401 13.8281 35.0312ZM5.53125 49.7812V38.7188C5.53125 38.2099 5.94425 37.7969 6.45312 37.7969H14.75H19.3594C19.8682 37.7969 20.2812 38.2099 20.2812 38.7188V49.7812C20.2812 50.2901 19.8682 50.7031 19.3594 50.7031H6.45312C5.94425 50.7031 5.53125 50.2901 5.53125 49.7812ZM2.76562 55.3125V53.4688C2.76562 52.9599 3.17863 52.5469 3.6875 52.5469H6.45312H19.3594H23.0469H35.9531H39.6406H50.7031V56.2344H3.6875C3.17863 56.2344 2.76562 55.8214 2.76562 55.3125ZM56.2344 55.3125C56.2344 55.8214 55.8214 56.2344 55.3125 56.2344H52.5469V52.5469H55.3125C55.8214 52.5469 56.2344 52.9599 56.2344 53.4688V55.3125Z" fill="black"/>
</svg>
