<svg width="71" height="71" viewBox="0 0 71 71" fill="none" xmlns="http://www.w3.org/2000/svg">
<g clip-path="url(#clip0)">
<path d="M25.6041 57.6158C24.9057 57.6158 24.4401 57.1502 24.4401 56.4518C24.4401 55.7534 23.9746 55.2879 23.2762 55.2879C22.5778 55.2879 22.1122 55.7534 22.1122 56.4518C22.1122 57.1502 21.6467 57.6158 20.9483 57.6158C20.2499 57.6158 19.7844 57.1502 19.7844 56.4518C19.7844 55.1714 18.7368 54.1238 17.4564 54.1238C16.758 54.1238 16.2924 53.6583 16.2924 52.9599C16.2924 52.2615 15.8269 51.7959 15.1285 51.7959C14.4301 51.7959 13.9645 52.2615 13.9645 52.9599C13.9645 53.6583 13.499 54.1238 12.8006 54.1238H10.472C9.1916 54.1238 8.14401 55.1714 8.14401 56.4518C8.14401 57.1502 7.67846 57.6158 6.98007 57.6158C6.28168 57.6158 5.81613 57.1502 5.81613 56.4518C5.81613 53.891 7.91131 51.7958 10.4722 51.7958H11.8689C12.3345 50.399 13.6149 49.4678 15.1282 49.4678C16.6415 49.4678 18.0383 50.5154 18.5038 51.9121C19.5514 52.145 20.599 52.8434 21.181 53.6581C21.7631 53.1926 22.4614 52.9597 23.2762 52.9597C25.255 52.9597 26.7681 54.4729 26.7681 56.4517C26.768 57.1502 26.3025 57.6158 25.6041 57.6158Z" fill="#FFE100"/>
<path d="M60.5243 70.4195C59.826 70.4195 59.3604 69.9539 59.3604 69.2555C59.3604 68.5571 58.8949 68.0916 58.1965 68.0916C57.4981 68.0916 57.0325 68.5571 57.0325 69.2555C57.0325 69.9539 56.567 70.4195 55.8686 70.4195C55.1702 70.4195 54.7046 69.9539 54.7046 69.2555C54.7046 67.9751 53.6571 66.9275 52.3766 66.9275C51.6782 66.9275 51.2127 66.462 51.2127 65.7636C51.2127 65.0652 50.7471 64.5996 50.0488 64.5996C49.3504 64.5996 48.8848 65.0652 48.8848 65.7636C48.8848 66.462 48.4193 66.9275 47.7209 66.9275H45.3929C44.1124 66.9275 43.0648 67.9751 43.0648 69.2555C43.0648 69.9539 42.5993 70.4195 41.9009 70.4195C41.2025 70.4195 40.737 69.9539 40.737 69.2555C40.737 66.6947 42.8321 64.5995 45.393 64.5995H46.7898C47.2553 63.2027 48.5358 62.2715 50.049 62.2715C51.5623 62.2715 52.9591 63.3191 53.4246 64.7159C54.4722 64.9487 55.5198 65.6471 56.1018 66.4618C56.6839 65.9963 57.3823 65.7634 58.197 65.7634C60.1758 65.7634 61.689 67.2766 61.689 69.2554C61.6884 69.9538 61.2227 70.4195 60.5243 70.4195Z" fill="#FFE100"/>
<path d="M57.0322 61.1078C55.0534 61.1078 53.5403 59.5947 53.5403 57.6159C53.5403 55.9862 54.5878 54.7058 55.9846 54.2403C56.4502 52.8435 57.7306 51.7959 59.3602 51.7959C60.8734 51.7959 62.2703 52.8435 62.7358 54.2403C63.7834 54.4731 64.831 55.1715 65.413 55.9862C65.9951 55.5207 66.6935 55.2879 67.5082 55.2879C69.487 55.2879 71.0002 56.801 71.0002 58.7798C71.0002 59.4782 70.5346 59.9438 69.8362 59.9438C69.1378 59.9438 68.6723 59.4782 68.6723 58.7798C68.6723 58.0814 68.2067 57.6159 67.5083 57.6159C66.81 57.6159 66.3444 58.0814 66.3444 58.7798C66.3444 59.4782 65.8789 59.9438 65.1805 59.9438C64.4821 59.9438 64.0165 59.4782 64.0165 58.7798C64.0165 57.4994 62.9689 56.4518 61.6885 56.4518C60.9901 56.4518 60.5246 55.9863 60.5246 55.2879C60.5246 54.5895 60.059 54.1239 59.3606 54.1239C58.6622 54.1239 58.1967 54.5895 58.1967 55.2879C58.1967 55.9863 57.6147 56.4518 56.9163 56.4518C56.3342 56.4518 55.8687 57.0338 55.8687 57.6157C55.8687 58.3141 56.3342 58.7797 57.0326 58.7797C57.731 58.7797 58.1966 59.2452 58.1966 59.9436C58.1966 60.642 57.7306 61.1078 57.0322 61.1078Z" fill="#FFE100"/>
<path d="M19.7841 69.2563C17.8053 69.2563 16.2921 67.7431 16.2921 65.7643C16.2921 64.1347 17.3397 62.8543 18.7365 62.3887C19.2021 60.9919 20.4825 59.9443 22.1121 59.9443C23.6252 59.9443 25.0222 60.9919 25.4877 62.3887C26.5353 62.6215 27.5829 63.3199 28.1649 64.1347C28.747 63.6691 29.4454 63.4363 30.2601 63.4363C32.2389 63.4363 33.7521 64.9494 33.7521 66.9282C33.7521 67.6266 33.2865 68.0922 32.5881 68.0922C31.8897 68.0922 31.4242 67.6266 31.4242 66.9282C31.4242 66.2299 30.9586 65.7643 30.2602 65.7643C29.5618 65.7643 29.0963 66.2299 29.0963 66.9282C29.0963 67.6266 28.6308 68.0922 27.9324 68.0922C27.234 68.0922 26.7684 67.6266 26.7684 66.9282C26.7684 65.6478 25.7208 64.6002 24.4404 64.6002C23.742 64.6002 23.2765 64.1347 23.2765 63.4363C23.2765 62.7379 22.8109 62.2724 22.1125 62.2724C21.4141 62.2724 20.9486 62.7379 20.9486 63.4363C20.9486 64.1347 20.3666 64.6002 19.6682 64.6002C19.0861 64.6002 18.6206 65.1823 18.6206 65.7642C18.6206 66.4626 19.0861 66.9281 19.7845 66.9281C20.4829 66.9281 20.9485 67.3937 20.9485 68.092C20.948 68.7907 20.4825 69.2563 19.7841 69.2563Z" fill="#FFE100"/>
<path d="M1.16028 51.7955L16.2922 26.1875L30.2603 51.7955" fill="#FFE100"/>
<path d="M45.3922 21.5322L41.0855 28.9818L47.371 39.5743L51.5615 32.0082L45.3922 21.5322Z" fill="#FFE100"/>
<path d="M68.6723 51.7955L54.7043 26.1875L43.9955 45.8591" fill="#FFE100"/>
<path d="M33.7521 16.876L21.9956 36.5476L30.2601 51.7959H31.7733L39.572 37.8278L43.9952 45.8595L47.3708 39.574L33.7521 16.876Z" fill="#FFE100"/>
<path d="M27.932 58.7801L39.5719 37.8281L51.212 58.7801" fill="#FFE100"/>
<path d="M30.2602 52.9595C29.7946 52.9595 29.4454 52.7266 29.2126 52.3775L16.2922 28.5154L2.20775 52.3776C1.85855 52.9596 1.16016 53.076 0.578122 52.8431C-0.00391661 52.4939 -0.120269 51.7956 0.112574 51.2135L15.2446 25.6055C15.4775 25.2563 15.8267 25.0234 16.2922 25.0234C16.7577 25.0234 17.1069 25.2563 17.3398 25.6055L31.3077 51.2135C31.6569 51.7956 31.4241 52.4939 30.8422 52.8431C30.6094 52.9595 30.4929 52.9595 30.2602 52.9595Z" fill="black"/>
<path d="M47.371 40.7381C46.9055 40.7381 46.5563 40.5053 46.3234 40.1561L39.9214 29.5637C39.6886 29.2145 39.6886 28.749 39.9214 28.3998L44.2283 20.9502C44.4611 20.601 44.8103 20.3682 45.2759 20.3682C45.7414 20.3682 46.0906 20.601 46.3234 20.9502L52.4926 31.4262C52.7255 31.7754 52.7255 32.2409 52.4926 32.5901L48.4186 40.1561C48.1859 40.5053 47.8367 40.7381 47.371 40.7381ZM42.3659 28.9817L47.3712 37.246L50.1647 32.0081L45.3923 23.8601L42.3659 28.9817Z" fill="black"/>
<path d="M68.6719 52.9598C68.2064 52.9598 67.8572 52.7269 67.6243 52.3777L54.7039 28.6322L45.0427 46.3249C44.6935 46.907 43.9951 47.1397 43.4131 46.7905C42.831 46.4413 42.5983 45.7429 42.9475 45.1608L53.6564 25.4893C53.8892 25.1401 54.2384 24.9072 54.7039 24.9072C55.1695 24.9072 55.5187 25.1401 55.7515 25.4893L69.7195 51.0973C70.0687 51.6793 69.8358 52.3777 69.2539 52.7269C69.0211 52.9598 68.9047 52.9598 68.6719 52.9598Z" fill="black"/>
<path d="M24.4402 56.4517C23.7418 56.4517 23.2762 55.9861 23.2762 55.2878C23.2762 54.5894 22.8107 54.1238 22.1123 54.1238C21.4139 54.1238 20.9484 54.5894 20.9484 55.2878C20.9484 55.9861 20.4828 56.4517 19.7844 56.4517C19.086 56.4517 18.6205 55.9861 18.6205 55.2878C18.6205 54.0073 17.5729 52.9597 16.2925 52.9597C15.5941 52.9597 15.1285 52.4942 15.1285 51.7958C15.1285 51.0974 14.663 50.6319 13.9646 50.6319C13.2662 50.6319 12.8007 51.0974 12.8007 51.7958C12.8007 52.4942 12.3351 52.9597 11.6367 52.9597H9.30815C8.02772 52.9597 6.98013 54.0073 6.98013 55.2878C6.98013 55.9861 6.51458 56.4517 5.81619 56.4517C5.1178 56.4517 4.65225 55.9861 4.65225 55.2878C4.65225 52.7269 6.74743 50.6317 9.30829 50.6317H10.7051C11.1706 49.2349 12.451 48.3037 13.9643 48.3037C15.4776 48.3037 16.8744 49.3513 17.3399 50.7481C18.3875 50.9809 19.4351 51.6793 20.0171 52.4941C20.5992 52.0285 21.2976 51.7957 22.1123 51.7957C24.0911 51.7957 25.6043 53.3088 25.6043 55.2876C25.6041 55.986 25.1386 56.4517 24.4402 56.4517Z" fill="black"/>
<path d="M59.36 69.2554C58.6617 69.2554 58.1961 68.7899 58.1961 68.0915C58.1961 67.3931 57.7306 66.9275 57.0322 66.9275C56.3338 66.9275 55.8682 67.3931 55.8682 68.0915C55.8682 68.7899 55.4027 69.2554 54.7043 69.2554C54.0059 69.2554 53.5403 68.7899 53.5403 68.0915C53.5403 66.811 52.4928 65.7635 51.2123 65.7635C50.5139 65.7635 50.0484 65.2979 50.0484 64.5995C50.0484 63.9011 49.5828 63.4356 48.8845 63.4356C48.1861 63.4356 47.7205 63.9011 47.7205 64.5995C47.7205 65.2979 47.255 65.7635 46.5566 65.7635H44.2286C42.9481 65.7635 41.9005 66.811 41.9005 68.0915C41.9005 68.7899 41.435 69.2554 40.7366 69.2554C40.0382 69.2554 39.5727 68.7899 39.5727 68.0915C39.5727 65.5306 41.6678 63.4354 44.2287 63.4354H45.6255C46.091 62.0387 47.3715 61.1074 48.8847 61.1074C50.398 61.1074 51.7948 62.155 52.2603 63.5518C53.3079 63.7846 54.3555 64.483 54.9375 65.2978C55.5196 64.8322 56.218 64.5994 57.0327 64.5994C59.0115 64.5994 60.5247 66.1125 60.5247 68.0913C60.524 68.7899 60.0584 69.2554 59.36 69.2554Z" fill="black"/>
<path d="M31.7735 52.9599H30.2603C29.7948 52.9599 29.4456 52.7271 29.2127 52.3779L20.9484 37.1295C20.7156 36.7803 20.7156 36.3147 20.9484 35.9655L32.7048 16.294C32.9377 15.9448 33.2869 15.7119 33.7524 15.7119C34.218 15.7119 34.5672 15.9448 34.8 16.294L48.4188 38.9919C48.6516 39.3411 48.6516 39.8067 48.4188 40.1559L45.0432 46.3251C44.8103 46.6742 44.4611 46.9071 43.9956 46.9071C43.53 46.9071 43.1808 46.6742 42.948 46.3251L39.5724 40.2722L32.8212 52.3779C32.5883 52.7272 32.2392 52.9599 31.7735 52.9599ZM30.9587 50.6319H31.1916L38.6412 37.2458C38.874 36.8966 39.2232 36.6638 39.6887 36.6638C40.1543 36.6638 40.5035 36.8966 40.7363 37.2458L44.1119 43.415L46.2071 39.6902L33.7523 19.0874L23.2763 36.5476L30.9587 50.6319Z" fill="black"/>
<path d="M55.8681 59.9438C53.8893 59.9438 52.3762 58.4306 52.3762 56.4518C52.3762 54.8222 53.4238 53.5417 54.8206 53.0762C55.2861 51.6794 56.5665 50.6318 58.1962 50.6318C59.7093 50.6318 61.1062 51.6794 61.5718 53.0762C62.6194 53.309 63.6669 54.0074 64.249 54.8222C64.831 54.3566 65.5294 54.1238 66.3442 54.1238C68.323 54.1238 69.8361 55.6369 69.8361 57.6157C69.8361 58.3141 69.3706 58.7797 68.6722 58.7797C67.9738 58.7797 67.5082 58.3141 67.5082 57.6157C67.5082 56.9174 67.0427 56.4518 66.3443 56.4518C65.6459 56.4518 65.1804 56.9174 65.1804 57.6157C65.1804 58.3141 64.7148 58.7797 64.0164 58.7797C63.318 58.7797 62.8525 58.3141 62.8525 57.6157C62.8525 56.3353 61.8049 55.2877 60.5245 55.2877C59.8261 55.2877 59.3605 54.8222 59.3605 54.1238C59.3605 53.4254 58.895 52.9599 58.1966 52.9599C57.4982 52.9599 57.0326 53.4254 57.0326 54.1238C57.0326 54.8222 56.4506 55.2877 55.7522 55.2877C55.1702 55.2877 54.7046 55.8698 54.7046 56.4517C54.7046 57.1501 55.1702 57.6156 55.8686 57.6156C56.567 57.6156 57.0325 58.0812 57.0325 58.7795C57.0322 59.4782 56.5667 59.9438 55.8681 59.9438Z" fill="black"/>
<path d="M18.62 68.0922C16.6412 68.0922 15.1281 66.5791 15.1281 64.6002C15.1281 62.9706 16.1757 61.6902 17.5725 61.2246C18.038 59.8279 19.3184 58.7803 20.9481 58.7803C22.4612 58.7803 23.8581 59.8279 24.3237 61.2246C25.3712 61.4575 26.4188 62.1559 27.0009 62.9706C27.5829 62.5051 28.2813 62.2722 29.096 62.2722C31.0749 62.2722 32.588 63.7854 32.588 65.7642C32.588 66.4626 32.1224 66.9281 31.4241 66.9281C30.7257 66.9281 30.2601 66.4626 30.2601 65.7642C30.2601 65.0658 29.7946 64.6002 29.0962 64.6002C28.3978 64.6002 27.9322 65.0658 27.9322 65.7642C27.9322 66.4626 27.4667 66.9281 26.7683 66.9281C26.0699 66.9281 25.6044 66.4626 25.6044 65.7642C25.6044 64.4838 24.5568 63.4362 23.2763 63.4362C22.578 63.4362 22.1124 62.9706 22.1124 62.2722C22.1124 61.5738 21.6469 61.1083 20.9485 61.1083C20.2501 61.1083 19.7845 61.5738 19.7845 62.2722C19.7845 62.9706 19.2025 63.4362 18.5041 63.4362C17.9221 63.4362 17.4565 64.0182 17.4565 64.6001C17.4565 65.2985 17.9221 65.764 18.6205 65.764C19.3188 65.764 19.7844 66.2296 19.7844 66.928C19.7844 67.6264 19.3184 68.0922 18.62 68.0922Z" fill="black"/>
<path d="M16.2919 41.3197C15.9427 41.3197 15.5935 41.0869 15.3607 40.8542L14.6623 39.9229C13.731 38.5261 12.3343 37.4786 10.7046 36.8965L10.3554 36.6637C10.0062 36.5473 9.77341 36.3145 9.65705 35.9653C9.5407 35.6161 9.5407 35.2669 9.77341 34.9177L15.3607 25.4893C15.5935 25.1401 15.9427 24.9072 16.4083 24.9072C16.8738 24.9072 17.223 25.1401 17.4558 25.4893L22.6938 35.034C22.8101 35.3832 22.9266 35.7324 22.8101 35.9653C22.6938 36.3145 22.4609 36.5473 22.1117 36.6637C20.4821 37.2457 19.0853 38.2933 18.1541 39.6901L17.4557 40.6213C16.9904 41.0869 16.6411 41.3197 16.2919 41.3197ZM12.4508 35.034C13.9639 35.7324 15.2443 36.78 16.2919 38.1768C17.2231 36.8964 18.5036 35.9651 19.9004 35.2667L16.2919 28.5155L12.4508 35.034Z" fill="black"/>
<path d="M54.7042 40.1554C54.355 40.1554 54.0058 39.9225 53.7729 39.6898L52.8417 38.2931C52.1433 37.2455 50.9792 36.3142 49.699 35.965C49.3498 35.8487 49.1169 35.6159 49.0006 35.2667C48.8842 34.9175 48.8842 34.5683 49.1169 34.3354L53.7729 25.8382C54.1221 25.1399 55.4026 25.1399 55.8681 25.8382L60.5242 34.3354C60.6405 34.6846 60.757 35.0338 60.6405 35.2667C60.5242 35.4995 60.2913 35.8487 59.9421 35.965C58.6617 36.4306 57.6141 37.2455 56.7994 38.2931L55.8681 39.6898C55.4026 39.9227 55.0534 40.1554 54.7042 40.1554ZM51.6778 34.2191C52.8417 34.9175 53.8894 35.8487 54.7042 36.8963C55.5189 35.7323 56.5665 34.8011 57.7306 34.2191L54.7042 28.6318L51.6778 34.2191Z" fill="black"/>
<path d="M39.5721 50.6315C39.2229 50.6315 38.8737 50.3987 38.6409 50.166L37.3604 48.3035C36.7784 47.3723 35.9637 46.6739 35.0324 46.2083C34.7996 46.092 34.5669 45.8591 34.4504 45.5099C34.334 45.1608 34.334 44.9279 34.5667 44.5787L38.6407 37.2455C39.1063 36.5471 40.2704 36.5471 40.6196 37.2455L44.6936 44.5787C44.8099 44.8116 44.9264 45.1608 44.8099 45.5099C44.6936 45.8591 44.4607 46.092 44.2279 46.2083C43.2966 46.6739 42.4819 47.3723 41.8998 48.3035L40.6194 50.166C40.2705 50.3988 39.9213 50.6315 39.5721 50.6315ZM37.1277 44.6952C37.9425 45.2772 38.7574 46.092 39.3394 46.9069L39.6886 47.3724L40.0378 46.9069C40.6198 45.9756 41.3182 45.2772 42.2495 44.6952L39.5722 40.272L37.1277 44.6952Z" fill="black"/>
<path d="M45.3922 29.6802C43.8791 29.6802 42.3658 29.0982 41.3182 27.9343C40.969 27.5851 40.8527 27.003 41.0854 26.5375L44.3446 20.9502C44.5774 20.601 44.9266 20.3682 45.3922 20.3682C45.8577 20.3682 46.2069 20.601 46.4398 20.9502L49.699 26.5375C49.9319 27.003 49.9319 27.5851 49.4662 27.9343C48.4186 29.0983 46.9055 29.6802 45.3922 29.6802ZM43.6462 26.8867C44.6938 27.4687 46.0906 27.4687 47.1382 26.8867L45.3922 23.8603L43.6462 26.8867Z" fill="black"/>
<path d="M33.7522 34.336C33.4031 34.336 33.0539 34.2196 32.821 33.8704L31.1914 31.7753C30.1438 30.3785 28.6305 29.3309 26.8845 28.9817C26.5354 28.8653 26.1862 28.6325 26.0698 28.2833C25.9535 27.9341 25.9535 27.5849 26.1862 27.2357L32.7045 16.4105C33.1701 15.7121 34.3341 15.7121 34.6833 16.4105L41.2017 27.2357C41.4346 27.5849 41.4346 27.9341 41.3181 28.2833C41.2017 28.6325 40.8525 28.8653 40.5033 28.9817C38.7573 29.4472 37.2441 30.3785 36.1965 31.7753L34.5669 33.8704C34.4506 34.2196 34.1014 34.336 33.7522 34.336ZM28.9799 27.1192C30.6095 27.8176 32.0063 28.8652 33.0539 30.3785L33.7522 31.3097L34.4506 30.3785C35.4982 28.9817 36.895 27.8176 38.5246 27.1192L33.7522 19.0876L28.9799 27.1192Z" fill="black"/>
<path d="M51.2121 59.9436C50.7466 59.9436 50.3974 59.7108 50.1645 59.3616L39.5722 40.272L28.9798 59.3616C28.6306 59.9436 27.9322 60.1763 27.3502 59.8271C26.7681 59.4779 26.5354 58.7795 26.8846 58.1975L38.5246 37.2455C38.9901 36.5471 40.1542 36.5471 40.5034 37.2455L52.1433 58.1975C52.4925 58.7795 52.2597 59.4779 51.6778 59.8271C51.5613 59.9436 51.4448 59.9436 51.2121 59.9436Z" fill="black"/>
</g>
<defs>
<clipPath id="clip0">
<rect width="71" height="71" fill="white"/>
</clipPath>
</defs>
</svg>
