<svg width="62" height="62" viewBox="0 0 62 62" fill="none" xmlns="http://www.w3.org/2000/svg">
<path d="M48.4375 49.4062H31V33.9062H48.4375V49.4062Z" fill="#F0BC5E"/>
<path d="M36.8125 20.3438H19.375V6.78125H36.8125V20.3438Z" fill="#F0BC5E"/>
<path d="M38.75 10.6562V22.2812H19.375V34.875H29.0625V31.9688H48.4375V10.6562H38.75Z" fill="#F0BC5E"/>
<path d="M59.3873 4.84375L56.2592 2.759C54.5038 1.58778 52.4588 0.96875 50.3488 0.96875H38.75C37.6815 0.96875 36.8125 1.83772 36.8125 2.90625H15.5V37.7812H11.6512C9.54025 37.7812 7.49619 38.4003 5.73984 39.5715L2.61272 41.6562H0.96875V58.125H2.67762L6.6495 60.1109C7.85269 60.7125 9.20216 61.0312 10.5487 61.0312H29.0625C30.6648 61.0312 31.9688 59.7273 31.9688 58.125C31.9688 57.7423 31.8903 57.3791 31.7556 57.0439C32.9908 56.7087 33.9062 55.5898 33.9062 54.25C33.9062 53.909 33.8365 53.5854 33.728 53.2812H52.3125V23.2074C53.3675 23.1018 54.4031 22.8034 55.3515 22.3297L59.3233 20.3438H61.0312V4.84375H59.3873ZM31.9688 54.25C31.9688 54.7838 31.5347 55.2188 31 55.2188H29.0625H19.375V57.1562H29.0625C29.5972 57.1562 30.0312 57.5912 30.0312 58.125C30.0312 58.6588 29.5972 59.0938 29.0625 59.0938H10.5487C9.5015 59.0938 8.45234 58.8467 7.51556 58.3778L3.13488 56.1875H2.90625V43.5938H3.19978L6.81516 41.1835C8.25278 40.2254 9.92484 39.7188 11.6512 39.7188H23.25C23.25 41.3211 21.9461 42.625 20.3438 42.625H16.0677L14.5807 44.112C13.6642 45.0275 12.4484 45.5312 11.1552 45.5312H10.6562V47.4688H11.1552C12.7623 47.4688 14.2823 46.9107 15.5 45.8907V53.2812H19.375H31C31.5347 53.2812 31.9688 53.7162 31.9688 54.25ZM50.375 51.3438H31H19.375H17.4375V44.5625H20.3438C23.0146 44.5625 25.1875 42.3896 25.1875 39.7188C25.1875 38.6502 24.3185 37.7812 23.25 37.7812H17.4375V4.84375H37.2233C37.9731 6.55166 39.6752 7.75 41.6562 7.75H44.1614L45.6485 9.238C46.563 10.1525 47.7797 10.6562 49.074 10.6562H50.375V51.3438ZM59.0938 18.4062H58.8651L54.4854 20.5966C53.8063 20.9366 53.0672 21.1604 52.3135 21.2573V8.71875H49.0749C48.298 8.71875 47.5676 8.4165 47.0192 7.86819L44.9636 5.8125H41.6562C40.0539 5.8125 38.75 4.50856 38.75 2.90625H50.3488C52.0752 2.90625 53.7482 3.41291 55.1848 4.371L58.8002 6.78125H59.0938V18.4062Z" fill="black"/>
<path d="M37.7816 43.1925L36.529 41.9399L35.1592 43.3098L37.7816 45.9322L45.2477 38.466L43.8779 37.0962L37.7816 43.1925Z" fill="black"/>
<path d="M19.375 47.4688H29.0625V49.4062H19.375V47.4688Z" fill="black"/>
<path d="M27.125 39.7188H29.0625V41.6562H27.125V39.7188Z" fill="black"/>
<path d="M27.125 43.5938H29.0625V45.5312H27.125V43.5938Z" fill="black"/>
<path d="M38.75 18.4062H48.4375V20.3438H38.75V18.4062Z" fill="black"/>
<path d="M38.75 14.5312H48.4375V16.4688H38.75V14.5312Z" fill="black"/>
<path d="M38.75 10.6562H40.6875V12.5938H38.75V10.6562Z" fill="black"/>
<path d="M42.625 10.6562H48.4375V12.5938H42.625V10.6562Z" fill="black"/>
<path d="M19.375 22.2812H21.3125V24.2188H19.375V22.2812Z" fill="black"/>
<path d="M23.25 22.2812H48.4375V24.2188H23.25V22.2812Z" fill="black"/>
<path d="M19.375 26.1562H48.4375V28.0938H19.375V26.1562Z" fill="black"/>
<path d="M19.375 30.0312H21.3125V31.9688H19.375V30.0312Z" fill="black"/>
<path d="M27.125 30.0312H29.0625V31.9688H27.125V30.0312Z" fill="black"/>
<path d="M23.25 30.0312H25.1875V31.9688H23.25V30.0312Z" fill="black"/>
<path d="M31 30.0312H48.4375V31.9688H31V30.0312Z" fill="black"/>
<path d="M19.375 33.9062H29.0625V35.8438H19.375V33.9062Z" fill="black"/>
</svg>
