<svg width="127" height="42" viewBox="0 0 127 42" fill="none" xmlns="http://www.w3.org/2000/svg">
<path d="M20.6943 23H14.9229L5.60645 6.79883H5.47461C5.66016 9.66016 5.75293 11.7012 5.75293 12.9219V23H1.69531V1.58398H7.42285L16.7246 17.624H16.8271C16.6807 14.8408 16.6074 12.873 16.6074 11.7207V1.58398H20.6943V23ZM24.2979 16.7891V13.127H32.1641V16.7891H24.2979ZM52.9941 23H47.8379L42.2275 13.9766L40.3086 15.3535V23H35.7676V1.58398H40.3086V11.3838L42.0957 8.86426L47.8965 1.58398H52.9355L45.4648 11.0615L52.9941 23ZM65.7383 23L64.874 20.7734H64.7568C64.0049 21.7207 63.2285 22.3799 62.4277 22.751C61.6367 23.1123 60.6016 23.293 59.3223 23.293C57.75 23.293 56.5098 22.8438 55.6016 21.9453C54.7031 21.0469 54.2539 19.7676 54.2539 18.1074C54.2539 16.3691 54.8594 15.0898 56.0703 14.2695C57.291 13.4395 59.127 12.9805 61.5781 12.8926L64.4199 12.8047V12.0869C64.4199 10.4268 63.5703 9.59668 61.8711 9.59668C60.5625 9.59668 59.0244 9.99219 57.2568 10.7832L55.7773 7.76562C57.6621 6.7793 59.752 6.28613 62.0469 6.28613C64.2441 6.28613 65.9287 6.76465 67.1006 7.72168C68.2725 8.67871 68.8584 10.1338 68.8584 12.0869V23H65.7383ZM64.4199 15.4121L62.6914 15.4707C61.3926 15.5098 60.4258 15.7441 59.791 16.1738C59.1562 16.6035 58.8389 17.2578 58.8389 18.1367C58.8389 19.3965 59.5615 20.0264 61.0068 20.0264C62.042 20.0264 62.8672 19.7285 63.4824 19.1328C64.1074 18.5371 64.4199 17.7461 64.4199 16.7598V15.4121ZM82.584 6.31543C84.5176 6.31543 86.0312 7.07227 87.125 8.58594C88.2188 10.0898 88.7656 12.1553 88.7656 14.7822C88.7656 17.4873 88.1992 19.582 87.0664 21.0664C85.9434 22.5508 84.4102 23.293 82.4668 23.293C80.543 23.293 79.0342 22.5947 77.9404 21.1982H77.6328L76.8857 23H73.4727V0.207031H77.9404V5.50977C77.9404 6.18359 77.8818 7.2627 77.7646 8.74707H77.9404C78.9854 7.12598 80.5332 6.31543 82.584 6.31543ZM81.1484 9.88965C80.0449 9.88965 79.2393 10.2314 78.7314 10.915C78.2236 11.5889 77.96 12.707 77.9404 14.2695V14.7529C77.9404 16.5107 78.1992 17.7705 78.7168 18.5322C79.2441 19.2939 80.0742 19.6748 81.207 19.6748C82.125 19.6748 82.8525 19.2549 83.3896 18.415C83.9365 17.5654 84.21 16.335 84.21 14.7236C84.21 13.1123 83.9365 11.9062 83.3896 11.1055C82.8428 10.2949 82.0957 9.88965 81.1484 9.88965ZM99.2393 9.49414C98.292 9.49414 97.5498 9.79688 97.0127 10.4023C96.4756 10.998 96.168 11.8477 96.0898 12.9512H102.359C102.34 11.8477 102.052 10.998 101.495 10.4023C100.938 9.79688 100.187 9.49414 99.2393 9.49414ZM99.8691 23.293C97.2324 23.293 95.1719 22.5654 93.6875 21.1104C92.2031 19.6553 91.4609 17.5947 91.4609 14.9287C91.4609 12.1846 92.1445 10.0654 93.5117 8.57129C94.8887 7.06738 96.7881 6.31543 99.21 6.31543C101.524 6.31543 103.326 6.97461 104.615 8.29297C105.904 9.61133 106.549 11.4326 106.549 13.7568V15.9248H95.9873C96.0361 17.1943 96.4121 18.1855 97.1152 18.8984C97.8184 19.6113 98.8047 19.9678 100.074 19.9678C101.061 19.9678 101.993 19.8652 102.872 19.6602C103.751 19.4551 104.669 19.1279 105.626 18.6787V22.1357C104.845 22.5264 104.01 22.8145 103.121 23C102.232 23.1953 101.148 23.293 99.8691 23.293ZM114.649 23H110.182V0.207031H114.649V23ZM6.3418 39H5.13477L1.17383 34.6582V39H0.177734V30.4336H1.17383V34.582L5.03516 30.4336H6.17773L2.38672 34.5938L6.3418 39ZM11.3281 39L11.1348 38.0859H11.0879C10.7676 38.4883 10.4473 38.7617 10.127 38.9062C9.81055 39.0469 9.41406 39.1172 8.9375 39.1172C8.30078 39.1172 7.80078 38.9531 7.4375 38.625C7.07812 38.2969 6.89844 37.8301 6.89844 37.2246C6.89844 35.9277 7.93555 35.248 10.0098 35.1855L11.0996 35.1504V34.752C11.0996 34.248 10.9902 33.877 10.7715 33.6387C10.5566 33.3965 10.2109 33.2754 9.73438 33.2754C9.19922 33.2754 8.59375 33.4395 7.91797 33.7676L7.61914 33.0234C7.93555 32.8516 8.28125 32.7168 8.65625 32.6191C9.03516 32.5215 9.41406 32.4727 9.79297 32.4727C10.5586 32.4727 11.125 32.6426 11.4922 32.9824C11.8633 33.3223 12.0488 33.8672 12.0488 34.6172V39H11.3281ZM9.13086 38.3145C9.73633 38.3145 10.2109 38.1484 10.5547 37.8164C10.9023 37.4844 11.0762 37.0195 11.0762 36.4219V35.8418L10.1035 35.8828C9.33008 35.9102 8.77148 36.0312 8.42773 36.2461C8.08789 36.457 7.91797 36.7871 7.91797 37.2363C7.91797 37.5879 8.02344 37.8555 8.23438 38.0391C8.44922 38.2227 8.74805 38.3145 9.13086 38.3145ZM13.7246 35.1504C13.7246 33.7441 13.9316 32.6484 14.3457 31.8633C14.7598 31.0742 15.416 30.582 16.3145 30.3867C17.4316 30.1484 18.416 29.9551 19.2676 29.8066L19.4492 30.6621C18.0938 30.8887 17.125 31.0684 16.543 31.2012C15.9766 31.3301 15.5508 31.6348 15.2656 32.1152C14.9844 32.5957 14.8301 33.25 14.8027 34.0781H14.873C15.1152 33.75 15.4277 33.4922 15.8105 33.3047C16.1934 33.1172 16.5938 33.0234 17.0117 33.0234C17.8008 33.0234 18.416 33.2793 18.8574 33.791C19.2988 34.3027 19.5195 35.0117 19.5195 35.918C19.5195 36.9219 19.2637 37.707 18.752 38.2734C18.2402 38.8359 17.5273 39.1172 16.6133 39.1172C15.7109 39.1172 15.0039 38.7715 14.4922 38.0801C13.9805 37.3887 13.7246 36.4121 13.7246 35.1504ZM16.7012 38.3027C17.8926 38.3027 18.4883 37.543 18.4883 36.0234C18.4883 34.5742 17.9473 33.8496 16.8652 33.8496C16.5684 33.8496 16.2812 33.9121 16.0039 34.0371C15.7305 34.1582 15.4785 34.3203 15.248 34.5234C15.0215 34.7266 14.8457 34.9355 14.7207 35.1504C14.7207 36.1777 14.8828 36.9609 15.207 37.5C15.5312 38.0352 16.0293 38.3027 16.7012 38.3027ZM23.9316 39.1172C22.9824 39.1172 22.2324 38.8281 21.6816 38.25C21.1348 37.6719 20.8613 36.8691 20.8613 35.8418C20.8613 34.8066 21.1152 33.9844 21.623 33.375C22.1348 32.7656 22.8203 32.4609 23.6797 32.4609C24.4844 32.4609 25.1211 32.7266 25.5898 33.2578C26.0586 33.7852 26.293 34.4824 26.293 35.3496V35.9648H21.8691C21.8887 36.7188 22.0781 37.291 22.4375 37.6816C22.8008 38.0723 23.3105 38.2676 23.9668 38.2676C24.6582 38.2676 25.3418 38.123 26.0176 37.834V38.7012C25.6738 38.8496 25.3477 38.9551 25.0391 39.0176C24.7344 39.084 24.3652 39.1172 23.9316 39.1172ZM23.668 33.2754C23.1523 33.2754 22.7402 33.4434 22.4316 33.7793C22.127 34.1152 21.9473 34.5801 21.8926 35.1738H25.25C25.25 34.5605 25.1133 34.0918 24.8398 33.7676C24.5664 33.4395 24.1758 33.2754 23.668 33.2754ZM32.7441 39H31.7598V33.4102H29.832C29.7266 34.8008 29.5801 35.9043 29.3926 36.7207C29.2051 37.5371 28.9609 38.1348 28.6602 38.5137C28.3633 38.8926 27.9844 39.082 27.5234 39.082C27.3125 39.082 27.1445 39.0586 27.0195 39.0117V38.291C27.1055 38.3145 27.2031 38.3262 27.3125 38.3262C27.7617 38.3262 28.1191 37.8516 28.3848 36.9023C28.6504 35.9531 28.8516 34.5117 28.9883 32.5781H32.7441V39ZM35.7852 35.2324H37.7656C39.4062 35.2324 40.2266 35.8359 40.2266 37.043C40.2266 37.6758 40.0117 38.1602 39.582 38.4961C39.1562 38.832 38.5312 39 37.707 39H34.8125V32.5781H35.7852V35.2324ZM35.7852 36.0703V38.1855H37.6602C38.1758 38.1855 38.5703 38.0957 38.8438 37.916C39.1172 37.7363 39.2539 37.4648 39.2539 37.1016C39.2539 36.7461 39.127 36.4863 38.873 36.3223C38.623 36.1543 38.209 36.0703 37.6309 36.0703H35.7852ZM42.8867 32.5781V35.2676H46.4844V32.5781H47.457V39H46.4844V36.1055H42.8867V39H41.9141V32.5781H42.8867ZM53.4688 39L53.2754 38.0859H53.2285C52.9082 38.4883 52.5879 38.7617 52.2676 38.9062C51.9512 39.0469 51.5547 39.1172 51.0781 39.1172C50.4414 39.1172 49.9414 38.9531 49.5781 38.625C49.2188 38.2969 49.0391 37.8301 49.0391 37.2246C49.0391 35.9277 50.0762 35.248 52.1504 35.1855L53.2402 35.1504V34.752C53.2402 34.248 53.1309 33.877 52.9121 33.6387C52.6973 33.3965 52.3516 33.2754 51.875 33.2754C51.3398 33.2754 50.7344 33.4395 50.0586 33.7676L49.7598 33.0234C50.0762 32.8516 50.4219 32.7168 50.7969 32.6191C51.1758 32.5215 51.5547 32.4727 51.9336 32.4727C52.6992 32.4727 53.2656 32.6426 53.6328 32.9824C54.0039 33.3223 54.1895 33.8672 54.1895 34.6172V39H53.4688ZM51.2715 38.3145C51.877 38.3145 52.3516 38.1484 52.6953 37.8164C53.043 37.4844 53.2168 37.0195 53.2168 36.4219V35.8418L52.2441 35.8828C51.4707 35.9102 50.9121 36.0312 50.5684 36.2461C50.2285 36.457 50.0586 36.7871 50.0586 37.2363C50.0586 37.5879 50.1641 37.8555 50.375 38.0391C50.5898 38.2227 50.8887 38.3145 51.2715 38.3145ZM56.5215 39H55.3848L57.2305 36.2871C56.7344 36.1777 56.3535 35.9668 56.0879 35.6543C55.8262 35.3379 55.6953 34.9414 55.6953 34.4648C55.6953 33.8789 55.8926 33.418 56.2871 33.082C56.6816 32.7461 57.2324 32.5781 57.9395 32.5781H60.7988V39H59.8262V36.4336H58.2031L56.5215 39ZM56.6445 34.4766C56.6445 35.2188 57.1836 35.5898 58.2617 35.5898H59.8262V33.4219H58.0625C57.1172 33.4219 56.6445 33.7734 56.6445 34.4766ZM66.957 39H65.9844V32.5781H71.375V39H70.3906V33.4219H66.957V39ZM76.4258 39.1172C76.0078 39.1172 75.625 39.041 75.2773 38.8887C74.9336 38.7324 74.6445 38.4941 74.4102 38.1738H74.3398C74.3867 38.5488 74.4102 38.9043 74.4102 39.2402V41.8828H73.4375V32.5781H74.2285L74.3633 33.457H74.4102C74.6602 33.1055 74.9512 32.8516 75.2832 32.6953C75.6152 32.5391 75.9961 32.4609 76.4258 32.4609C77.2773 32.4609 77.9336 32.752 78.3945 33.334C78.8594 33.916 79.0918 34.7324 79.0918 35.7832C79.0918 36.8379 78.8555 37.6582 78.3828 38.2441C77.9141 38.8262 77.2617 39.1172 76.4258 39.1172ZM76.2852 33.2871C75.6289 33.2871 75.1543 33.4688 74.8613 33.832C74.5684 34.1953 74.418 34.7734 74.4102 35.5664V35.7832C74.4102 36.6855 74.5605 37.332 74.8613 37.7227C75.1621 38.1094 75.6445 38.3027 76.3086 38.3027C76.8633 38.3027 77.2969 38.0781 77.6094 37.6289C77.9258 37.1797 78.084 36.5605 78.084 35.7715C78.084 34.9707 77.9258 34.3574 77.6094 33.9316C77.2969 33.502 76.8555 33.2871 76.2852 33.2871ZM86.3398 35.7832C86.3398 36.8301 86.0762 37.6484 85.5488 38.2383C85.0215 38.8242 84.293 39.1172 83.3633 39.1172C82.7891 39.1172 82.2793 38.9824 81.834 38.7129C81.3887 38.4434 81.0449 38.0566 80.8027 37.5527C80.5605 37.0488 80.4395 36.459 80.4395 35.7832C80.4395 34.7363 80.7012 33.9219 81.2246 33.3398C81.748 32.7539 82.4746 32.4609 83.4043 32.4609C84.3027 32.4609 85.0156 32.7598 85.543 33.3574C86.0742 33.9551 86.3398 34.7637 86.3398 35.7832ZM81.4473 35.7832C81.4473 36.6035 81.6113 37.2285 81.9395 37.6582C82.2676 38.0879 82.75 38.3027 83.3867 38.3027C84.0234 38.3027 84.5059 38.0898 84.834 37.6641C85.166 37.2344 85.332 36.6074 85.332 35.7832C85.332 34.9668 85.166 34.3477 84.834 33.9258C84.5059 33.5 84.0195 33.2871 83.375 33.2871C82.7383 33.2871 82.2578 33.4961 81.9336 33.9141C81.6094 34.332 81.4473 34.9551 81.4473 35.7832ZM93.6289 41.2207H92.6855V39H88.1973V41.2207H87.2598V38.1621H87.7637C88.2871 37.4512 88.6973 36.6172 88.9941 35.6602C89.291 34.7031 89.4453 33.6758 89.457 32.5781H92.709V38.1621H93.6289V41.2207ZM91.7715 38.1621V33.3457H90.3301C90.2793 34.2129 90.1113 35.0918 89.8262 35.9824C89.5449 36.8691 89.1934 37.5957 88.7715 38.1621H91.7715ZM93.8984 32.5781H94.9414L96.3477 36.2402C96.6562 37.0762 96.8477 37.6797 96.9219 38.0508H96.9688C97.0195 37.8516 97.125 37.5117 97.2852 37.0312C97.4492 36.5469 97.9805 35.0625 98.8789 32.5781H99.9219L97.1621 39.8906C96.8887 40.6133 96.5684 41.125 96.2012 41.4258C95.8379 41.7305 95.3906 41.8828 94.8594 41.8828C94.5625 41.8828 94.2695 41.8496 93.9805 41.7832V41.0039C94.1953 41.0508 94.4355 41.0742 94.7012 41.0742C95.3691 41.0742 95.8457 40.6992 96.1309 39.9492L96.4883 39.0352L93.8984 32.5781ZM104.709 32.5781H105.775L103.004 35.6777L106.004 39H104.867L101.938 35.748V39H100.965V32.5781H101.938V35.7012L104.709 32.5781ZM113.463 41.2207H112.49V39H107.199V32.5781H108.172V38.1621H111.582V32.5781H112.555V38.1621H113.463V41.2207ZM115.625 32.5781V36.6504L115.584 37.7168L115.566 38.0508L119.041 32.5781H120.254V39H119.346V35.0742L119.363 34.3008L119.393 33.5391L115.924 39H114.711V32.5781H115.625ZM122.639 39H121.502L123.348 36.2871C122.852 36.1777 122.471 35.9668 122.205 35.6543C121.943 35.3379 121.812 34.9414 121.812 34.4648C121.812 33.8789 122.01 33.418 122.404 33.082C122.799 32.7461 123.35 32.5781 124.057 32.5781H126.916V39H125.943V36.4336H124.32L122.639 39ZM122.762 34.4766C122.762 35.2188 123.301 35.5898 124.379 35.5898H125.943V33.4219H124.18C123.234 33.4219 122.762 33.7734 122.762 34.4766Z" fill="black"/>
</svg>
