<svg xmlns="http://www.w3.org/2000/svg" xmlns:xlink="http://www.w3.org/1999/xlink"><defs>
<clipPath id="clip0">
<rect width="11" height="11" fill="white"/>
</clipPath>
</defs><symbol id="icon-check" viewBox="0 0 11 10">
<path d="M10.7294 1.05954C10.5168 0.832043 10.1721 0.832043 9.95941 1.05954L3.43663 8.03832L0.929382 5.35582C0.716773 5.12832 0.372072 5.12835 0.15942 5.35582C-0.0532111 5.58329 -0.0532111 5.95208 0.15942 6.17958L3.05165 9.27393C3.2642 9.5014 3.60915 9.50124 3.82161 9.27393L10.7294 1.88332C10.942 1.65585 10.942 1.28703 10.7294 1.05954Z" fill="#00FF47"/>
</symbol><symbol id="icon-mail" viewBox="0 0 13 12">
<path d="M11.8574 0.667969H1.14258C0.513348 0.667969 0 1.2202 0 1.89844V10.1016C0 10.7775 0.511063 11.332 1.14258 11.332H11.8574C12.4851 11.332 13 10.7817 13 10.1016V1.89844C13 1.2225 12.4889 0.667969 11.8574 0.667969ZM11.6996 1.48828L6.52422 7.06184L1.30404 1.48828H11.6996ZM0.761719 9.9317V2.06439L4.43013 5.98111L0.761719 9.9317ZM1.30033 10.5117L4.97105 6.55863L6.25727 7.93189C6.40616 8.09087 6.64643 8.09035 6.79471 7.93063L8.04883 6.58004L11.6997 10.5117H1.30033ZM12.2383 9.93167L8.58744 6L12.2383 2.0683V9.93167Z" fill="#A0A0A0"/>
</symbol><symbol id="icon-phone" viewBox="0 0 11 11">
<g clip-path="url(#clip0)">
<path d="M10.1174 7.22024C9.4439 7.22024 8.78264 7.11491 8.15601 6.90783C7.8436 6.80129 7.48791 6.88397 7.28409 7.09165L6.04725 8.02533C4.61287 7.25966 3.72931 6.37639 2.9741 4.95278L3.88031 3.74816C4.11575 3.51304 4.2002 3.16958 4.09902 2.84731C3.89105 2.21739 3.7854 1.55644 3.7854 0.882693C3.78543 0.395971 3.38946 0 2.90277 0H0.882635C0.395971 0 0 0.395971 0 0.882635C0 6.46144 4.53859 11 10.1174 11C10.6041 11 11 10.604 11 10.1173V8.10288C11 7.61621 10.604 7.22024 10.1174 7.22024ZM10.3889 10.1174C10.3889 10.2672 10.2672 10.3889 10.1174 10.3889C4.87546 10.3889 0.61113 6.12454 0.61113 0.882664C0.61113 0.732875 0.732875 0.61113 0.882664 0.61113H2.9028C3.05259 0.61113 3.17433 0.732875 3.17433 0.882664C3.17433 1.62178 3.2904 2.34718 3.51748 3.0344C3.5491 3.13586 3.52344 3.24087 3.4208 3.34772L2.37044 4.73879C2.30003 4.83218 2.28897 4.95722 2.3418 5.06135C3.19908 6.74638 4.24079 7.78809 5.93774 8.6576C6.04098 8.7116 6.1675 8.70028 6.26121 8.62956L7.68424 7.55147C7.75615 7.47957 7.86388 7.4539 7.96116 7.48702C8.65313 7.71558 9.37853 7.83137 10.1174 7.83137C10.2672 7.83137 10.3889 7.95311 10.3889 8.1029V10.1174Z" fill="#A0A0A0"/>
</g>

</symbol><symbol id="icon-search" viewBox="0 0 16 16">
<path d="M10.6843 1.83059C8.24352 -0.610195 4.27097 -0.610195 1.83019 1.83059C-0.610063 4.2719 -0.610063 8.24392 1.83019 10.6852C4.00377 12.8583 7.38901 13.0911 9.82821 11.3942C9.87953 11.6371 9.99699 11.8688 10.1859 12.0577L13.7404 15.6123C14.2584 16.1292 15.0955 16.1292 15.6108 15.6123C16.1283 15.0948 16.1283 14.2578 15.6108 13.7419L12.0563 10.1863C11.8685 9.99898 11.6362 9.88098 11.3933 9.82966C13.0912 7.38994 12.8584 4.00523 10.6843 1.83059ZM9.56206 9.56299C7.73981 11.3852 4.77415 11.3852 2.95243 9.56299C1.13124 7.74074 1.13124 4.77561 2.95243 2.95336C4.77415 1.13163 7.73981 1.13163 9.56206 2.95336C11.3843 4.77561 11.3843 7.74074 9.56206 9.56299Z" fill="white"/>
</symbol></svg>