<svg width="40" height="40" viewBox="0 0 40 40" fill="none" xmlns="http://www.w3.org/2000/svg">
<g clip-path="url(#clip0)">
<path d="M0.000207318 15.9993C0.000207326 15.8304 0.0641436 15.6615 0.19238 15.532L12.7381 2.86383C12.9963 2.60312 13.4167 2.60119 13.6773 2.85924C13.9378 3.11728 13.9398 3.53789 13.6819 3.79847L1.13645 16.4667C0.878286 16.7272 0.457799 16.7293 0.197216 16.4712C0.0659574 16.3413 0.000207311 16.1704 0.000207318 15.9993Z" fill="#FFE100"/>
<path d="M21.9643 39.1742C21.9643 39.0042 22.0292 38.8342 22.1589 38.7045L35.3711 25.4924C35.6304 25.233 36.0509 25.233 36.3103 25.4924C36.5698 25.7518 36.5697 26.1722 36.3103 26.4316L23.098 39.6439C22.8386 39.9033 22.4181 39.9033 22.1588 39.6439C22.0291 39.5141 21.9643 39.3442 21.9643 39.1742Z" fill="#FFE100"/>
<path d="M28.1044 10.4026C28.1044 10.2326 28.1693 10.0626 28.299 9.93294L35.3712 2.86152C35.6305 2.60215 36.0511 2.60215 36.3104 2.86152C36.5697 3.1209 36.5698 3.54151 36.3104 3.80076L29.2383 10.8722C28.9789 11.1315 28.5583 11.1315 28.299 10.8722C28.1692 10.7426 28.1044 10.5727 28.1044 10.4026Z" fill="#FFE100"/>
<path d="M16.7061 0.664062L16.234 5.85L11.5201 1.13543L16.7061 0.664062Z" fill="#FFE100"/>
<path d="M39.3359 23.2949L38.8644 28.4808L34.1499 23.7663L39.3359 23.2949Z" fill="#FFE100"/>
<path d="M39.3359 0.664062L38.8644 5.85L34.1499 1.13543L39.3359 0.664062Z" fill="#FFE100"/>
<path d="M20.4773 29.5239C14.9539 29.5239 10.4762 25.0459 10.4762 19.5227C10.4762 13.9994 14.9541 9.52148 20.4773 9.52148C26.0006 9.52148 30.4785 13.9994 30.4785 19.5227C30.4785 25.0459 26.0006 29.5239 20.4773 29.5239Z" fill="#FFE100"/>
<path d="M30.668 19.3333C30.668 18.9626 30.6446 18.5978 30.6054 18.2379C30.0593 23.2465 25.8201 27.145 20.6668 27.145C15.5135 27.145 11.2743 23.2465 10.7283 18.2378C10.6891 18.5978 10.6657 18.9626 10.6657 19.3332C10.6657 24.8566 15.1436 29.3344 20.6669 29.3344C26.1902 29.3344 30.668 24.8566 30.668 19.3333Z" fill="#FFA800"/>
<path d="M30.668 19.3333C30.668 19.704 30.6446 20.0688 30.6054 20.4287C30.0593 15.4201 25.8201 11.5216 20.6668 11.5216C15.5135 11.5216 11.2743 15.4201 10.7282 20.428C10.6889 20.0687 10.6656 19.7039 10.6656 19.3332C10.6656 13.8098 15.1435 9.33203 20.6668 9.33203C26.1901 9.33203 30.668 13.8098 30.668 19.3333Z" fill="white"/>
<path d="M22.3635 21.4088C21.322 22.4503 19.6332 22.4503 18.5917 21.4088C17.5502 20.3673 17.5502 18.6785 18.5917 17.6376C19.6332 16.5954 21.322 16.5954 22.3635 17.6376C23.4049 18.6785 23.4049 20.3675 22.3635 21.4088Z" fill="#63D3FD"/>
<path d="M-6.54564e-05 16.7061C-6.5449e-05 16.5362 0.0648407 16.3661 0.194407 16.2365L13.4073 3.02363C13.6667 2.76426 14.0873 2.76426 14.3466 3.02363C14.6058 3.28301 14.6058 3.7035 14.3466 3.96287L1.13365 17.1758C0.874271 17.4352 0.453662 17.4352 0.194407 17.1758C0.0647195 17.046 -6.54639e-05 16.876 -6.54564e-05 16.7061Z" fill="black"/>
<path d="M10.856 1.13582C10.856 1.06004 10.869 0.983652 10.8957 0.909803C10.9834 0.66747 11.2034 0.497897 11.46 0.47457L16.6459 0.00319866C16.8423 -0.0145684 17.0363 0.0556539 17.1757 0.195011C17.315 0.334368 17.3853 0.528839 17.3674 0.724881L16.8953 5.91082C16.8719 6.16753 16.7023 6.38738 16.4599 6.47513C16.2176 6.56288 15.9465 6.50245 15.7643 6.32018L11.0505 1.60562C10.9237 1.47871 10.856 1.3089 10.856 1.13582ZM15.9724 1.3981L12.9922 1.66895L15.701 4.37825L15.9724 1.3981Z" fill="black"/>
<path d="M22.6304 39.3355C22.6304 39.1654 22.6953 38.9955 22.8249 38.8658L36.0371 25.6535C36.2965 25.3941 36.717 25.3941 36.9764 25.6535C37.2357 25.9129 37.2357 26.3334 36.9764 26.5928L23.7642 39.8052C23.5048 40.0645 23.0843 40.0645 22.8249 39.8052C22.6951 39.6755 22.6304 39.5055 22.6304 39.3355Z" fill="black"/>
<path d="M33.486 23.7662C33.486 23.6903 33.4989 23.6141 33.5256 23.5402C33.6133 23.2979 33.8333 23.1282 34.0899 23.105L39.2758 22.6336C39.4721 22.6157 39.6662 22.6861 39.8056 22.8253C39.945 22.9648 40.0147 23.159 39.9974 23.355L39.526 28.5411C39.5027 28.7977 39.333 29.0177 39.0907 29.1054C38.8483 29.1932 38.5771 29.1329 38.395 28.9506L33.6804 24.236C33.5536 24.1092 33.486 23.9394 33.486 23.7662ZM38.6024 24.0285L35.6222 24.2994L38.3315 27.0087L38.6024 24.0285Z" fill="black"/>
<path d="M28.771 10.5653C28.771 10.3954 28.8359 10.2255 28.9655 10.0958L36.0371 3.02363C36.2965 2.76426 36.717 2.76426 36.9764 3.02363C37.2357 3.28301 37.2357 3.7035 36.9764 3.96287L29.9048 11.035C29.6455 11.2944 29.225 11.2944 28.9656 11.035C28.8359 10.9053 28.771 10.7353 28.771 10.5653Z" fill="black"/>
<path d="M33.4859 1.13594C33.4859 1.06016 33.4988 0.983772 33.5255 0.909924C33.6133 0.667591 33.8333 0.497897 34.0899 0.47457L39.2758 0.00319866C39.4721 -0.0145684 39.6662 0.0556539 39.8055 0.195011C39.9449 0.334367 40.0149 0.528597 39.9973 0.72476L39.526 5.91069C39.5027 6.16741 39.333 6.38726 39.0906 6.47501C38.8483 6.56276 38.5771 6.50245 38.3949 6.32018L33.6804 1.60562C33.5536 1.47895 33.4859 1.30902 33.4859 1.13594ZM38.6023 1.39822L35.6223 1.66907L38.3315 4.37825L38.6023 1.39822Z" fill="black"/>
<path d="M9.8118 19.5235C9.8118 16.6746 10.9212 13.9961 12.9357 11.9818C14.9501 9.96732 17.6285 8.85791 20.4773 8.85791C23.326 8.85791 26.0043 9.96732 28.0187 11.9818C30.0332 13.9962 31.1426 16.6746 31.1426 19.5235C31.1426 22.3724 30.0332 25.0506 28.0187 27.0647C26.0043 29.0791 23.326 30.1886 20.4772 30.1886C17.6286 30.1886 14.9502 29.0791 12.9357 27.0647C10.9213 25.0506 9.8118 22.3722 9.8118 19.5235ZM29.8143 19.5235C29.8143 17.0293 28.843 14.6845 27.0795 12.9209C25.3159 11.1574 22.9712 10.1861 20.4771 10.1861C17.9832 10.1861 15.6384 11.1574 13.8749 12.9209C12.1114 14.6844 11.14 17.0293 11.14 19.5235C11.14 22.0175 12.1112 24.3622 13.8748 26.1255C15.6384 27.889 17.9832 28.8604 20.4771 28.8604C22.971 28.8604 25.3158 27.8891 27.0795 26.1255C28.8431 24.362 29.8143 22.0175 29.8143 19.5235Z" fill="black"/>
<path d="M17.1464 19.5229C17.1464 18.633 17.4931 17.7967 18.1222 17.1679C18.751 16.5385 19.5877 16.1919 20.4776 16.1919C21.3675 16.1919 22.204 16.5385 22.8332 17.1682C23.4621 17.7967 23.8086 18.6332 23.8086 19.5229C23.8086 20.4126 23.4622 21.2491 22.833 21.8783C21.5342 23.1771 19.4209 23.1771 18.122 21.8783C17.4928 21.2492 17.1464 20.4127 17.1464 19.5229ZM22.4803 19.5229C22.4803 18.988 22.272 18.4853 21.8939 18.1074C21.5153 17.7286 21.0124 17.5202 20.4775 17.5202C19.9425 17.5202 19.4396 17.7286 19.0613 18.1071C18.6829 18.4853 18.4745 18.988 18.4745 19.5229C18.4745 20.0579 18.6827 20.5609 19.0612 20.9391C19.8421 21.72 21.1127 21.72 21.8936 20.9391C22.272 20.5609 22.4803 20.058 22.4803 19.5229Z" fill="black"/>
</g>
<defs>
<clipPath id="clip0">
<rect x="40" width="40" height="40" transform="rotate(90 40 0)" fill="white"/>
</clipPath>
</defs>
</svg>
