<svg width="40" height="40" viewBox="0 0 40 40" fill="none" xmlns="http://www.w3.org/2000/svg">
<path d="M20.4773 29.5239C14.9539 29.5239 10.4762 25.0459 10.4762 19.5227C10.4762 13.9994 14.9541 9.52148 20.4773 9.52148C26.0006 9.52148 30.4785 13.9994 30.4785 19.5227C30.4785 25.0459 26.0006 29.5239 20.4773 29.5239Z" fill="#FFE100"/>
<path d="M30.6685 19.3333C30.6685 18.9626 30.6451 18.5978 30.6058 18.2379C30.0598 23.2465 25.8206 27.145 20.6673 27.145C15.514 27.145 11.2748 23.2465 10.7288 18.2378C10.6896 18.5978 10.6662 18.9626 10.6662 19.3332C10.6662 24.8566 15.1441 29.3344 20.6674 29.3344C26.1907 29.3344 30.6685 24.8566 30.6685 19.3333Z" fill="#FFA800"/>
<path d="M30.6685 19.3333C30.6685 19.704 30.6451 20.0688 30.6058 20.4287C30.0598 15.4201 25.8206 11.5216 20.6673 11.5216C15.514 11.5216 11.2748 15.4201 10.7287 20.428C10.6894 20.0687 10.6661 19.7039 10.6661 19.3332C10.6661 13.8098 15.144 9.33203 20.6673 9.33203C26.1905 9.33203 30.6685 13.8098 30.6685 19.3333Z" fill="white"/>
<path d="M22.363 21.4088C21.3215 22.4503 19.6327 22.4503 18.5912 21.4088C17.5497 20.3673 17.5497 18.6785 18.5912 17.6376C19.6327 16.5954 21.3215 16.5954 22.363 17.6376C23.4044 18.6785 23.4044 20.3675 22.363 21.4088Z" fill="#63D3FD"/>
<path d="M9.81229 19.5235C9.81229 16.6746 10.9217 13.9961 12.9362 11.9818C14.9506 9.96732 17.629 8.85791 20.4777 8.85791C23.3265 8.85791 26.0048 9.96732 28.0192 11.9818C30.0337 13.9962 31.1431 16.6746 31.1431 19.5235C31.1431 22.3724 30.0337 25.0506 28.0192 27.0647C26.0048 29.0791 23.3265 30.1886 20.4777 30.1886C17.6291 30.1886 14.9507 29.0791 12.9362 27.0647C10.9218 25.0506 9.81229 22.3722 9.81229 19.5235ZM29.8148 19.5235C29.8148 17.0293 28.8435 14.6845 27.08 12.9209C25.3164 11.1574 22.9717 10.1861 20.4776 10.1861C17.9837 10.1861 15.6389 11.1574 13.8754 12.9209C12.1119 14.6844 11.1405 17.0293 11.1405 19.5235C11.1405 22.0175 12.1117 24.3622 13.8753 26.1255C15.6389 27.889 17.9837 28.8604 20.4776 28.8604C22.9715 28.8604 25.3163 27.8891 27.08 26.1255C28.8436 24.362 29.8148 22.0175 29.8148 19.5235Z" fill="black"/>
<path d="M17.1459 19.5224C17.1459 18.6325 17.4926 17.7962 18.1217 17.1674C18.7505 16.538 19.5872 16.1914 20.4771 16.1914C21.367 16.1914 22.2035 16.538 22.8327 17.1678C23.4616 17.7962 23.8081 18.6328 23.8081 19.5224C23.8081 20.4121 23.4617 21.2486 22.8325 21.8778C21.5337 23.1767 19.4204 23.1767 18.1216 21.8778C17.4923 21.2487 17.1459 20.4122 17.1459 19.5224ZM22.4798 19.5224C22.4798 18.9875 22.2716 18.4848 21.8934 18.1069C21.5148 17.7281 21.0119 17.5197 20.477 17.5197C19.942 17.5197 19.4391 17.7281 19.0608 18.1066C18.6824 18.4848 18.474 18.9875 18.474 19.5224C18.474 20.0574 18.6823 20.5604 19.0607 20.9386C19.8416 21.7195 21.1122 21.7195 21.8931 20.9386C22.2716 20.5604 22.4798 20.0575 22.4798 19.5224Z" fill="black"/>
</svg>
