<svg width="70" height="70" viewBox="0 0 70 70" fill="none" xmlns="http://www.w3.org/2000/svg">
<path d="M6.83594 28.1641H1.36719V60.9766H6.83594V28.1641Z" fill="#FFCA00"/>
<path d="M12.3047 25.9766H6.83594V36.9141H12.3047V25.9766Z" fill="#AAAAA0"/>
<path d="M63.1641 25.9766H57.6953V36.9141H63.1641V25.9766Z" fill="#AAAAA0"/>
<path d="M68.6328 28.1641H63.1641V60.9766H68.6328V28.1641Z" fill="#FFCA00"/>
<path d="M17.7734 9.02344H12.3047V53.1836H17.7734V9.02344Z" fill="#FAC800"/>
<path d="M29.1085 13.3301L18.9775 48.877H24.4463L34.5773 13.3301H29.1085Z" fill="#FFCA00"/>
<path d="M17.7734 13.3301V33.9135L23.6398 13.3301H17.7734Z" fill="#FAC800"/>
<path d="M34.5773 13.3301L24.4463 48.877H29.915L40.046 13.3301H34.5773Z" fill="#FAC800"/>
<path d="M23.6398 13.3301L17.7734 33.9135V48.877H18.9775L29.1085 13.3301H23.6398Z" fill="#FAC800"/>
<path d="M45.5148 13.3301L35.3838 48.877H40.8525L50.9835 13.3301H45.5148Z" fill="#FAC800"/>
<path d="M40.046 13.3301L29.915 48.877H35.3838L45.5148 13.3301H40.046Z" fill="#FAC800"/>
<path d="M52.2266 28.1572L46.3213 48.8774H52.2266V28.1572Z" fill="#FAC800"/>
<path d="M52.2266 13.3301H50.9835L40.8525 48.877H46.3213L52.2266 28.1568V13.3301Z" fill="#FFCA00"/>
<path d="M57.6953 9.02344H52.2266V53.1836H57.6953V9.02344Z" fill="#FAC800"/>
<path d="M68.6328 26.7969H64.5312V25.9766C64.5312 25.2216 63.9192 24.6094 63.1641 24.6094H59.0625V9.02344C59.0625 8.26848 58.4504 7.65625 57.6953 7.65625H52.2266C51.4715 7.65625 50.8594 8.26848 50.8594 9.02344V11.9629H19.1406V9.02344C19.1406 8.26848 18.5285 7.65625 17.7734 7.65625H12.3047C11.5496 7.65625 10.9375 8.26848 10.9375 9.02344V24.6094H6.83594C6.08084 24.6094 5.46875 25.2216 5.46875 25.9766V26.7969H1.36719C0.61209 26.7969 0 27.4091 0 28.1641V60.9766C0 61.7315 0.61209 62.3438 1.36719 62.3438H12.3047C13.0598 62.3438 13.6719 61.7315 13.6719 60.9766C13.6719 60.2216 13.0598 59.6094 12.3047 59.6094H8.20312V38.2812H10.9375V53.1836C10.9375 53.9386 11.5496 54.5508 12.3047 54.5508H17.7734C18.5285 54.5508 19.1406 53.9386 19.1406 53.1836V50.2441H28.7793V52.7734C28.7793 53.8699 29.2059 54.8994 29.9811 55.6732C30.7549 56.4484 31.7844 56.875 32.8809 56.875H45.0488C45.8008 56.8764 46.4146 57.4902 46.416 58.2422C46.4146 58.9941 45.8008 59.608 45.0488 59.6094H29.1607C28.4061 59.6094 27.7936 60.2232 27.7936 60.9766C27.7936 61.7313 28.4061 62.3438 29.1607 62.3438H45.0488C46.1453 62.3438 47.1748 61.9172 47.9486 61.142C48.7238 60.3682 49.1504 59.3373 49.1504 58.2422C49.1504 57.1456 48.7238 56.1162 47.9486 55.3424C47.1748 54.5672 46.1453 54.1406 45.0488 54.1406H32.8809C32.1289 54.1393 31.515 53.5254 31.5137 52.7734V50.2441H50.8594V53.1836C50.8594 53.9386 51.4715 54.5508 52.2266 54.5508H57.6953C58.4504 54.5508 59.0625 53.9386 59.0625 53.1836V38.2812H61.7969V59.6094H57.6953C56.9402 59.6094 56.3281 60.2216 56.3281 60.9766C56.3281 61.7315 56.9402 62.3438 57.6953 62.3438H68.6328C69.3879 62.3438 70 61.7315 70 60.9766V28.1641C70 27.4091 69.3879 26.7969 68.6328 26.7969ZM42.6639 47.5098L50.8594 18.7538V27.9658L45.2893 47.5098H42.6639ZM37.1952 47.5098L46.5467 14.6973H49.1721L39.8206 47.5098H37.1952ZM31.7264 47.5098L41.078 14.6973H43.7034L34.3518 47.5098H31.7264ZM26.2577 47.5098L35.6092 14.6973H38.2346L28.8831 47.5098H26.2577ZM20.7889 47.5098L30.1405 14.6973H32.7659L23.4143 47.5098H20.7889ZM19.1406 34.1046L24.6717 14.6973H27.2971L19.1406 43.3167V34.1046ZM21.8284 14.6973L19.1406 24.128V14.6973H21.8284ZM2.73438 29.5312H5.46875V59.6094H2.73438V29.5312ZM8.20312 35.5469V27.3438H10.9375V35.5469H8.20312ZM16.4062 51.8164H13.6719V10.3906H16.4062V51.8164ZM48.1327 47.5098L50.8594 37.9423V47.5098H48.1327ZM56.3281 51.8164H53.5938V10.3906H56.3281V51.8164ZM59.0625 35.5469V27.3438H61.7969V28.1641V35.5469H59.0625ZM67.2656 59.6094H64.5312V29.5312H67.2656V59.6094Z" fill="black"/>
<path d="M23.692 59.6094C22.9373 59.6094 22.3248 60.2232 22.3248 60.9766C22.3248 61.7299 22.9373 62.3438 23.692 62.3438C24.4453 62.3438 25.0592 61.7299 25.0592 60.9766C25.0592 60.2232 24.4453 59.6094 23.692 59.6094Z" fill="black"/>
</svg>
