<svg width="13" height="12" viewBox="0 0 13 12" fill="none" xmlns="http://www.w3.org/2000/svg">
<path d="M11.8574 0.667969H1.14258C0.513348 0.667969 0 1.2202 0 1.89844V10.1016C0 10.7775 0.511063 11.332 1.14258 11.332H11.8574C12.4851 11.332 13 10.7817 13 10.1016V1.89844C13 1.2225 12.4889 0.667969 11.8574 0.667969ZM11.6996 1.48828L6.52422 7.06184L1.30404 1.48828H11.6996ZM0.761719 9.9317V2.06439L4.43013 5.98111L0.761719 9.9317ZM1.30033 10.5117L4.97105 6.55863L6.25727 7.93189C6.40616 8.09087 6.64643 8.09035 6.79471 7.93063L8.04883 6.58004L11.6997 10.5117H1.30033ZM12.2383 9.93167L8.58744 6L12.2383 2.0683V9.93167Z" fill="#A0A0A0"/>
</svg>
