<svg width="60" height="60" viewBox="0 0 60 60" fill="none" xmlns="http://www.w3.org/2000/svg">
<circle cx="30" cy="30" r="30" fill="#F5D200"/>
<path d="M42.4512 17.6934H18.5488C17.1452 17.6934 16 18.9162 16 20.418V38.582C16 40.0788 17.1401 41.3066 18.5488 41.3066H42.4512C43.8513 41.3066 45 40.088 45 38.582V20.418C45 18.9212 43.8599 17.6934 42.4512 17.6934ZM42.0992 19.5098L30.554 31.8512L18.909 19.5098H42.0992ZM17.6992 38.2059V20.7854L25.8826 29.4582L17.6992 38.2059ZM18.9007 39.4902L27.0893 30.737L29.9585 33.7778C30.2907 34.1298 30.8266 34.1286 31.1574 33.775L33.9551 30.7844L42.0993 39.4902H18.9007ZM43.3008 38.2059L35.1566 29.5L43.3008 20.7941V38.2059Z" fill="black"/>
</svg>
