<svg width="70" height="70" viewBox="0 0 70 70" fill="none" xmlns="http://www.w3.org/2000/svg">
<g clip-path="url(#clip0)">
<path d="M10.4998 38.5C5.36644 38.5 1.16644 34.3 1.16644 29.1666V14C1.16644 10.15 4.31644 7 8.16644 7C12.0164 7 15.1664 10.15 15.1664 14C15.1664 14.7 14.6998 15.1666 13.9998 15.1666C13.2998 15.1666 12.8332 14.7 12.8332 14C12.8332 11.4334 10.7332 9.33338 8.16658 9.33338C5.59996 9.33338 3.49982 11.4334 3.49982 14V29.1666C3.49982 33.0166 6.64982 36.1666 10.4998 36.1666C11.1998 36.1666 11.6664 36.6332 11.6664 37.3332C11.6664 38.0332 11.1998 38.5 10.4998 38.5Z" fill="#FFE100"/>
<path d="M50.8663 38.9669L47.2497 32.4336C46.0831 30.3336 44.0997 29.167 41.9997 29.167H20.6497C18.5497 29.167 16.4497 30.4504 15.3997 32.4336L10.1497 41.8836C9.33311 43.4002 7.93311 44.3336 6.29973 44.3336C5.36635 44.3336 4.66635 45.1502 4.66635 46.0836C4.66635 48.6502 4.66635 53.4336 4.66635 56.5836C4.66635 58.217 5.83297 59.5002 7.23297 59.5002H9.79973C9.79973 55.6502 12.5997 52.5002 16.0997 52.5002C19.5997 52.5002 20.8831 55.6502 20.8831 59.5002H48.8831C48.8831 55.6502 50.2831 52.5002 53.6665 52.5002C57.1665 52.5002 59.9665 55.6502 59.9665 59.5002H62.0665C63.8165 59.5002 65.2165 57.8668 65.2165 56.0002V46.2002C65.2165 45.2668 64.5165 44.4502 63.5831 44.4502H59.2665C55.9997 44.3336 52.7331 42.3502 50.8663 38.9669Z" fill="#FFE100"/>
<path d="M47.2498 32.4336L50.8665 38.967C52.7331 42.2336 55.8831 44.3336 59.3831 44.3336H62.1831C58.3331 44.3336 54.7165 42.3502 52.6165 38.967L48.5331 32.4336C47.2497 30.3336 45.0331 29.167 42.5831 29.167H41.9998C44.0998 29.1669 46.1998 30.4502 47.2498 32.4336Z" fill="#FFE100"/>
<path d="M4.66644 56.5826C4.66644 53.4326 4.66644 48.6492 4.66644 46.0826C4.66644 45.1492 5.36644 44.3326 6.29982 44.3326C7.9332 44.3326 9.3332 43.3993 10.1498 41.8826L15.3998 32.4326C16.5664 30.3326 18.5498 29.166 20.6498 29.166H19.0164C16.5664 29.166 14.3498 30.4494 13.0664 32.4326L7.23306 41.8826C6.41644 43.3993 4.78306 44.3326 3.03306 44.3326C1.98306 44.3326 1.16644 45.1492 1.16644 46.0826C1.16644 48.6492 1.16644 53.4326 1.16644 56.5826C1.16644 58.216 2.44982 59.4992 4.08306 59.4992H6.99982C5.71644 59.2659 4.66644 58.0992 4.66644 56.5826Z" fill="white"/>
<path d="M66.6164 44.333H63.3498C64.2832 44.333 64.9832 45.1496 64.9832 46.083V55.9996C64.9832 57.633 63.9332 59.033 62.6498 59.383V59.4996H64.9832C66.9665 59.4996 68.4832 57.8662 68.4832 55.9996V46.1996C68.3664 45.1496 67.5498 44.333 66.6164 44.333Z" fill="#FFA800"/>
<path d="M59.5001 59.5C59.5001 63.35 57.1667 66.5 54.2501 66.5C51.3335 66.5 49.0001 63.35 49.0001 59.5C49.0001 55.65 51.3335 52.5 54.2501 52.5C57.1667 52.5 59.5001 55.65 59.5001 59.5Z" fill="#FECC00"/>
<path d="M56.0001 52.5C55.6501 52.5 55.3001 52.5 54.9501 52.6166C57.5167 53.0832 59.5001 56 59.5001 59.5C59.5001 63 57.5167 65.9166 54.9501 66.3834C55.3001 66.3834 55.6501 66.5 56.0001 66.5C59.8501 66.5 63.0001 63.35 63.0001 59.5C63.0001 55.65 59.8501 52.5 56.0001 52.5Z" fill="#FFA800"/>
<path d="M17.4998 59.5C17.4998 63.35 15.1664 66.5 12.2498 66.5C9.3332 66.5 6.99982 63.35 6.99982 59.5C6.99982 55.65 9.3332 52.5 12.2498 52.5C15.1664 52.5 17.4998 55.65 17.4998 59.5Z" fill="#FECC00"/>
<path d="M13.9998 52.5C13.6498 52.5 13.2998 52.5 12.9498 52.6166C15.5165 53.0834 17.4998 56 17.4998 59.5C17.4998 63 15.5165 65.9166 12.9498 66.3834C13.2998 66.3834 13.6498 66.5 13.9998 66.5C17.8498 66.5 20.9998 63.35 20.9998 59.5C20.9998 55.65 17.8498 52.5 13.9998 52.5Z" fill="#FFA800"/>
<path d="M49.2334 38.9664L46.0834 33.833H18.4334C17.85 33.833 17.5 34.2996 17.5 34.7664V39.783C17.5 40.3664 17.9666 40.7164 18.4334 40.7164H50.6334C50.1666 40.2498 49.5834 39.6664 49.2334 38.9664Z" fill="#63D3FD"/>
<path d="M52.1502 38.9664L49.0002 33.833H45.5002L48.6502 38.9664C49.1168 39.6664 49.5835 40.2498 50.0502 40.833H53.5502C53.0835 40.2498 52.6168 39.6664 52.1502 38.9664Z" fill="#3DB9F9"/>
<path d="M19.8332 20.9996C15.9832 20.9996 12.8332 17.8496 12.8332 13.9996C12.8332 13.2996 13.2998 12.833 13.9998 12.833C14.6998 12.833 15.1665 13.2996 15.1665 13.9996C15.1665 16.5663 17.2665 18.6663 19.8331 18.6663C22.3997 18.6663 24.4998 16.5663 24.4998 13.9996C24.4998 13.2996 24.9665 12.833 25.6665 12.833C26.3665 12.833 26.8331 13.2996 26.8331 13.9996C26.8332 17.8496 23.6832 20.9996 19.8332 20.9996Z" fill="#FFE100"/>
<path d="M20.9999 13.9994H27.9999V8.16602H20.9999V13.9994Z" fill="#FFE100"/>
<path d="M14 67.6663C9.44999 67.6663 5.83337 64.0496 5.83337 59.4996C5.83337 54.9496 9.44999 51.333 14 51.333C18.55 51.333 22.1666 54.9496 22.1666 59.4996C22.1666 64.0496 18.55 67.6663 14 67.6663ZM14 53.6662C10.7334 53.6662 8.16662 56.2329 8.16662 59.4996C8.16662 62.7663 10.7332 65.333 14 65.333C17.2667 65.333 19.8334 62.7664 19.8334 59.4996C19.8334 56.233 17.2666 53.6662 14 53.6662Z" fill="black"/>
<path d="M16.3334 59.4994C16.3334 60.7828 15.2834 61.8328 14 61.8328C12.7166 61.8328 11.6666 60.7828 11.6666 59.4994C11.6666 58.216 12.7166 57.166 14 57.166C15.2834 57.166 16.3334 58.216 16.3334 59.4994Z" fill="black"/>
<path d="M55.9998 67.6663C51.4498 67.6663 47.8332 64.0496 47.8332 59.4996C47.8332 54.9496 51.4498 51.333 55.9998 51.333C60.5498 51.333 64.1665 54.9496 64.1665 59.4996C64.1665 64.0496 60.5498 67.6663 55.9998 67.6663ZM55.9998 53.6662C52.7332 53.6662 50.1665 56.2329 50.1665 59.4996C50.1665 62.7663 52.7331 65.333 55.9998 65.333C59.2665 65.333 61.8332 62.7664 61.8332 59.4996C61.8332 56.233 59.2665 53.6662 55.9998 53.6662Z" fill="black"/>
<path d="M58.3332 59.4994C58.3332 60.7828 57.2832 61.8328 55.9998 61.8328C54.7164 61.8328 53.6664 60.7828 53.6664 59.4994C53.6664 58.216 54.7164 57.166 55.9998 57.166C57.2832 57.166 58.3332 58.216 58.3332 59.4994Z" fill="black"/>
<path d="M65.3334 60.6665H61.8334V59.4999C61.8334 56.2332 59.2668 53.6665 56 53.6665C52.7334 53.6665 50.1666 56.2331 50.1666 59.4999V60.6665H19.8334V59.4999C19.8334 56.2332 17.2668 53.6665 14 53.6665C10.7332 53.6665 8.16662 56.2332 8.16662 59.4999V60.6665H4.08338C1.86662 60.6665 0 58.7999 0 56.5832V46.0832C0 45.2666 0.35 44.5666 0.816621 43.9832C1.4 43.5166 2.1 43.1666 2.91662 43.1666C4.31662 43.1666 5.6 42.4666 6.3 41.3L12.1334 31.85C13.65 29.5166 16.2168 28 19.0168 28H42.8168C45.6168 28 48.3001 29.5166 49.7001 31.85L53.7835 38.3834C55.6501 41.3 58.9169 43.1668 62.3001 43.1668H67.0835C68.7169 43.1668 70.0001 44.4501 70.0001 46.0834V55.9999C70 58.5665 67.9 60.6665 65.3334 60.6665ZM64.05 58.3332H65.2166C66.5 58.3332 67.55 57.2832 67.55 55.9999V46.1999C67.55 45.8499 67.3166 45.6165 66.9666 45.6165H62.1832C57.8666 45.6165 53.8999 43.3999 51.6832 39.7831L47.6 33.2499C46.6666 31.3832 44.8 30.3332 42.8166 30.3332H19.0166C17.0332 30.3332 15.1666 31.3832 14.1166 33.1332L8.28324 42.5832C7.23324 44.3332 5.13324 45.4999 3.03324 45.4999C2.79986 45.4999 2.68324 45.6165 2.56662 45.7332C2.33324 45.8499 2.33324 45.9666 2.33324 46.0832V56.5832C2.33324 57.5166 3.14986 58.3332 4.08324 58.3332H5.95C6.53338 54.3666 9.91662 51.3332 14 51.3332C18.0834 51.3332 21.4666 54.3666 22.05 58.3332H47.8334C48.4168 54.3666 51.8 51.3332 55.8834 51.3332C59.9668 51.3332 63.4666 54.3665 64.05 58.3332Z" fill="black"/>
<path d="M56.8168 41.9998H18.4336C17.2669 41.9998 16.3336 41.0664 16.3336 39.8998V34.8832C16.3336 33.7166 17.2669 32.7832 18.4336 32.7832H50.1669L53.6669 38.4998C54.0169 39.0832 54.3669 39.5498 54.9503 40.1332L56.8168 41.9998ZM18.6668 39.6664H51.8002L49.0002 34.9998H18.6668V39.6664Z" fill="black"/>
<path d="M36.1669 33.833H33.8336V40.833H36.1669V33.833Z" fill="black"/>
<path d="M40.8335 47.8332H35.0002C34.3002 47.8332 33.8336 47.3666 33.8336 46.6666C33.8336 45.9666 34.3002 45.5 35.0002 45.5H40.8335C41.5335 45.5 42.0002 45.9666 42.0002 46.6666C42.0002 47.3665 41.5335 47.8332 40.8335 47.8332Z" fill="black"/>
<path d="M40.8336 50.1666C40.1336 50.1666 39.6669 49.7 39.6669 49V46.6666C39.6669 45.9666 40.1336 45.5 40.8336 45.5C41.5336 45.5 42.0002 45.9666 42.0002 46.6666V49C42.0002 49.7 41.5336 50.1666 40.8336 50.1666Z" fill="black"/>
<path d="M68.8336 51.3332H64.1669C63.4669 51.3332 63.0003 50.8666 63.0003 50.1666C63.0003 49.4666 63.4669 49 64.1669 49H68.8336C69.5336 49 70.0002 49.4666 70.0002 50.1666C70.0002 50.8666 69.5336 51.3332 68.8336 51.3332Z" fill="black"/>
<path d="M5.83338 51.3332H1.16662C0.466621 51.3332 0 50.8666 0 50.1666C0 49.4666 0.466621 49 1.16662 49H5.83324C6.53324 49 6.99986 49.4666 6.99986 50.1666C6.99986 50.8666 6.53338 51.3332 5.83338 51.3332Z" fill="black"/>
<path d="M9.33338 38.5C4.2 38.5 0 34.3 0 29.1666V14C0 10.15 3.15 7 7 7C10.85 7 14 10.15 14 14C14 14.7 13.5334 15.1666 12.8334 15.1666C12.1334 15.1666 11.6668 14.7 11.6668 14C11.6668 11.4334 9.56676 9.33338 7.00014 9.33338C4.43352 9.33338 2.33338 11.4334 2.33338 14V29.1666C2.33338 33.0166 5.48338 36.1666 9.33338 36.1666C10.0334 36.1666 10.5 36.6332 10.5 37.3332C10.5 38.0332 10.0334 38.5 9.33338 38.5Z" fill="black"/>
<path d="M18.6666 20.9996C14.8166 20.9996 11.6666 17.8496 11.6666 13.9996C11.6666 13.2996 12.1332 12.833 12.8332 12.833C13.5332 12.833 13.9999 13.2996 13.9999 13.9996C13.9999 16.5663 16.0999 18.6663 18.6665 18.6663C21.2331 18.6663 23.3331 16.5663 23.3331 13.9996C23.3331 13.2996 23.7997 12.833 24.4997 12.833C25.1997 12.833 25.6663 13.2996 25.6663 13.9996C25.6666 17.8496 22.5166 20.9996 18.6666 20.9996Z" fill="black"/>
<path d="M28.0001 15.1666H21.0001C20.3001 15.1666 19.8335 14.7 19.8335 14V8.16662C19.8335 7.46662 20.3001 7 21.0001 7H28.0001C28.7001 7 29.1667 7.46662 29.1667 8.16662V14C29.1667 14.7 28.7001 15.1666 28.0001 15.1666ZM22.1667 12.8334H26.8333V9.33338H22.1667V12.8334Z" fill="black"/>
<path d="M26.8335 9.33301C26.1335 9.33301 25.6668 8.86639 25.6668 8.16639V3.49963C25.6668 2.79963 26.1335 2.33301 26.8335 2.33301C27.5335 2.33301 28.0001 2.79963 28.0001 3.49963V8.16625C28.0001 8.86625 27.5335 9.33301 26.8335 9.33301Z" fill="black"/>
<path d="M22.1665 9.33301C21.4665 9.33301 20.9999 8.86639 20.9999 8.16639V3.49963C20.9999 2.79963 21.4665 2.33301 22.1665 2.33301C22.8665 2.33301 23.3331 2.79963 23.3331 3.49963V8.16625C23.3333 8.86625 22.8665 9.33301 22.1665 9.33301Z" fill="black"/>
</g>
<defs>
<clipPath id="clip0">
<rect width="70" height="70" fill="white"/>
</clipPath>
</defs>
</svg>
