<svg width="92" height="92" viewBox="0 0 92 92" fill="none" xmlns="http://www.w3.org/2000/svg">
<g clip-path="url(#clip0)">
<g filter="url(#filter0_i)">
<path d="M72 0H20C8.95431 0 0 8.95431 0 20V72C0 83.0457 8.95431 92 20 92H72C83.0457 92 92 83.0457 92 72V20C92 8.95431 83.0457 0 72 0Z" fill="#44678D"/>
</g>
<g filter="url(#filter1_d)">
<path d="M23.8336 27.9977C26.0385 33.4427 28.8328 38.5763 32.5132 43.1849C33.0013 43.7982 33.6166 44.3434 34.2648 44.7873C35.2116 45.4376 36.1049 45.209 36.4899 44.126C36.8971 42.9895 37.2707 40.6861 37.2929 39.4926C37.3537 36.3741 37.2839 34.3303 37.1163 31.2156C37.0077 29.2207 36.2985 27.469 33.3641 26.9403C32.4579 26.7764 32.3737 26.0305 32.9559 25.2864C34.1679 23.7372 35.8564 23.4903 37.6874 23.3926C40.6549 23.2323 43.6334 23.3631 46.6046 23.3926C47.8148 23.4037 49.0323 23.5012 50.2242 23.761C51.7788 24.0999 52.6113 25.1905 52.8675 26.7082C53.0001 27.491 53.0683 28.2959 53.0498 29.088C52.9725 32.492 52.8085 35.8942 52.7698 39.2964C52.7532 40.6318 52.8507 42.0005 53.1364 43.3009C53.5361 45.1134 54.7701 45.5684 56.0321 44.2588C57.6345 42.5956 59.0474 40.724 60.3735 38.8232C62.7829 35.3657 64.5824 31.5713 66.1316 27.659C66.9328 25.6402 67.5463 25.2018 69.7179 25.1963C73.7997 25.187 77.8816 25.1834 81.9635 25.1963C82.6874 25.2 83.4445 25.2682 84.1278 25.4856C85.2367 25.8393 85.677 26.7437 85.4172 27.8913C84.8111 30.5807 83.3579 32.8665 81.8014 35.0641C79.3036 38.5896 76.6861 42.0306 74.1296 45.5155C73.8036 45.9594 73.5163 46.4328 73.249 46.9135C72.293 48.6413 72.3594 49.6101 73.7537 51.0486C75.9733 53.3383 78.3496 55.4804 80.4991 57.8326C82.0612 59.5439 83.507 61.4005 84.7449 63.3549C86.3107 65.8268 85.3435 68.155 82.4185 68.5694C80.5785 68.8293 71.5898 68.5715 71.1253 68.5694C68.7087 68.5585 66.5904 67.7204 64.8846 66.0791C62.9874 64.252 61.2632 62.2478 59.4415 60.3413C58.8926 59.7666 58.3068 59.2158 57.6751 58.735C56.1849 57.5984 54.7223 57.8508 54.026 59.6008C53.4311 61.104 52.9171 65.0512 52.8931 65.3883C52.768 67.1511 51.6461 68.2747 49.6714 68.3833C43.9705 68.6928 38.4462 68.0573 33.2999 65.2999C28.938 62.9642 25.4549 59.6616 22.4377 55.81C17.6448 49.6925 13.8591 42.9679 10.4028 36.0458C10.2261 35.6919 6.72546 28.2428 6.63139 27.8909C6.31869 26.7128 6.61039 25.5874 7.60583 25.2C8.22639 24.9585 19.7683 25.1991 19.9603 25.2094C21.802 25.3092 23.0578 26.0862 23.8336 27.9977Z" fill="white"/>
</g>
</g>
<defs>
<filter id="filter0_i" x="0" y="0" width="97" height="97" filterUnits="userSpaceOnUse" color-interpolation-filters="sRGB">
<feFlood flood-opacity="0" result="BackgroundImageFix"/>
<feBlend mode="normal" in="SourceGraphic" in2="BackgroundImageFix" result="shape"/>
<feColorMatrix in="SourceAlpha" type="matrix" values="0 0 0 0 0 0 0 0 0 0 0 0 0 0 0 0 0 0 127 0" result="hardAlpha"/>
<feOffset dx="5" dy="5"/>
<feGaussianBlur stdDeviation="2.5"/>
<feComposite in2="hardAlpha" operator="arithmetic" k2="-1" k3="1"/>
<feColorMatrix type="matrix" values="0 0 0 0 0.400799 0 0 0 0 0.593246 0 0 0 0 0.808333 0 0 0 1 0"/>
<feBlend mode="normal" in2="shape" result="effect1_innerShadow"/>
</filter>
<filter id="filter1_d" x="-93.4883" y="-76.6857" width="178.978" height="145.371" filterUnits="userSpaceOnUse" color-interpolation-filters="sRGB">
<feFlood flood-opacity="0" result="BackgroundImageFix"/>
<feColorMatrix in="SourceAlpha" type="matrix" values="0 0 0 0 0 0 0 0 0 0 0 0 0 0 0 0 0 0 127 0"/>
<feOffset dx="-50" dy="-50"/>
<feGaussianBlur stdDeviation="25"/>
<feColorMatrix type="matrix" values="0 0 0 0 0 0 0 0 0 0 0 0 0 0 0 0 0 0 0.25 0"/>
<feBlend mode="normal" in2="BackgroundImageFix" result="effect1_dropShadow"/>
<feBlend mode="normal" in="SourceGraphic" in2="effect1_dropShadow" result="shape"/>
</filter>
<clipPath id="clip0">
<rect width="92" height="92" fill="white"/>
</clipPath>
</defs>
</svg>
