<svg width="53" height="53" viewBox="0 0 53 53" fill="none" xmlns="http://www.w3.org/2000/svg">
<path d="M41.4062 42.2344H17V6H41.4062V42.2344Z" fill="#F0BC5E"/>
<path d="M31.4688 17.3906H16.5625V5.79688H31.4688V17.3906Z" fill="#F0BC5E"/>
<path d="M33.125 9.10938V19.0469H16.5625V29.8125H24.8438V27.3281H41.4062V9.10938H33.125Z" fill="#F0BC5E"/>
<path d="M50.7665 4.14062L48.0925 2.3585C46.592 1.3573 44.8438 0.828125 43.0401 0.828125H33.125C32.2116 0.828125 31.4688 1.57095 31.4688 2.48438H13.25V32.2969H9.95986C8.15538 32.2969 6.40803 32.826 4.90664 33.8273L2.23345 35.6094H0.828125V49.6875H2.28894L5.68425 51.3852C6.71278 51.8994 7.86636 52.1719 9.01745 52.1719H24.8438C26.2135 52.1719 27.3281 51.0572 27.3281 49.6875C27.3281 49.3604 27.261 49.0498 27.1459 48.7633C28.2018 48.4768 28.9844 47.5203 28.9844 46.375C28.9844 46.0835 28.9248 45.8069 28.832 45.5469H44.7188V19.8386C45.6206 19.7483 46.5058 19.4932 47.3166 19.0883L50.7119 17.3906H52.1719V4.14062H50.7665ZM27.3281 46.375C27.3281 46.8313 26.9571 47.2031 26.5 47.2031H24.8438H16.5625V48.8594H24.8438C25.3009 48.8594 25.6719 49.2312 25.6719 49.6875C25.6719 50.1438 25.3009 50.5156 24.8438 50.5156H9.01745C8.12225 50.5156 7.22539 50.3045 6.42459 49.9036L2.67981 48.0312H2.48438V37.2656H2.7353L5.82586 35.2052C7.0548 34.3862 8.48414 33.9531 9.95986 33.9531H19.875C19.875 35.3228 18.7603 36.4375 17.3906 36.4375H13.7353L12.4641 37.7087C11.6807 38.4912 10.6414 38.9219 9.53586 38.9219H9.10938V40.5781H9.53586C10.9097 40.5781 12.209 40.1011 13.25 39.2291V45.5469H16.5625H26.5C26.9571 45.5469 27.3281 45.9187 27.3281 46.375ZM43.0625 43.8906H26.5H16.5625H14.9062V38.0938H17.3906C19.6738 38.0938 21.5312 36.2363 21.5312 33.9531C21.5312 33.0397 20.7884 32.2969 19.875 32.2969H14.9062V4.14062H31.8199C32.4608 5.60061 33.9159 6.625 35.6094 6.625H37.7509L39.0221 7.897C39.8038 8.67875 40.844 9.10938 41.9503 9.10938H43.0625V43.8906ZM50.5156 15.7344H50.3202L46.5762 17.6068C45.9957 17.8974 45.3639 18.0887 44.7196 18.1715V7.45312H41.9512C41.287 7.45312 40.6626 7.19475 40.1939 6.72603L38.4366 4.96875H35.6094C34.2397 4.96875 33.125 3.85409 33.125 2.48438H43.0401C44.5159 2.48438 45.946 2.91748 47.1741 3.7365L50.2647 5.79688H50.5156V15.7344Z" fill="black"/>
<path d="M23.1875 33.9531H24.8438V35.6094H23.1875V33.9531Z" fill="black"/>
<path d="M23.1875 37.2656H24.8438V38.9219H23.1875V37.2656Z" fill="black"/>
<path d="M33.125 15.7344H41.4062V17.3906H33.125V15.7344Z" fill="black"/>
<path d="M33.125 12.4219H41.4062V14.0781H33.125V12.4219Z" fill="black"/>
<path d="M33.125 9.10938H34.7812V10.7656H33.125V9.10938Z" fill="black"/>
<path d="M36.4375 9.10938H41.4062V10.7656H36.4375V9.10938Z" fill="black"/>
<path d="M16.5625 19.0469H18.2188V20.7031H16.5625V19.0469Z" fill="black"/>
<path d="M19.875 19.0469H41.4062V20.7031H19.875V19.0469Z" fill="black"/>
<path d="M16.5625 22.3594H41.4062V24.0156H16.5625V22.3594Z" fill="black"/>
<path d="M16.5625 25.6719H18.2188V27.3281H16.5625V25.6719Z" fill="black"/>
<path d="M23.1875 25.6719H24.8438V27.3281H23.1875V25.6719Z" fill="black"/>
<path d="M19.875 25.6719H21.5312V27.3281H19.875V25.6719Z" fill="black"/>
<path d="M26.5 25.6719H41.4062V27.3281H26.5V25.6719Z" fill="black"/>
<path d="M16.5625 28.9844H24.8438V30.6406H16.5625V28.9844Z" fill="black"/>
<path d="M22 16V12.25M22 12.25V8.5C24.8 8.5 25.8333 9.83333 26 10.5L25.5 12.5H23L22 12.25Z" stroke="black"/>
</svg>
