<svg width="70" height="70" viewBox="0 0 70 70" fill="none" xmlns="http://www.w3.org/2000/svg">
<path d="M63.0002 65.3337H68.8336V11.667H63.0002V65.3337Z" fill="#FFE100"/>
<path d="M66.5001 65.3337H68.8334V11.667H66.5001V65.3337Z" fill="#FFA800"/>
<path d="M39.6667 33.8336V29.167H51.3334C52.6168 29.167 53.6667 30.217 53.6667 31.5004C53.6667 32.7838 52.6168 33.8338 51.3334 33.8338H39.6667V33.8336Z" fill="#FFE100"/>
<path d="M39.6667 47.8326V43.166H51.3334C52.6168 43.166 53.6667 44.216 53.6667 45.4994C53.6667 46.7828 52.6168 47.8328 51.3334 47.8328H39.6667V47.8326Z" fill="#FFE100"/>
<path d="M1.16663 40.8328H5.83338V36.166H1.16663V40.8328Z" fill="#FFE100"/>
<path d="M5.83337 44.3334V32.6666L15.1666 31.5V45.5L5.83337 44.3334Z" fill="#FFE100"/>
<path d="M34.9999 51.3331V25.6664C34.9999 24.383 36.0499 23.333 37.3333 23.333C38.6167 23.333 39.6667 24.383 39.6667 25.6664V51.333C39.6667 52.6164 38.6167 53.6664 37.3333 53.6664C36.0499 53.6664 34.9999 52.6164 34.9999 51.3331Z" fill="#FFE100"/>
<path d="M15.1665 44.6828V32.3162C15.1665 29.8662 17.0331 27.8828 19.4831 27.6495L34.9999 25.666V51.3326L19.4833 49.3494C17.0333 49.116 15.1665 47.1328 15.1665 44.6828Z" fill="#FFE100"/>
<path d="M23.3334 38.5C23.3334 34.65 26.4834 31.5 30.3334 31.5H35V45.5H30.3334C26.4834 45.5 23.3334 42.35 23.3334 38.5Z" fill="#63D3FD"/>
<path d="M63 53.6664H60.6666C59.3832 53.6664 58.3332 52.6164 58.3332 51.333V25.6664C58.3332 24.383 59.3832 23.333 60.6666 23.333H63V53.6664Z" fill="#63D3FD"/>
<path d="M38.5001 12.8342H15.1667C14.4667 12.8342 14.0001 12.3676 14.0001 11.6676C14.0001 10.9676 14.4667 10.501 15.1667 10.501H38.5001C39.2001 10.501 39.6667 10.9676 39.6667 11.6676C39.6667 12.3675 39.2001 12.8342 38.5001 12.8342Z" fill="#FFE100"/>
<path d="M21.0003 18.6666C20.6503 18.6666 20.4169 18.55 20.1837 18.3166L14.3503 12.4833C13.8836 12.0167 13.8836 11.3167 14.3503 10.85C14.8169 10.3833 15.5169 10.3833 15.9836 10.85L21.817 16.6833C22.2837 17.15 22.2837 17.85 21.817 18.3167C21.5837 18.55 21.3503 18.6666 21.0003 18.6666Z" fill="#FFE100"/>
<path d="M15.1669 12.8337C14.8169 12.8337 14.5835 12.7171 14.3503 12.4837C13.8836 12.0171 13.8836 11.3171 14.3503 10.8503L20.1836 5.01696C20.6503 4.55034 21.3503 4.55034 21.817 5.01696C22.2838 5.48358 22.2836 6.18358 21.817 6.65034L15.9836 12.4837C15.7503 12.717 15.5169 12.8337 15.1669 12.8337Z" fill="#FFE100"/>
<path d="M68.8333 66.5H62.9999C62.2999 66.5 61.8333 66.0334 61.8333 65.3334V11.6666C61.8333 10.9666 62.2999 10.5 62.9999 10.5H68.8333C69.5333 10.5 69.9999 10.9666 69.9999 11.6666V65.3332C69.9999 66.0334 69.5333 66.5 68.8333 66.5ZM64.1665 64.1666H67.6665V12.8334H64.1665V64.1666Z" fill="black"/>
<path d="M39.6666 11.6663H16.3333C15.6333 11.6663 15.1667 11.1996 15.1667 10.4996C15.1667 9.79963 15.6333 9.33301 16.3333 9.33301H39.6667C40.3667 9.33301 40.8333 9.79963 40.8333 10.4996C40.8333 11.1996 40.3666 11.6663 39.6666 11.6663Z" fill="black"/>
<path d="M22.1667 17.4997C21.8167 17.4997 21.5833 17.3831 21.3501 17.1497L15.5167 11.3164C15.0501 10.8497 15.0501 10.1497 15.5167 9.68297C15.9833 9.21635 16.6833 9.21635 17.1501 9.68297L22.9835 15.5163C23.4501 15.983 23.4501 16.683 22.9835 17.1497C22.7501 17.3831 22.5167 17.4997 22.1667 17.4997Z" fill="black"/>
<path d="M16.3335 11.6666C15.9835 11.6666 15.7501 11.55 15.5169 11.3166C15.0503 10.85 15.0503 10.15 15.5169 9.68321L21.3501 3.84997C21.8168 3.38334 22.5168 3.38334 22.9835 3.84997C23.4503 4.31659 23.4501 5.01659 22.9835 5.48334L17.1501 11.3166C16.9168 11.55 16.6835 11.6666 16.3335 11.6666Z" fill="black"/>
<path d="M51.3333 34.9999H39.6667C38.9667 34.9999 38.5001 34.5332 38.5001 33.8332V29.1666C38.5001 28.4666 38.9667 28 39.6667 28H51.3333C53.3167 28 54.8333 29.5166 54.8333 31.5C54.8333 33.4832 53.3165 34.9999 51.3333 34.9999ZM40.8333 32.6665H51.3333C52.0333 32.6665 52.4999 32.1999 52.4999 31.4999C52.4999 30.7999 52.0333 30.3332 51.3333 30.3332H40.8333V32.6665Z" fill="black"/>
<path d="M51.3333 48.9999H39.6667C38.9667 48.9999 38.5001 48.5332 38.5001 47.8332V43.1666C38.5001 42.4666 38.9667 42 39.6667 42H51.3333C53.3167 42 54.8333 43.5166 54.8333 45.5C54.8333 47.4834 53.3165 48.9999 51.3333 48.9999ZM40.8333 46.6665H51.3333C52.0333 46.6665 52.4999 46.1999 52.4999 45.4999C52.4999 44.7999 52.0333 44.3332 51.3333 44.3332H40.8333V46.6665Z" fill="black"/>
<path d="M5.83338 41.9999H1.16662C0.466621 41.9999 0 41.5332 0 40.8332V36.1666C0 35.4666 0.466621 35 1.16662 35H5.83324C6.53324 35 6.99986 35.4666 6.99986 36.1666V40.8332C7 41.5332 6.53338 41.9999 5.83338 41.9999ZM2.33338 39.6665H4.66676V37.3331H2.33338V39.6665Z" fill="black"/>
<path d="M10.4999 37.3336C9.79993 37.3336 9.33331 36.867 9.33331 36.167V32.317C9.33331 31.617 9.79993 31.1504 10.4999 31.1504C11.1999 31.1504 11.6666 31.617 11.6666 32.317V36.167C11.6666 36.8669 11.1999 37.3336 10.4999 37.3336Z" fill="black"/>
<path d="M10.4999 45.8502C9.79993 45.8502 9.33331 45.3836 9.33331 44.6836V40.8336C9.33331 40.1336 9.79993 39.667 10.4999 39.667C11.1999 39.667 11.6666 40.1336 11.6666 40.8336V44.6836C11.6666 45.3836 11.1999 45.8502 10.4999 45.8502Z" fill="black"/>
<path d="M15.1666 46.6661H15.0499L5.71657 45.4995C5.13319 45.3829 4.66656 44.9161 4.66656 44.3329V32.6662C4.66656 32.0829 5.13319 31.6162 5.71657 31.4996L15.0499 30.333C15.3999 30.333 15.7499 30.4496 15.9833 30.5664C16.2167 30.7998 16.3333 31.1498 16.3333 31.383V45.383C16.3333 45.733 16.2167 46.083 15.9833 46.3164C15.7499 46.5495 15.3999 46.6661 15.1666 46.6661ZM6.99994 43.2829L13.9999 44.2162V32.8995L6.99994 33.8329V43.2829Z" fill="black"/>
<path d="M37.3335 54.8337C35.3502 54.8337 33.8336 53.3171 33.8336 51.3338V25.667C33.8336 23.6836 35.3502 22.167 37.3335 22.167C39.3169 22.167 40.8335 23.6836 40.8335 25.667V51.3336C40.8335 53.317 39.3168 54.8337 37.3335 54.8337ZM37.3335 24.5004C36.6336 24.5004 36.1669 24.967 36.1669 25.667V51.3336C36.1669 52.0336 36.6336 52.5002 37.3335 52.5002C38.0335 52.5002 38.5002 52.0336 38.5002 51.3336V25.667C38.5002 25.0838 38.0335 24.5004 37.3335 24.5004Z" fill="black"/>
<path d="M35.0001 52.5H34.8835L19.3669 50.5166C16.4502 50.2833 14.0002 47.7166 14.0002 44.6833V32.3166C14.0002 29.2832 16.3336 26.7166 19.3669 26.4832L34.8835 24.5C35.2335 24.5 35.5835 24.6166 35.8169 24.7334C36.0502 24.9668 36.1669 25.3168 36.1669 25.6668V51.3334C36.1669 51.6834 36.0502 52.0334 35.8169 52.2668C35.5835 52.3834 35.2335 52.5 35.0001 52.5ZM33.8335 26.95L19.6001 28.8166C17.7335 28.9332 16.3335 30.45 16.3335 32.3166V44.6833C16.3335 46.5499 17.7335 48.0666 19.6001 48.1833L33.8335 50.0499V26.95Z" fill="black"/>
<path d="M35.0002 46.6663H30.3336C25.7836 46.6663 22.1669 43.0496 22.1669 38.4996C22.1669 33.9496 25.7836 30.333 30.3336 30.333H35.0002C35.7002 30.333 36.1668 30.7996 36.1668 31.4996V45.4996C36.1668 46.1996 35.7002 46.6663 35.0002 46.6663ZM30.3336 32.6662C27.0669 32.6662 24.5002 35.2329 24.5002 38.4996C24.5002 41.7663 27.0668 44.333 30.3336 44.333H33.8336V32.6664H30.3336V32.6662Z" fill="black"/>
<path d="M63.0001 54.8337H60.6667C58.8001 54.8337 57.1667 53.3171 57.1667 51.3338V25.667C57.1667 23.8004 58.6834 22.167 60.6667 22.167H63.0001C63.7001 22.167 64.1667 22.6336 64.1667 23.3336V53.667C64.1667 54.367 63.7001 54.8337 63.0001 54.8337ZM60.6667 24.5004C60.0834 24.5004 59.5001 24.967 59.5001 25.667V51.3336C59.5001 51.917 59.9667 52.5002 60.6667 52.5002H61.8334V24.5004H60.6667Z" fill="black"/>
</svg>
