<svg width="11" height="11" viewBox="0 0 11 11" fill="none" xmlns="http://www.w3.org/2000/svg">
<g>
<path d="M10.1174 7.22024C9.4439 7.22024 8.78264 7.11491 8.15601 6.90783C7.8436 6.80129 7.48791 6.88397 7.28409 7.09165L6.04725 8.02533C4.61287 7.25966 3.72931 6.37639 2.9741 4.95278L3.88031 3.74816C4.11575 3.51304 4.2002 3.16958 4.09902 2.84731C3.89105 2.21739 3.7854 1.55644 3.7854 0.882693C3.78543 0.395971 3.38946 0 2.90277 0H0.882635C0.395971 0 0 0.395971 0 0.882635C0 6.46144 4.53859 11 10.1174 11C10.6041 11 11 10.604 11 10.1173V8.10288C11 7.61621 10.604 7.22024 10.1174 7.22024ZM10.3889 10.1174C10.3889 10.2672 10.2672 10.3889 10.1174 10.3889C4.87546 10.3889 0.61113 6.12454 0.61113 0.882664C0.61113 0.732875 0.732875 0.61113 0.882664 0.61113H2.9028C3.05259 0.61113 3.17433 0.732875 3.17433 0.882664C3.17433 1.62178 3.2904 2.34718 3.51748 3.0344C3.5491 3.13586 3.52344 3.24087 3.4208 3.34772L2.37044 4.73879C2.30003 4.83218 2.28897 4.95722 2.3418 5.06135C3.19908 6.74638 4.24079 7.78809 5.93774 8.6576C6.04098 8.7116 6.1675 8.70028 6.26121 8.62956L7.68424 7.55147C7.75615 7.47957 7.86388 7.4539 7.96116 7.48702C8.65313 7.71558 9.37853 7.83137 10.1174 7.83137C10.2672 7.83137 10.3889 7.95311 10.3889 8.1029V10.1174Z" fill="#A0A0A0"/>
</g>
</svg>
