<svg width="64" height="64" viewBox="0 0 64 64" fill="none" xmlns="http://www.w3.org/2000/svg">
<path d="M20.6562 45.4062H6.21875V42.3125C6.21875 39.4693 8.53184 37.1562 11.375 37.1562H20.6562V45.4062Z" fill="#F0BC5E"/>
<path d="M13.4375 63.9688C9.45688 63.9688 6.21875 60.7306 6.21875 56.75C6.21875 52.7694 9.45688 49.5312 13.4375 49.5312C17.4181 49.5312 20.6562 52.7694 20.6562 56.75C20.6562 60.7306 17.4181 63.9688 13.4375 63.9688ZM13.4375 54.6875C12.3 54.6875 11.375 55.6125 11.375 56.75C11.375 57.8875 12.3 58.8125 13.4375 58.8125C14.575 58.8125 15.5 57.8875 15.5 56.75C15.5 55.6125 14.575 54.6875 13.4375 54.6875Z" fill="#F0BC5E"/>
<path d="M13.4375 63.9688C9.45688 63.9688 6.21875 60.7306 6.21875 56.75C6.21875 52.7694 9.45688 49.5312 13.4375 49.5312C17.4181 49.5312 20.6562 52.7694 20.6562 56.75C20.6562 60.7306 17.4181 63.9688 13.4375 63.9688ZM13.4375 54.6875C12.3 54.6875 11.375 55.6125 11.375 56.75C11.375 57.8875 12.3 58.8125 13.4375 58.8125C14.575 58.8125 15.5 57.8875 15.5 56.75C15.5 55.6125 14.575 54.6875 13.4375 54.6875Z" fill="#F0BC5E"/>
<path d="M50.5625 63.9688C46.5819 63.9688 43.3438 60.7306 43.3438 56.75C43.3438 52.7694 46.5819 49.5312 50.5625 49.5312C54.5431 49.5312 57.7812 52.7694 57.7812 56.75C57.7812 60.7306 54.5431 63.9688 50.5625 63.9688ZM50.5625 54.6875C49.425 54.6875 48.5 55.6125 48.5 56.75C48.5 57.8875 49.425 58.8125 50.5625 58.8125C51.7 58.8125 52.625 57.8875 52.625 56.75C52.625 55.6125 51.7 54.6875 50.5625 54.6875Z" fill="#F0BC5E"/>
<path d="M53.6562 18.5938H45.4062V13.4375H53.6562V18.5938Z" fill="#F0BC5E"/>
<path d="M46.4375 6.21875H38.1875V1.0625H46.4375V6.21875Z" fill="#F0BC5E"/>
<path d="M39.2188 18.5938H30.9688V13.4375H39.2188V18.5938Z" fill="#F0BC5E"/>
<path d="M20.5732 55.7188C20.6217 56.057 20.6557 56.3994 20.6557 56.75C20.6557 57.1006 20.6217 57.443 20.5732 57.7812H43.4257C43.3773 57.443 43.3432 57.1006 43.3432 56.75C43.3432 56.3994 43.3773 56.057 43.4257 55.7188H20.5732Z" fill="black"/>
<path d="M61.9062 30.9688V24.7812H57.7812V15.5C57.7812 13.7943 56.3932 12.4062 54.6875 12.4062H50.3728C50.4883 12.0824 50.5625 11.738 50.5625 11.375V3.125C50.5625 1.41931 49.1744 0.03125 47.4688 0.03125H37.1562C35.4506 0.03125 34.0625 1.41931 34.0625 3.125V11.375C34.0625 11.738 34.1367 12.0824 34.2522 12.4062H29.9375C28.2318 12.4062 26.8438 13.7943 26.8438 15.5V24.7812H22.7188V33.0312H10.1509C6.74159 33.0312 3.84378 35.3557 3.10438 38.6835L0.144688 52.0021C0.0694063 52.3404 0.03125 52.6869 0.03125 53.0334V54.6875C0.03125 56.3932 1.41931 57.7812 3.125 57.7812H6.30125C6.25278 57.443 6.21875 57.1006 6.21875 56.75C6.21875 56.3994 6.25278 56.057 6.30125 55.7188H3.125C2.55678 55.7188 2.09375 55.2557 2.09375 54.6875V53.6562H6.92516C7.29331 52.8838 7.79037 52.1857 8.39469 51.5938H2.34847L5.11841 39.1311C5.64538 36.7541 7.71509 35.0938 10.1509 35.0938H22.7188V51.5938H18.4803C19.0857 52.1857 19.5817 52.8838 19.9498 53.6562H44.0502C44.2337 53.2726 44.4472 52.9076 44.6926 52.5642C44.6967 52.558 44.7009 52.5528 44.706 52.5466C44.9515 52.2063 45.2217 51.8856 45.5207 51.5938H24.7812V34.806L28.9062 33.4314V49.5312H61.9062V51.5938H59.8438H58.8125H55.6053C56.2107 52.1857 56.7067 52.8838 57.0748 53.6562H58.8125H59.8438V55.7188H57.6987C57.7472 56.057 57.7812 56.3994 57.7812 56.75C57.7812 57.1006 57.7472 57.443 57.6987 57.7812H59.8438C60.9812 57.7812 61.9062 56.8562 61.9062 55.7188V53.6562H63.9688V30.9688H61.9062ZM37.1562 33.0312V37.1562H30.9688V33.0312H37.1562ZM30.9688 39.2188H37.1562V41.2812H30.9688V39.2188ZM39.2188 33.0312H41.2812V47.4688H39.2188V33.0312ZM49.5312 41.2812H43.3438V39.2188H49.5312V41.2812ZM49.5312 37.1562H43.3438V33.0312H49.5312V37.1562ZM43.3438 43.3438H49.5312V47.4688H43.3438V43.3438ZM51.5938 33.0312H53.6562V47.4688H51.5938V33.0312ZM55.7188 39.2188H61.9062V41.2812H55.7188V39.2188ZM55.7188 37.1562V33.0312H61.9062V37.1562H55.7188ZM55.7188 15.5V24.7812H43.3438V15.5C43.3438 14.9318 43.8068 14.4688 44.375 14.4688H47.4688H54.6875C55.2557 14.4688 55.7188 14.9318 55.7188 15.5ZM36.125 11.375V3.125C36.125 2.55678 36.588 2.09375 37.1562 2.09375H47.4688C48.037 2.09375 48.5 2.55678 48.5 3.125V11.375C48.5 11.9432 48.037 12.4062 47.4688 12.4062H44.375H40.25H37.1562C36.588 12.4062 36.125 11.9432 36.125 11.375ZM28.9062 15.5C28.9062 14.9318 29.3693 14.4688 29.9375 14.4688H37.1562H40.25C40.8182 14.4688 41.2812 14.9318 41.2812 15.5V24.7812H28.9062V15.5ZM59.8438 26.8438V30.9688H29.7704L24.7812 32.6322V26.8438H59.8438ZM30.9688 43.3438H37.1562V47.4688H30.9688V43.3438ZM55.7188 47.4688V43.3438H61.9062V47.4688H55.7188Z" fill="black"/>
<path d="M13.4375 53.6562C11.7318 53.6562 10.3438 55.0443 10.3438 56.75C10.3438 58.4557 11.7318 59.8438 13.4375 59.8438C15.1432 59.8438 16.5312 58.4557 16.5312 56.75C16.5312 55.0443 15.1432 53.6562 13.4375 53.6562ZM13.4375 57.7812C12.8693 57.7812 12.4062 57.3182 12.4062 56.75C12.4062 56.1818 12.8693 55.7188 13.4375 55.7188C14.0057 55.7188 14.4688 56.1818 14.4688 56.75C14.4688 57.3182 14.0057 57.7812 13.4375 57.7812Z" fill="black"/>
<path d="M50.5625 53.6562C48.8568 53.6562 47.4688 55.0443 47.4688 56.75C47.4688 58.4557 48.8568 59.8438 50.5625 59.8438C52.2682 59.8438 53.6562 58.4557 53.6562 56.75C53.6562 55.0443 52.2682 53.6562 50.5625 53.6562ZM50.5625 57.7812C49.9943 57.7812 49.5312 57.3182 49.5312 56.75C49.5312 56.1818 49.9943 55.7188 50.5625 55.7188C51.1307 55.7188 51.5938 56.1818 51.5938 56.75C51.5938 57.3182 51.1307 57.7812 50.5625 57.7812Z" fill="black"/>
</svg>
