<svg width="17" height="17" viewBox="0 0 17 17" fill="none" xmlns="http://www.w3.org/2000/svg">
<path d="M14.973 8.04C14.565 7.884 14.01 7.786 13.419 7.759C14.477 7.312 15.068 6.311 14.739 5.524C14.408 4.734 13.274 4.454 12.211 4.898C11.939 5.011 11.621 5.195 11.305 5.418C11.829 4.858 12.256 4.227 12.454 3.708C12.982 2.335 12.294 0.788998 10.921 0.260998C9.54801 -0.266002 8.00001 0.422998 7.47401 1.796C7.36801 2.067 7.29101 2.407 7.24301 2.776C6.75301 1.875 5.85001 1.397 5.12401 1.7C4.33401 2.03 4.05401 3.166 4.49901 4.228C4.52901 4.299 4.56501 4.376 4.60301 4.452C4.26301 4.211 3.92401 4.017 3.62501 3.901C2.25101 3.373 0.705012 4.062 0.178012 5.435C-0.349988 6.81 0.339012 8.355 1.71201 8.883C2.01601 8.999 2.40301 9.081 2.82501 9.13C1.78501 9.583 1.20701 10.571 1.53301 11.352C1.86301 12.142 2.99801 12.423 4.06101 11.978C4.07901 11.97 4.09701 11.961 4.11601 11.953C3.85801 12.308 3.65401 12.662 3.53301 12.973C3.00601 14.348 3.69401 15.894 5.06701 16.422C6.44001 16.948 7.98601 16.26 8.51401 14.888C8.68701 14.44 8.78701 13.816 8.80101 13.159C8.83401 13.26 8.86801 13.355 8.90401 13.44C9.34801 14.504 10.353 15.1 11.143 14.769C11.933 14.439 12.213 13.305 11.769 12.242C11.767 12.238 11.766 12.234 11.763 12.23C12.206 12.588 12.665 12.872 13.059 13.023C14.432 13.549 15.98 12.862 16.508 11.489C17.032 10.115 16.345 8.569 14.973 8.04ZM12.365 5.264C13.155 4.934 13.999 5.143 14.245 5.729C14.491 6.317 14.047 7.064 13.256 7.396C12.677 7.638 11.45 7.849 10.739 7.712C10.708 7.607 10.674 7.503 10.627 7.4C10.546 7.219 10.444 7.053 10.328 6.901C10.696 6.289 11.763 5.516 12.365 5.264ZM8.11101 2.041C8.50401 1.02 9.65401 0.506998 10.676 0.898998C11.697 1.292 12.209 2.441 11.818 3.463C11.492 4.31 10.253 5.827 9.25601 6.097C8.99701 5.996 8.72001 5.943 8.43801 5.933C7.67501 5.244 7.75401 2.971 8.11101 2.041ZM5.33001 2.195C5.91901 1.95 6.66601 2.393 6.99701 3.184C7.06401 3.345 7.12801 3.555 7.18401 3.79C7.19201 4.262 7.24801 4.737 7.35801 5.169C7.35801 5.684 7.26601 6.111 7.01401 6.216C6.42601 6.462 5.19701 4.866 4.86601 4.075C4.53401 3.284 4.74301 2.441 5.33001 2.195ZM1.95701 8.244C0.935012 7.853 0.423012 6.702 0.816012 5.68C1.20801 4.659 2.35801 4.146 3.37901 4.539C4.37101 4.919 6.27301 6.547 6.03201 7.578C6.01601 7.624 6.00001 7.67 5.98601 7.717C5.53401 8.692 2.96401 8.631 1.95701 8.244ZM7.87701 14.642C7.48501 15.663 6.33401 16.175 5.31201 15.783C4.29101 15.391 3.77801 14.24 4.17001 13.219C4.53801 12.261 6.07501 10.443 7.10701 10.543C7.24701 10.626 7.39501 10.693 7.54601 10.746C8.31201 11.434 8.23501 13.708 7.87701 14.642ZM6.64401 9.174C6.22301 8.226 6.64901 7.111 7.59801 6.691C8.54701 6.268 9.66101 6.695 10.083 7.645C10.49 8.562 10.098 9.63 9.21201 10.081H9.21001C9.20501 10.083 9.20101 10.088 9.19501 10.091C9.17201 10.102 9.15201 10.118 9.12801 10.129C8.18101 10.551 7.06601 10.122 6.64401 9.174ZM10.936 14.277C10.349 14.521 9.60301 14.078 9.27101 13.286C9.03401 12.719 8.82601 11.532 8.94501 10.816C9.09001 10.782 9.23201 10.735 9.37201 10.674C9.54001 10.599 9.69301 10.508 9.83501 10.403C10.436 10.806 11.16 11.815 11.402 12.395C11.733 13.186 11.524 14.029 10.936 14.277ZM15.868 11.243C15.475 12.264 14.326 12.777 13.304 12.386C12.318 12.006 10.427 10.391 10.649 9.36C10.675 9.297 10.699 9.234 10.719 9.17C11.219 8.234 13.734 8.298 14.728 8.679C15.748 9.07 16.261 10.223 15.868 11.243Z" fill="#A0A0A0"/>
</svg>
