<svg width="55" height="55" viewBox="0 0 55 55" fill="none" xmlns="http://www.w3.org/2000/svg">
<path d="M39.5312 24.0625H33.5156C33.0413 24.0625 32.6562 23.6775 32.6562 23.2031V21.4844C32.6562 21.01 33.0413 20.625 33.5156 20.625H35.2344L35.9425 19.562C36.6016 18.5745 36.9531 17.4135 36.9531 16.2259V12.8906C36.9531 10.823 37.9973 8.99937 39.5862 7.91656L39.5768 7.73438H14.6094V29.2188H20.625L26.6956 31.4952C27.1795 31.6766 27.5 32.1389 27.5 32.6562C27.5 33.1736 27.1795 33.6359 26.6956 33.8173L20.625 36.0938H14.6094V43.8281H40.3906V26.3141C39.8621 25.7099 39.5312 24.9287 39.5312 24.0625Z" fill="#F0BC5E"/>
<path d="M26.6406 4.29688H31.7969V6.01562H26.6406V4.29688Z" fill="black"/>
<path d="M23.2031 4.29688H24.9219V6.01562H23.2031V4.29688Z" fill="black"/>
<path d="M18.5505 45.5469H18.0469C17.099 45.5469 16.3281 46.3177 16.3281 47.2656V48.9844C16.3281 49.9323 17.099 50.7031 18.0469 50.7031H18.5505C19.0094 50.7031 19.4408 50.5244 19.7656 50.1995L21.8402 48.125L19.7656 46.0505C19.4408 45.7256 19.0094 45.5469 18.5505 45.5469ZM18.5505 48.9844H18.0469V47.2656H18.5505L19.4098 48.125L18.5505 48.9844Z" fill="black"/>
<path d="M28.3594 45.5469H26.6406C25.6927 45.5469 24.9219 46.3177 24.9219 47.2656V48.9844C24.9219 49.9323 25.6927 50.7031 26.6406 50.7031H28.3594C29.3073 50.7031 30.0781 49.9323 30.0781 48.9844V47.2656C30.0781 46.3177 29.3073 45.5469 28.3594 45.5469ZM26.6406 48.9844V47.2656H28.3594L28.3602 48.9844H26.6406Z" fill="black"/>
<path d="M36.9534 45.5469H36.4498C35.9909 45.5469 35.5595 45.7256 35.2347 46.0505L33.1602 48.125L35.2347 50.1995C35.5595 50.5244 35.9909 50.7031 36.4498 50.7031H36.9534C37.9013 50.7031 38.6722 49.9323 38.6722 48.9844V47.2656C38.6722 46.3177 37.9013 45.5469 36.9534 45.5469ZM36.4498 48.9844L35.5905 48.125L36.4498 47.2656H36.9534L36.9543 48.9844H36.4498Z" fill="black"/>
<path d="M52.4219 19.7656H51.1629L50.71 19.0859C50.1437 18.2359 49.8438 17.2468 49.8438 16.225V12.8906C49.8438 9.39125 47.2141 6.50031 43.8281 6.07492V5.15625C43.8281 2.78695 41.9005 0.859375 39.5312 0.859375H15.4688C13.0995 0.859375 11.1719 2.78695 11.1719 5.15625V28.3594H5.15625C2.78695 28.3594 0.859375 30.287 0.859375 32.6562C0.859375 35.0255 2.78695 36.9531 5.15625 36.9531H11.1719V49.8438C11.1719 52.213 13.0995 54.1406 15.4688 54.1406H39.5312C41.9005 54.1406 43.8281 52.213 43.8281 49.8438V28.2726C45.5091 27.9297 46.8359 26.6028 47.1788 24.9219H52.4219C53.3698 24.9219 54.1406 24.151 54.1406 23.2031V21.4844C54.1406 20.5365 53.3698 19.7656 52.4219 19.7656ZM48.125 12.8906V16.225C48.125 17.4814 48.4791 18.694 49.1253 19.7656H36.8122C37.4584 18.6948 37.8125 17.4814 37.8125 16.225V12.8906C37.8125 10.047 40.1251 7.73438 42.9688 7.73438C45.8124 7.73438 48.125 10.047 48.125 12.8906ZM24.9219 35.4002L26.9964 34.6225C27.812 34.3174 28.3594 33.5268 28.3594 32.6562C28.3594 31.7857 27.812 30.9951 26.9973 30.69L24.9219 29.9123V28.3594H35.2344V38.6719H24.9219V35.4002ZM26.394 32.2996C26.5418 32.3555 26.6406 32.4981 26.6406 32.6562C26.6406 32.8144 26.5418 32.957 26.3931 33.0129L21.4844 34.8537V30.4588L26.394 32.2996ZM9.45312 33.5156H19.7656V35.2344H9.45312V33.5156ZM19.7656 31.7969H9.45312V30.0781H19.7656V31.7969ZM2.57812 32.6562C2.57812 31.2348 3.73484 30.0781 5.15625 30.0781H7.73438V35.2344H5.15625C3.73484 35.2344 2.57812 34.0777 2.57812 32.6562ZM39.5312 52.4219H15.4688C14.0473 52.4219 12.8906 51.2652 12.8906 49.8438V36.9531H20.7805L23.2031 36.0448V40.3906H36.9531V26.6406H23.2031V29.2677L20.7805 28.3594H12.8906V5.15625C12.8906 3.73484 14.0473 2.57812 15.4688 2.57812H39.5312C40.9527 2.57812 42.1094 3.73484 42.1094 5.15625V6.07492C38.7234 6.50031 36.0938 9.39125 36.0938 12.8906V16.225C36.0938 17.2459 35.7938 18.2359 35.2275 19.0859L34.7746 19.7656H33.5156C32.5677 19.7656 31.7969 20.5365 31.7969 21.4844V23.2031C31.7969 24.151 32.5677 24.9219 33.5156 24.9219H38.7587C39.1016 26.6028 40.4284 27.9297 42.1094 28.2726V49.8438C42.1094 51.2652 40.9527 52.4219 39.5312 52.4219ZM42.9688 26.6406C41.8498 26.6406 40.9045 25.9196 40.5487 24.9219H45.3879C45.033 25.9196 44.0877 26.6406 42.9688 26.6406ZM33.5156 23.2031V21.4844H52.4219L52.4227 23.2031H33.5156Z" fill="black"/>
<path d="M29.2189 35.7381L28.1077 34.627L26.8926 35.8421L29.2189 38.1684L34.1234 33.264L32.9082 32.0488L29.2189 35.7381Z" fill="black"/>
<path d="M18.0469 11.1719H19.7656V12.8906H18.0469V11.1719Z" fill="black"/>
<path d="M21.4844 11.1719H30.0781V12.8906H21.4844V11.1719Z" fill="black"/>
<path d="M18.0469 14.6094H30.0781V16.3281H18.0469V14.6094Z" fill="black"/>
<path d="M28.3594 18.0469H30.0781V19.7656H28.3594V18.0469Z" fill="black"/>
<path d="M18.0469 18.0469H26.6406V19.7656H18.0469V18.0469Z" fill="black"/>
<path d="M18.0469 21.4844H30.0781V23.2031H18.0469V21.4844Z" fill="black"/>
</svg>
