<svg width="60" height="57" viewBox="0 0 60 57" fill="none" xmlns="http://www.w3.org/2000/svg">
<path d="M57.6773 43.6989H59V56H1V43.6978H4.08702H5.08702V42.6978V27.1517L14.6043 20.475V26.6318V28.555L16.1787 27.4503L26.1199 20.4751V26.6318V28.5548L27.6941 27.4504L37.6378 20.4749V34.4332V35.4332H38.6378H42.6116H43.5377L43.6087 34.5098L45.6959 7.34013H50.4217L52.2479 34.5003L52.3106 35.4332H53.2456H56.6773V42.6989V43.6989H57.6773ZM19.8083 36.5218V35.5218H18.8083H9.75338H8.75338V36.5218V44.8799V45.8799H9.75338H18.8083H19.8083V44.8799V36.5218ZM35.4113 36.5218V35.5218H34.4113H25.3561H24.3561V36.5218V44.8799V45.8799H25.3561H34.4113H35.4113V44.8799V36.5218ZM51.2102 36.5218V35.5218H50.2102H41.1553H40.1553V36.5218V44.8799V45.8799H41.1553H50.2102H51.2102V44.8799V36.5218Z" fill="#FFE100" stroke="black" stroke-width="2"/>
</svg>
