<svg width="60" height="60" viewBox="0 0 60 60" fill="none" xmlns="http://www.w3.org/2000/svg">
<circle cx="30" cy="30" r="30" fill="#F5D200"/>
<g clip-path="url(#clip0)">
<path d="M43.5126 34.3479C41.6146 34.3479 39.7511 34.0511 37.9851 33.4675C37.1047 33.1673 36.1023 33.4003 35.5279 33.9856L32.0423 36.6168C27.9999 34.459 25.5099 31.9698 23.3815 27.9578L25.9354 24.563C26.5989 23.9004 26.8369 22.9324 26.5518 22.0242C25.9657 20.249 25.668 18.3863 25.668 16.4876C25.668 15.1159 24.5521 14 23.1805 14H17.4874C16.1159 14 15 15.1159 15 16.4874C15 32.2095 27.7906 45 43.5126 45C44.8842 45 46.0001 43.8841 46.0001 42.5125V36.8354C46 35.4639 44.8841 34.3479 43.5126 34.3479ZM44.2778 42.5126C44.2778 42.9347 43.9347 43.2778 43.5126 43.2778C28.7399 43.2778 16.7223 31.2601 16.7223 16.4875C16.7223 16.0654 17.0654 15.7223 17.4875 15.7223H23.1806C23.6027 15.7223 23.9458 16.0654 23.9458 16.4875C23.9458 18.5705 24.273 20.6148 24.9129 22.5515C25.002 22.8374 24.9297 23.1334 24.6404 23.4345L21.6803 27.3548C21.4819 27.618 21.4507 27.9703 21.5996 28.2638C24.0156 33.0125 26.9513 35.9482 31.7336 38.3987C32.0246 38.5509 32.3812 38.519 32.6452 38.3197L36.6556 35.2814C36.8582 35.0788 37.1619 35.0065 37.436 35.0998C39.3861 35.7439 41.4304 36.0702 43.5126 36.0702C43.9347 36.0702 44.2778 36.4133 44.2778 36.8355V42.5126Z" fill="black"/>
</g>
<defs>
<clipPath id="clip0">
<rect x="15" y="14" width="31" height="31" fill="white"/>
</clipPath>
</defs>
</svg>
