<svg width="70" height="70" viewBox="0 0 70 70" fill="none" xmlns="http://www.w3.org/2000/svg">
<path d="M64.9832 66.3832H4.78321C2.68321 66.3832 1.04984 64.7498 1.04984 62.6498V25.7832C1.04984 23.6832 2.68321 22.0498 4.78321 22.0498H64.9832C67.0832 22.0498 68.7166 23.6832 68.7166 25.7832V62.6498C68.7165 64.7498 67.0832 66.3832 64.9832 66.3832Z" fill="#FFDD09"/>
<path d="M61.7165 22.2828C63.8165 22.2828 65.4499 23.9162 65.4499 26.0162V62.8828C65.4499 64.7494 64.1665 66.2662 62.4165 66.4994H65.0999C67.1999 66.4994 68.8333 64.866 68.8333 62.766V25.8994C68.8333 23.7994 67.1999 22.166 65.0999 22.166L61.7165 22.2828Z" fill="#FD9808"/>
<path d="M8.2832 22.2828C6.1832 22.2828 4.54982 23.9162 4.54982 26.0162V62.8828C4.54982 64.7494 5.8332 66.2662 7.5832 66.4994H4.89982C2.79982 66.4994 1.16644 64.866 1.16644 62.766V25.8994C1.16644 23.7994 2.79982 22.166 4.89982 22.166L8.2832 22.2828Z" fill="white"/>
<path d="M11.6666 22.166H18.6666V15.166H11.6666V22.166Z" fill="#FFDD09"/>
<path d="M51.3336 22.166H58.3336V15.166H51.3336V22.166Z" fill="#FFDD09"/>
<path d="M55.9999 22.166H58.3333V15.166H55.9999V22.166Z" fill="#FD9808"/>
<path d="M11.6666 22.166H14V15.166H11.6666V22.166Z" fill="white"/>
<path d="M61.1332 15.1666H8.86644C7.81644 15.1666 6.99982 14.35 6.99982 13.3V5.36662C6.99982 4.31662 7.81644 3.5 8.86644 3.5H61.0164C62.1831 3.5 62.9998 4.31662 62.9998 5.36662V13.1832C62.9998 14.35 62.1832 15.1666 61.1332 15.1666Z" fill="#FFDD09"/>
<path d="M8.86644 3.5H11.1998C10.1498 3.5 9.33319 4.31662 9.33319 5.36662V13.1832C9.33319 14.3499 10.1498 15.1666 11.1998 15.1666H8.86644C7.81644 15.1666 6.99982 14.35 6.99982 13.3V5.36662C6.99982 4.31662 7.81644 3.5 8.86644 3.5Z" fill="white"/>
<path d="M53.6664 44.333C53.6664 54.0164 45.8498 61.833 36.1664 61.833C26.4831 61.833 18.6664 54.0164 18.6664 44.333C18.6664 34.6496 26.4831 26.833 36.1664 26.833C45.8498 26.833 53.6664 34.6496 53.6664 44.333Z" fill="#1CD759"/>
<path d="M36.1667 26.833C35.5833 26.833 35.0001 26.833 34.4167 26.9496C43.2833 27.7662 50.1667 35.233 50.1667 44.333C50.1667 53.433 43.2833 60.8996 34.4167 61.7164C35.0001 61.7164 35.5833 61.833 36.1667 61.833C45.8501 61.833 53.6667 54.0164 53.6667 44.333C53.6667 34.6496 45.8501 26.833 36.1667 26.833Z" fill="#15A143"/>
<path d="M46.6667 40.833H39.6667V33.833H32.6667V40.833H25.6667V47.833H32.6667V54.833H39.6667V47.833H46.6667V40.833Z" fill="#54C9FD"/>
<path d="M65.1 67.6666H4.9C2.21662 67.6666 0 65.45 0 62.7666V25.9C0 23.2166 2.21662 21 4.9 21H65.1C67.7834 21 70 23.2166 70 25.9V62.7666C70 65.45 67.7834 67.6666 65.1 67.6666ZM4.9 23.3334C3.5 23.3334 2.33338 24.5 2.33338 25.9V62.7666C2.33338 64.1666 3.5 65.3332 4.9 65.3332H65.1C66.5 65.3332 67.6666 64.1666 67.6666 62.7666V25.9C67.6666 24.5 66.5 23.3334 65.1 23.3334H4.9Z" fill="black"/>
<path d="M19.8336 23.3334H10.5002V14H19.8336V23.3334ZM12.8336 21H17.5002V16.3334H12.8336V21Z" fill="black"/>
<path d="M59.4999 23.3334H50.1665V14H59.4999V23.3334ZM52.4999 21H57.1665V16.3334H52.4999V21Z" fill="black"/>
<path d="M36.1666 63.0002C25.9 63.0002 17.5 54.6002 17.5 44.3336C17.5 34.067 25.9 25.667 36.1666 25.667C46.4332 25.667 54.8332 34.067 54.8332 44.3336C54.8332 54.6002 46.4334 63.0002 36.1666 63.0002ZM36.1666 28.0002C27.1832 28.0002 19.8332 35.3502 19.8332 44.3336C19.8332 53.317 27.1832 60.667 36.1666 60.667C45.15 60.667 52.5 53.3169 52.5 44.3336C52.5 35.3504 45.15 28.0002 36.1666 28.0002Z" fill="black"/>
<path d="M40.8332 55.9994H31.4998V48.9994H24.4998V39.666H31.4998V32.666H40.8332V39.666H47.8332V48.9994H40.8332V55.9994ZM33.8332 53.666H38.4998V46.666H45.4998V41.9994H38.4998V34.9994H33.8332V41.9994H26.8332V46.666H33.8332V53.666Z" fill="black"/>
<path d="M63 29.1662H59.5C58.8 29.1662 58.3334 28.6996 58.3334 27.9996C58.3334 27.2996 58.8 26.833 59.5 26.833H63C63.7 26.833 64.1666 27.2996 64.1666 27.9996C64.1666 28.6996 63.7 29.1662 63 29.1662Z" fill="black"/>
<path d="M55.9998 27.9996C55.9998 28.6996 55.5332 29.1662 54.8332 29.1662C54.1332 29.1662 53.6666 28.6996 53.6666 27.9996C53.6666 27.2996 54.1332 26.833 54.8332 26.833C55.5332 26.833 55.9998 27.2996 55.9998 27.9996Z" fill="black"/>
<path d="M10.5 61.8332H7C6.3 61.8332 5.83337 61.3666 5.83337 60.6666C5.83337 59.9666 6.3 59.5 7 59.5H10.5C11.2 59.5 11.6666 59.9666 11.6666 60.6666C11.6666 61.3665 11.2 61.8332 10.5 61.8332Z" fill="black"/>
<path d="M14.0001 60.6666C14.0001 59.9666 14.4667 59.5 15.1667 59.5C15.8667 59.5 16.3333 59.9666 16.3333 60.6666C16.3333 61.3666 15.8667 61.8332 15.1667 61.8332C14.4667 61.8332 14.0001 61.3666 14.0001 60.6666Z" fill="black"/>
<path d="M61.1334 16.3331H8.8666C7.23322 16.3331 5.83322 14.9331 5.83322 13.2998V5.36639C5.83322 3.73301 7.23322 2.33301 8.8666 2.33301H61.0166C62.7666 2.33301 64.1666 3.73301 64.1666 5.36639V13.183C64.1666 14.9331 62.7666 16.3331 61.1334 16.3331ZM8.8666 4.66639C8.5166 4.66639 8.1666 5.01639 8.1666 5.36639V13.183C8.1666 13.6496 8.5166 13.9996 8.8666 13.9996H61.0166C61.4832 13.9996 61.8332 13.6496 61.8332 13.2996V5.36639C61.8332 5.01639 61.4832 4.66639 61.1332 4.66639H8.8666Z" fill="black"/>
<path d="M11.6668 11.6666C10.9668 11.6666 10.5002 11.2 10.5002 10.5V8.16662C10.5002 7.46662 10.9668 7 11.6668 7C12.3668 7 12.8334 7.46662 12.8334 8.16662V10.5C12.8336 11.2 12.3668 11.6666 11.6668 11.6666Z" fill="black"/>
<path d="M16.3333 11.6666C15.6333 11.6666 15.1667 11.2 15.1667 10.5V8.16662C15.1667 7.46662 15.6333 7 16.3333 7C17.0333 7 17.4999 7.46662 17.4999 8.16662V10.5C17.4999 11.2 17.0333 11.6666 16.3333 11.6666Z" fill="black"/>
<path d="M21.0001 11.6666C20.3001 11.6666 19.8335 11.2 19.8335 10.5V8.16662C19.8335 7.46662 20.3001 7 21.0001 7C21.7001 7 22.1667 7.46662 22.1667 8.16662V10.5C22.1667 11.2 21.7001 11.6666 21.0001 11.6666Z" fill="black"/>
<path d="M25.6664 11.6666C24.9664 11.6666 24.4998 11.2 24.4998 10.5V8.16662C24.4998 7.46662 24.9664 7 25.6664 7C26.3664 7 26.8331 7.46662 26.8331 8.16662V10.5C26.8332 11.2 26.3664 11.6666 25.6664 11.6666Z" fill="black"/>
<path d="M30.3334 11.6666C29.6334 11.6666 29.1668 11.2 29.1668 10.5V8.16662C29.1668 7.46662 29.6334 7 30.3334 7C31.0334 7 31.5 7.46662 31.5 8.16662V10.5C31.5 11.2 31.0334 11.6666 30.3334 11.6666Z" fill="black"/>
<path d="M35.0002 11.6666C34.3002 11.6666 33.8336 11.2 33.8336 10.5V8.16662C33.8336 7.46662 34.3002 7 35.0002 7C35.7002 7 36.1668 7.46662 36.1668 8.16662V10.5C36.1668 11.2 35.7002 11.6666 35.0002 11.6666Z" fill="black"/>
<path d="M39.6666 11.6666C38.9666 11.6666 38.4999 11.2 38.4999 10.5V8.16662C38.4999 7.46662 38.9666 7 39.6666 7C40.3666 7 40.8332 7.46662 40.8332 8.16662V10.5C40.8333 11.2 40.3666 11.6666 39.6666 11.6666Z" fill="black"/>
<path d="M44.3335 11.6666C43.6335 11.6666 43.1669 11.2 43.1669 10.5V8.16662C43.1669 7.46662 43.6335 7 44.3335 7C45.0335 7 45.5001 7.46662 45.5001 8.16662V10.5C45.5001 11.2 45.0335 11.6666 44.3335 11.6666Z" fill="black"/>
<path d="M48.9998 11.6666C48.2998 11.6666 47.8332 11.2 47.8332 10.5V8.16662C47.8332 7.46662 48.2998 7 48.9998 7C49.6998 7 50.1665 7.46662 50.1665 8.16662V10.5C50.1665 11.2 49.6998 11.6666 48.9998 11.6666Z" fill="black"/>
<path d="M53.6666 11.6666C52.9666 11.6666 52.5 11.2 52.5 10.5V8.16662C52.5 7.46662 52.9666 7 53.6666 7C54.3666 7 54.8332 7.46662 54.8332 8.16662V10.5C54.8334 11.2 54.3666 11.6666 53.6666 11.6666Z" fill="black"/>
<path d="M58.3336 11.6666C57.6336 11.6666 57.1669 11.2 57.1669 10.5V8.16662C57.1669 7.46662 57.6336 7 58.3336 7C59.0336 7 59.5002 7.46662 59.5002 8.16662V10.5C59.5002 11.2 59.0336 11.6666 58.3336 11.6666Z" fill="black"/>
</svg>
