<svg width="70" height="70" viewBox="0 0 70 70" fill="none" xmlns="http://www.w3.org/2000/svg">
<path d="M61.833 39.6668C61.2496 39.6668 60.783 39.2002 60.6664 38.6168C60.3164 36.0501 60.6664 34.5335 60.8997 33.2501C61.1331 31.9667 61.3664 31.1501 60.6664 29.6334C60.433 29.05 60.6664 28.35 61.2497 28.1168C61.8331 27.8834 62.5331 28.1168 62.7663 28.7001C63.6997 30.9169 63.4663 32.2001 63.1163 33.7168C62.8829 34.8834 62.6497 36.1668 62.883 38.3835C62.9997 38.9668 62.533 39.5502 61.833 39.6668C61.9497 39.6668 61.833 39.6668 61.833 39.6668Z" fill="#FFE100"/>
<path d="M59.4996 39.6674C59.1496 39.6674 58.7996 39.434 58.5662 39.2008C57.0496 37.334 57.1663 35.584 57.1663 34.1841C57.2829 32.7841 57.2829 31.6173 56.2329 29.8674C55.8829 29.284 55.9995 28.584 56.5829 28.234C57.1663 27.884 57.8662 28.0006 58.2162 28.584C59.7328 30.9173 59.6162 32.7839 59.6162 34.1841C59.6162 35.4674 59.4996 36.5174 60.5496 37.8008C60.6662 38.0341 60.783 38.2674 60.783 38.5008C60.6662 39.2008 60.1996 39.6674 59.4996 39.6674Z" fill="#FFE100"/>
<path d="M64.1665 39.6674C63.4665 39.6674 62.9999 39.2008 62.9999 38.5008C62.9999 36.9842 63.6999 36.0509 64.5165 35.0009C65.4498 33.7175 66.4998 32.4342 66.4998 29.1676C66.4998 28.4676 66.9664 28.001 67.6664 28.001C68.3664 28.001 68.833 28.4676 68.833 29.1676C68.833 33.2509 67.4331 35.1176 66.3831 36.5176C65.6831 37.3342 65.3331 37.801 65.3331 38.501C65.3331 39.201 64.8665 39.6674 64.1665 39.6674Z" fill="#FFE100"/>
<path d="M63 25.667C62.5334 25.667 62.0666 25.4336 61.95 24.967C61.0166 22.7503 61.25 21.4671 61.6 19.9503C61.8334 18.7837 62.0666 17.5004 61.8334 15.2836C61.7168 14.7003 62.1834 14.117 62.8834 14.0003C63.4667 13.8837 64.05 14.3503 64.1667 15.0503C64.5167 17.617 64.1667 19.1336 63.9333 20.4169C63.7 21.7003 63.4667 22.5169 64.1667 24.0337C64.4001 24.617 64.1667 25.317 63.5833 25.5503C63.35 25.667 63.1166 25.667 63 25.667Z" fill="#FFE100"/>
<path d="M67.6665 25.6667C67.3166 25.6667 66.8499 25.4334 66.7332 25.0834C65.2166 22.75 65.3332 20.8834 65.3332 19.4833C65.3332 18.1999 65.4498 17.15 64.3998 15.8666C64.2832 15.75 64.1664 15.4 64.1664 15.1666C64.1664 14.4666 64.6331 14 65.3331 14C65.683 14 66.033 14.2334 66.2664 14.4666C67.783 16.3333 67.6664 18.0833 67.6664 19.4833C67.5498 20.8833 67.5498 22.05 68.5998 23.8C68.9498 24.3834 68.8332 25.0834 68.2498 25.4334C68.1332 25.6667 67.8998 25.6667 67.6665 25.6667Z" fill="#FFE100"/>
<path d="M57.1665 25.6666C56.4665 25.6666 55.9999 25.2 55.9999 24.5C55.9999 20.4167 57.3999 18.5499 58.4498 17.15C59.1498 16.3333 59.4998 15.8666 59.4998 15.1666C59.4998 14.4666 59.9664 14 60.6664 14C61.3664 14 61.833 14.4666 61.833 15.1666C61.833 16.6832 61.1331 17.6166 60.3164 18.6666C59.3831 19.8332 58.3331 21.2333 58.3331 24.4999C58.3331 25.1998 57.8665 25.6666 57.1665 25.6666Z" fill="#FFE100"/>
<path d="M60.6664 38.5V56C60.6664 60.55 57.0497 64.1667 52.4998 64.1667H37.3331C32.7832 64.1667 29.1665 60.55 29.1665 56V38.5H24.4998V56C24.4998 63.1167 30.2164 68.8334 37.3331 68.8334H52.4998C59.6164 68.8334 65.3331 63.1167 65.3331 56V38.5H60.6664Z" fill="#FFE100"/>
<path d="M61.8332 15.1671H66.4999V1.16699H61.8332V15.1671Z" fill="#FFE100"/>
<path d="M63.0001 39.6668C62.4167 39.6668 61.9501 39.2002 61.8335 38.6168C61.4835 36.0501 61.8335 34.5335 62.0669 33.2501C62.3002 31.9667 62.5335 31.1501 61.8335 29.6334C61.6001 29.05 61.8335 28.35 62.4169 28.1168C63.0002 27.8834 63.7002 28.1168 63.9335 28.7001C64.8668 30.9169 64.6335 32.2001 64.2835 33.7168C64.0501 34.8834 63.8168 36.1668 64.0501 38.3835C64.1667 38.9668 63.7001 39.5501 63.0001 39.6668C63.1167 39.6668 63.0001 39.6668 63.0001 39.6668Z" fill="black"/>
<path d="M60.6666 39.6664C60.3166 39.6664 59.9666 39.433 59.7332 39.1998C58.2166 37.2164 58.3333 35.5831 58.3333 34.1831C58.4499 32.7831 58.4499 31.6164 57.3999 29.8664C57.0499 29.283 57.1665 28.583 57.7499 28.233C58.3333 27.883 59.0332 27.9996 59.3832 28.583C60.8998 30.9164 60.7832 32.783 60.7832 34.1831C60.7832 35.4664 60.6666 36.5164 61.7166 37.7998C61.8332 38.0332 61.95 38.2664 61.95 38.4998C61.8332 39.1998 61.3666 39.6664 60.6666 39.6664Z" fill="black"/>
<path d="M65.3332 39.6665C64.6332 39.6665 64.1666 39.1998 64.1666 38.4999C64.1666 36.9833 64.8666 36.0499 65.6832 34.9999C66.6166 33.7165 67.6666 32.3166 67.6666 29.1666C67.6666 28.4666 68.1332 28 68.8332 28C69.5332 28 69.9998 28.4666 69.9998 29.1666C69.9998 33.2499 68.5998 35.1167 67.5498 36.5166C66.8498 37.3333 66.4998 37.8 66.4998 38.5C66.4998 39.2 66.0332 39.6665 65.3332 39.6665Z" fill="black"/>
<path d="M52.4999 69.9996H37.3332C29.6332 69.9996 23.3333 63.6995 23.3333 55.9996V38.4996C23.3333 37.7996 23.7999 37.333 24.4999 37.333H29.1666C29.8665 37.333 30.3332 37.7996 30.3332 38.4996V55.9996C30.3332 59.8496 33.4831 62.9997 37.3332 62.9997H52.4999C56.3498 62.9997 59.4999 59.8497 59.4999 55.9996V38.4996C59.4999 37.7996 59.9665 37.333 60.6665 37.333H65.3332C66.0332 37.333 66.4998 37.7996 66.4998 38.4996V55.9996C66.4998 63.6995 60.1999 69.9996 52.4999 69.9996ZM25.6666 39.6662V55.9995C25.6666 62.4162 30.9165 67.6661 37.3332 67.6661H52.4999C58.9166 67.6661 64.1665 62.4162 64.1665 55.9995V39.6662H61.8331V55.9995C61.8331 61.1328 57.6332 65.3329 52.4997 65.3329H37.3332C32.1999 65.3329 27.9998 61.133 27.9998 55.9995V39.6662H25.6666Z" fill="black"/>
<path d="M64.1665 25.667C63.6999 25.667 63.2332 25.4336 63.1166 24.967C62.1832 22.7503 62.4166 21.4671 62.7666 19.9503C62.9999 18.7837 63.2332 17.5004 62.9999 15.2836C62.8833 14.7003 63.3499 14.117 64.0499 14.0003C64.6333 13.8837 65.2165 14.3503 65.3333 15.0503C65.6833 17.617 65.3333 19.1336 65.0999 20.4169C64.8665 21.7003 64.6333 22.5169 65.3333 24.0337C65.5667 24.617 65.3333 25.317 64.7499 25.5503C64.5165 25.667 64.2833 25.667 64.1665 25.667Z" fill="black"/>
<path d="M68.8331 25.6667C68.4831 25.6667 68.0165 25.4334 67.8997 25.0834C66.3831 22.75 66.4997 20.8834 66.4997 19.4833C66.4997 18.1999 66.6164 17.15 65.5664 15.8666C65.4498 15.75 65.333 15.5166 65.333 15.1666C65.333 14.4666 65.7996 14 66.4996 14C66.8496 14 67.1996 14.2334 67.433 14.4666C68.9496 16.3333 68.833 18.0833 68.833 19.4833C68.7163 20.8833 68.7163 22.05 69.7663 23.8C70.1163 24.3834 69.9997 25.0834 69.4163 25.4334C69.2997 25.6667 69.0665 25.6667 68.8331 25.6667Z" fill="black"/>
<path d="M58.3335 25.6666C57.6335 25.6666 57.1669 25.2 57.1669 24.5C57.1669 20.4167 58.5669 18.5499 59.6168 17.15C60.3168 16.3333 60.6668 15.8666 60.6668 15.1666C60.6668 14.4666 61.1334 14 61.8334 14C62.5334 14 63 14.4666 63 15.1666C63 16.6832 62.3 17.6166 61.4834 18.6666C60.5501 19.8332 59.5001 21.2333 59.5001 24.4999C59.5002 25.1998 59.0335 25.6666 58.3335 25.6666Z" fill="black"/>
<path d="M66.5 16.3333H61.8333C61.1333 16.3333 60.6667 15.8667 60.6667 15.1667V1.1666C60.6667 0.466614 61.1333 0 61.8333 0H66.5C67.2 0 67.6666 0.466614 67.6666 1.1666V15.1665C67.6667 15.8667 67.2 16.3333 66.5 16.3333ZM63 13.9999H65.3334V2.33335H63V13.9999Z" fill="black"/>
</svg>
